<?xml version="1.0" standalone="no"?>
<!DOCTYPE svg PUBLIC "-//W3C//DTD SVG 1.1//EN" "http://www.w3.org/Graphics/SVG/1.1/DTD/svg11.dtd" >
<svg xmlns="http://www.w3.org/2000/svg" xmlns:xlink="http://www.w3.org/1999/xlink" version="1.1">
<metadata>
Created by FontForge 20150824 at Tue Aug  9 11:49:52 2016
 By www-data
Copyright (c) 2013 by nicolasmartin. All rights reserved.
</metadata>
<defs>
<font id="durselinvenice" horiz-adv-x="551" >
  <font-face 
    font-family="durselinvenice2015"
    font-weight="400"
    font-stretch="normal"
    units-per-em="1000"
    panose-1="2 11 6 4 2 2 2 2 2 4"
    ascent="714"
    descent="-286"
    x-height="517"
    cap-height="684"
    bbox="-53 -214.003 967.997 952"
    underline-thickness="50"
    underline-position="-100"
    unicode-range="U+000D-FB02"
  />
<missing-glyph horiz-adv-x="250" 
 />
    <glyph glyph-name=".notdef" horiz-adv-x="250" 
 />
    <glyph glyph-name="NULL" horiz-adv-x="0" 
 />
    <glyph glyph-name="NULL" horiz-adv-x="0" 
 />
    <glyph glyph-name="nonmarkingreturn" unicode="&#xd;" horiz-adv-x="250" 
 />
    <glyph glyph-name="space" unicode=" " horiz-adv-x="511" 
 />
    <glyph glyph-name="exclam" unicode="!" horiz-adv-x="301" 
d="M174 106v-108h-98v108h98zM84 177v517h83v-517h-83z" />
    <glyph glyph-name="quotedbl" unicode="&#x22;" horiz-adv-x="370" 
d="M63 718h66v-255h-66v255zM191 718h65v-255h-65v255z" />
    <glyph glyph-name="numbersign" unicode="#" 
d="M344 161h-60l6 49h-113l-5 -49h-60l6 49h-47l8 63h47l17 142h-47l8 63h47l7 49h61l-8 -49h112l7 49h61l-8 -49h40l-8 -63h-40l-18 -142h39l-8 -63h-39zM203 415l-18 -142h113l17 142h-112z" />
    <glyph glyph-name="dollar" unicode="$" horiz-adv-x="444" 
d="M172 -18c-24 3.33301 -48.835 10.999 -74.502 22.999s-48.5 25.333 -68.5 40v96c19.333 -20 41.5 -36.833 66.5 -50.5s50.5 -22.834 76.5 -27.501v269c-13.333 14.667 -27.166 30.5 -41.499 47.5s-27.666 34.833 -39.999 53.5s-22.5 38.167 -30.5 58.5
s-12 41.833 -12 64.5c0 18.667 3.5 36.5 10.5 53.5s16.333 32.333 28 46s25 25.167 40 34.5s30.167 15.666 45.5 18.999v64h48v-62c8 -1.33301 15.833 -2.66602 23.5 -3.99902s15.167 -3.33301 22.5 -6v-85c-14.667 7.33301 -30 11 -46 11v-229
c13.333 -17.333 28.333 -35 45 -53s32.167 -36.833 46.5 -56.5s26.333 -40.334 36 -62.001s14.5 -45.167 14.5 -70.5c0 -22 -3.83301 -42.667 -11.5 -62s-18 -36.666 -31 -51.999s-28.167 -28.166 -45.5 -38.499s-35.333 -17.166 -54 -20.499v-97h-48v96zM219.998 271.999
v-196.999c13.333 7.33301 24.833 19.5 34.5 36.5s14.5 33.5 14.5 49.5c0 19.333 -5.33301 39.166 -16 59.499s-21.667 37.5 -33 51.5zM171.998 460v150.998c-9.33301 -7.33301 -17 -17.166 -23 -29.499s-9 -24.833 -9 -37.5c0 -15.333 3.5 -30.166 10.5 -44.499
s14.167 -27.5 21.5 -39.5z" />
    <glyph glyph-name="percent" unicode="%" horiz-adv-x="851" 
d="M35 526c0 23.333 4 45.332 12 65.999s19 38.667 33 54s30.333 27.333 49 36s38.667 13 60 13c20.667 0 40.334 -4.5 59.001 -13.5s35 -21.167 49 -36.5s25 -33.166 33 -53.499s12 -42.166 12 -65.499s-4 -45.333 -12 -66s-19 -38.834 -33 -54.501s-30.333 -28 -49 -37
s-38.334 -13.5 -59.001 -13.5c-21.333 0 -41.333 4.5 -60 13.5s-35 21.167 -49 36.5s-25 33.333 -33 54s-12 43 -12 67zM98 525.999c0 -28.667 8.5 -52.667 25.5 -72s38.5 -29 64.5 -29c12.667 0 24.5 2.66699 35.5 8s20.667 12.5 29 21.5s14.833 19.667 19.5 32
s7 25.5 7 39.5s-2.33301 27 -7 39s-11.167 22.5 -19.5 31.5s-18 16 -29 21s-22.5 7.5 -34.5 7.5s-23.5 -2.66699 -34.5 -8s-20.667 -12.5 -29 -21.5s-15 -19.5 -20 -31.5s-7.5 -24.667 -7.5 -38zM458 163.999c0 23.333 4 45.332 12 65.999s19 38.667 33 54
s30.333 27.333 49 36s38.667 13 60 13c20.667 0 40.334 -4.5 59.001 -13.5s35 -21.167 49 -36.5s25 -33.166 33 -53.499s12 -42.166 12 -65.499s-4 -45.333 -12 -66s-19 -38.834 -33 -54.501s-30.333 -28 -49 -37s-38.334 -13.5 -59.001 -13.5
c-21.333 0 -41.333 4.5 -60 13.5s-35 21.167 -49 36.5s-25 33.333 -33 54s-12 43 -12 67zM521 163.998c0 -28.667 8.5 -52.667 25.5 -72s38.5 -29 64.5 -29c12.667 0 24.5 2.66699 35.5 8s20.667 12.5 29 21.5s14.833 19.667 19.5 32s7 25.5 7 39.5s-2.33301 27 -7 39
s-11.167 22.5 -19.5 31.5s-18 16 -29 21s-22.5 7.5 -34.5 7.5s-23.5 -2.66699 -34.5 -8s-20.667 -12.5 -29 -21.5s-15 -19.5 -20 -31.5s-7.5 -24.667 -7.5 -38zM246 -19.002h-49l356 722h49z" />
    <glyph glyph-name="ampersand" unicode="&#x26;" horiz-adv-x="651" 
d="M496 202c-4 -11.333 -8.33008 -22.1641 -12.9971 -32.4971s-9.66699 -20.5 -15 -30.5l22 -28l-47 -65l-20 28c-25.333 -28 -52.666 -49.667 -81.999 -65s-62 -23 -98 -23c-27.333 0 -53.333 3.83301 -78 11.5s-46.334 19.5 -65.001 35.5s-33.5 36 -44.5 60
s-16.5 52.667 -16.5 86c0 27.333 3.83301 51.5 11.5 72.5s18.167 39.667 31.5 56s28.833 31.166 46.5 44.499s36.5 25.666 56.5 36.999c-8.66699 13.333 -17.167 26.166 -25.5 38.499s-15.666 24.833 -21.999 37.5s-11.5 26.167 -15.5 40.5s-6 30.166 -6 47.499
c0 22.667 3.66699 42.834 11 60.501s17.5 32.667 30.5 45s28 21.666 45 27.999s35.167 9.5 54.5 9.5l6 -73c-20.667 0 -37.834 -6.5 -51.501 -19.5s-20.5 -31.167 -20.5 -54.5c0 -12 2 -23.333 6 -34s9 -21 15 -31s12.5 -19.667 19.5 -29s13.5 -18.333 19.5 -27
c16 11.333 30.333 23 43 35s23.667 27.333 33 46l73 -13c-10 -27.333 -24.833 -51.166 -44.5 -71.499s-40.834 -37.166 -63.501 -50.499c21.333 -29.333 42.333 -58.5 63 -87.5s42 -57.5 64 -85.5c5.33301 11.333 10.166 23.166 14.499 35.499s8.16602 24.833 11.499 37.5z
M249.003 64.002c26 0 50.165 6.66992 72.498 20.0029s42.166 30.666 59.499 51.999c-2.66699 4 -8.16699 11.667 -16.5 23s-18 24.5 -29 39.5s-22.5 30.667 -34.5 47s-23.167 31.166 -33.5 44.499s-19.333 24.5 -27 33.5s-12.167 13.5 -13.5 13.5
c-0.666992 0 -3 -1.33301 -7 -4s-8.5 -5.83398 -13.5 -9.50098s-9.66699 -7 -14 -10s-7.16602 -4.83301 -8.49902 -5.5c-20 -16.667 -36 -34.834 -48 -54.501s-18 -44.167 -18 -73.5c0 -19.333 3.83301 -36.166 11.5 -50.499s17.834 -26.333 30.501 -36
s26.834 -17 42.501 -22s31.167 -7.5 46.5 -7.5z" />
    <glyph glyph-name="quotesingle" unicode="'" horiz-adv-x="425" 
d="M198 662v-76c0 -29.333 -5 -55.333 -15 -78s-29.333 -37.667 -58 -45v199h73z" />
    <glyph glyph-name="parenleft" unicode="(" horiz-adv-x="539" 
d="M63 268c0 80.667 12.001 159.666 36.001 236.999s58 148.333 102 213h24c-10.667 -32.667 -20.167 -68 -28.5 -106s-15.5 -76.667 -21.5 -116s-10.5 -78.5 -13.5 -117.5s-4.5 -75.833 -4.5 -110.5c0 -36 1.66699 -73.5 5 -112.5s8.16602 -78.167 14.499 -117.5
s13.833 -78.166 22.5 -116.499s18 -74.5 28 -108.5h-26c-40 70 -73 142.167 -99 216.5s-39 153.833 -39 238.5z" />
    <glyph glyph-name="parenright" unicode=")" horiz-adv-x="501" 
d="M388 264c0 -80.667 -12.001 -159.666 -36.001 -236.999s-58 -148.333 -102 -213h-24c10.667 32.667 20.167 68 28.5 106s15.5 76.667 21.5 116s10.5 78.5 13.5 117.5s4.5 75.833 4.5 110.5c0 36 -1.66699 73.5 -5 112.5s-8.16602 78.167 -14.499 117.5
s-13.833 78.166 -22.5 116.499s-18 74.5 -28 108.5h26c40 -70 73 -142.167 99 -216.5s39 -153.833 39 -238.5z" />
    <glyph glyph-name="asterisk" unicode="*" horiz-adv-x="401" 
d="M53 646l95 -38v110h54v-110l94 38l18 -55l-97 -34l60 -92l-44 -34l-58 94l-59 -94l-44 34l60 92l-97 34z" />
    <glyph glyph-name="plus" unicode="+" horiz-adv-x="577" 
d="M310 306l116 -21v-66l-116 -20l-17 -127h-59l-16 127l-115 20v66l115 21l16 127h59z" />
    <glyph glyph-name="comma" unicode="," horiz-adv-x="301" 
d="M172 106l-0.000976562 -98.002c0 -17.333 -1.66699 -34.666 -5 -51.999s-8.66602 -33.166 -15.999 -47.499s-17 -26.5 -29 -36.5s-26.667 -16.333 -44 -19v253h94z" />
    <glyph glyph-name="hyphen" unicode="-" horiz-adv-x="351" 
d="M260 232h-220v90h220v-90z" />
    <glyph glyph-name="period" unicode="." horiz-adv-x="301" 
d="M172 0h-94v106h94v-106z" />
    <glyph glyph-name="slash" unicode="/" horiz-adv-x="301" 
d="M289 734c8 0 14.9951 -3.16699 20.9951 -9.5s9 -14.166 9 -23.499c0 -2.66699 -3.16699 -13.667 -9.5 -33s-14.833 -44 -25.5 -74s-23 -63.833 -37 -101.5s-28.333 -76.5 -43 -116.5s-29.167 -79.5 -43.5 -118.5s-27.5 -74.833 -39.5 -107.5s-22.333 -60.5 -31 -83.5
s-14.334 -38.167 -17.001 -45.5v-2c0 -2.66699 -1.33301 -5.16699 -4 -7.5s-5.66699 -4.33301 -9 -6s-6.66602 -3 -9.99902 -4s-5.66602 -1.5 -6.99902 -1.5c-9.33301 0 -16.666 3 -21.999 9s-8 14 -8 24c0 2 3.16699 12.5 9.5 31.5s15 43.667 26 74s23.333 64.5 37 102.5
s27.834 77.167 42.501 117.5s29.334 80.166 44.001 119.499s28 75.333 40 108s22.333 60.5 31 83.5s14.334 38.167 17.001 45.5c6 5.33301 10 9.83301 12 13.5s7.66699 5.5 17 5.5z" />
    <glyph glyph-name="zero" unicode="0" horiz-adv-x="517" 
d="M400 267c0 -32.667 -1.66992 -65.334 -5.00293 -98.001s-10.666 -62 -21.999 -88s-28 -47.167 -50 -63.5s-51.333 -24.5 -88 -24.5c-37.333 0 -66.833 8.16699 -88.5 24.5s-38.167 37.5 -49.5 63.5s-18.5 55.333 -21.5 88s-4.5 65.334 -4.5 98.001
c0 32 1.66699 64.333 5 97s10.666 62.167 21.999 88.5s27.833 47.833 49.5 64.5s50.834 25 87.501 25s65.834 -8.16699 87.501 -24.5s38.334 -37.666 50.001 -63.999s19.167 -55.833 22.5 -88.5s5 -65.334 5 -98.001zM233.997 467c-22 0 -39.002 -7.49902 -51.002 -22.499
s-20.5 -33.167 -25.5 -54.5s-7.83301 -43.833 -8.5 -67.5s-1 -43.834 -1 -60.501c0 -18 0.5 -38.167 1.5 -60.5s4.16699 -43.333 9.5 -63s13.833 -36.167 25.5 -49.5s28.167 -20 49.5 -20c22 0 39 6.83301 51 20.5s20.667 30.5 26 50.5s8.5 41.333 9.5 64s1.5 42.667 1.5 60
v46c0 16 -1.16699 33.167 -3.5 51.5s-6.66602 35.333 -12.999 51s-15.166 28.667 -26.499 39s-26.333 15.5 -45 15.5z" />
    <glyph glyph-name="one" unicode="1" horiz-adv-x="378" 
d="M249 73l0.00195312 -72h-155v72h36v348h-36v69c9.33301 8 18.166 16.5 26.499 25.5s17.166 17.833 26.499 26.5h67v-469h35z" />
    <glyph glyph-name="two" unicode="2" horiz-adv-x="507" 
d="M365 73l-0.000976562 -71.999h-324c2.66699 42.667 10.834 78.167 24.501 106.5s30 52.333 49 72s39 36.5 60 50.5s40.333 28.167 58 42.5s32.334 30.166 44.001 47.499s17.5 39.333 17.5 66c0 14.667 -2.5 26.667 -7.5 36s-11.833 16.333 -20.5 21
s-18.5 7.83398 -29.5 9.50098s-22.5 2.5 -34.5 2.5c0 12 0.666992 26.5 2 43.5s2.33301 31.5 3 43.5h7c21.333 0 41.5 -3.66699 60.5 -11s35.5 -17.666 49.5 -30.999s25.167 -30 33.5 -50s12.5 -42.333 12.5 -67c0 -32 -4.33301 -58.833 -13 -80.5
s-19.834 -40.334 -33.501 -56.001s-29 -29.334 -46 -41.001s-33.667 -23.5 -50 -35.5s-31.333 -25.667 -45 -41s-24.167 -34 -31.5 -56h214z" />
    <glyph glyph-name="three" unicode="3" 
d="M245 522c26 0 51.0059 -3.16602 75.0059 -9.49902s45.167 -16.5 63.5 -30.5s33 -32.167 44 -54.5s16.5 -49.166 16.5 -80.499c0 -32 -9 -60.333 -27 -85s-39.667 -42.667 -65 -54c39.333 -10 67.166 -30 83.499 -60s24.5 -67 24.5 -111
c0 -34.667 -5.83301 -64.834 -17.5 -90.501s-27.167 -47.167 -46.5 -64.5s-41.833 -30.333 -67.5 -39s-52.834 -13 -81.501 -13c-63.333 0 -113.666 18.5 -150.999 55.5s-56 91.5 -56 163.5h78c1.33301 -46 12.166 -81.833 32.499 -107.5s52.166 -38.5 95.499 -38.5
c18 0 35.167 2.66699 51.5 8s30.666 13.5 42.999 24.5s22.166 24.667 29.499 41s11 35.166 11 56.499c0 16.667 -3 32.167 -9 46.5s-14 27 -24 38s-21.5 20.167 -34.5 27.5s-26.833 12.333 -41.5 15l1 88c23.333 6 43.666 18.167 60.999 36.5s26 40.833 26 67.5
c0 24 -6 42.167 -18 54.5s-25.333 21 -40 26s-28 7.83301 -40 8.5l-18 1z" />
    <glyph glyph-name="four" unicode="4" 
d="M289 314l-127 -239h177v344h81v-579h-80v163h-261v77l142 264z" />
    <glyph glyph-name="five" unicode="5" 
d="M449 57c0 -35.333 -6.00195 -66.832 -18.002 -94.499s-28.167 -51.167 -48.5 -70.5s-44 -34.333 -71 -45s-55.833 -16.334 -86.5 -17.001l7 79c44.667 0 77.334 14.5 98.001 43.5s31 66.5 31 112.5c0 46.667 -12 83 -36 109s-57 39 -99 39
c-16 0 -30.167 -3.5 -42.5 -10.5s-23.166 -13.833 -32.499 -20.5l-111 3l53 334h217v-83h-153l-36 -187c16 18.667 35.5 30.667 58.5 36s45.833 8 68.5 8c31.333 0 59.5 -6 84.5 -18s46.167 -28.5 63.5 -49.5s30.5 -45.833 39.5 -74.5s13.5 -60 13.5 -94z" />
    <glyph glyph-name="six" unicode="6" 
d="M265 641c-18 -0.666992 -34 -5.5 -48 -14.5s-26 -20.5 -36 -34.5s-18.333 -29.167 -25 -45.5s-12 -32.166 -16 -47.499s-6.83301 -28.833 -8.5 -40.5s-2.5 -19.5 -2.5 -23.5v-2c0 -0.666992 0.333008 -1 1 -1c4.66699 0.666992 11.167 2.5 19.5 5.5
s18.333 6.16699 30 9.5s25.5 6.5 41.5 9.5s34 4.5 54 4.5c28.667 0 55 -5.83301 79 -17.5s44.5 -27.5 61.5 -47.5s30.167 -43.667 39.5 -71s14 -56.333 14 -87c0 -34.667 -5.5 -66.167 -16.5 -94.5s-26 -52.5 -45 -72.5s-41.833 -35.5 -68.5 -46.5
s-55.334 -16.5 -86.001 -16.5c-47.333 0 -85.666 9.66699 -114.999 29s-52 44.5 -68 75.5s-26.833 66.167 -32.5 105.5s-8.5 79 -8.5 119c0 41.333 3.5 84 10.5 128s19.5 84.167 37.5 120.5s42.167 66.166 72.5 89.499s68.833 35 115.5 35v-69zM119 232
c0 -22 4.00098 -42.167 12.001 -60.5s18.667 -33.833 32 -46.5s28.666 -22.5 45.999 -29.5s35.333 -10.5 54 -10.5c18 0 34.667 3.66699 50 11s28.833 17.5 40.5 30.5s20.834 28.333 27.501 46s10 37.167 10 58.5s-2.83301 41.5 -8.5 60.5s-14 35.5 -25 49.5
s-24.833 25 -41.5 33s-36.334 12 -59.001 12c-22 0 -41.5 -3.83301 -58.5 -11.5s-31.5 -18.5 -43.5 -32.5s-21 -30.333 -27 -49s-9 -39 -9 -61z" />
    <glyph glyph-name="seven" unicode="7" horiz-adv-x="471" 
d="M103 -160c6 85.333 19.833 167.832 41.5 247.499s53.5 153.5 95.5 221.5c4 6 8.66699 13.5 14 22.5s10.5 18 15.5 27s9.16699 17.167 12.5 24.5s5 12.666 5 15.999c0 8 -3 14.333 -9 19s-13.833 8.33398 -23.5 11.001s-20.334 4.5 -32.001 5.5s-23.5 1.5 -35.5 1.5
c-14 0 -27 -0.333008 -39 -1s-20.667 -1 -26 -1v85h183c10 0 20.5 -1.33301 31.5 -4s20.833 -7 29.5 -13s15.834 -13.667 21.501 -23s8.5 -20.666 8.5 -33.999c0 -8.66699 -1.5 -17 -4.5 -25s-6.83301 -15.333 -11.5 -22c-54 -83.333 -99 -171.333 -135 -264
s-56.667 -190.667 -62 -294h-80z" />
    <glyph glyph-name="eight" unicode="8" 
d="M255 92c18 0 34.666 3 49.999 9s28.833 14.333 40.5 25s20.834 23.5 27.501 38.5s10 31.833 10 50.5c0 18 -3.66699 34.5 -11 49.5s-17 27.833 -29 38.5s-25.667 19 -41 25s-31.333 9 -48 9c-18.667 0 -36 -2.66699 -52 -8s-30 -13.333 -42 -24s-21.5 -23.5 -28.5 -38.5
s-10.5 -32.5 -10.5 -52.5c0 -40 12.667 -70.333 38 -91s57.333 -31 96 -31zM244.999 657c18 0 35.668 -2.6582 53.001 -7.99121s32.5 -13.5 45.5 -24.5s23.5 -24.833 31.5 -41.5s12 -36.334 12 -59.001c0 -29.333 -6.5 -55 -19.5 -77s-32.167 -37.333 -57.5 -46
c46 -4.66699 82.667 -23.334 110 -56.001s41 -75.334 41 -128.001c0 -34 -5.33301 -64 -16 -90s-25.167 -47.833 -43.5 -65.5s-40.166 -31 -65.499 -40s-52.333 -13.5 -81 -13.5c-30 0 -58 4.16699 -84 12.5s-48.333 21.166 -67 38.499s-33.334 39.166 -44.001 65.499
s-16 57.166 -16 92.499c0 23.333 3.33301 45.5 10 66.5s16 39.667 28 56s26.5 30.166 43.5 41.499s36.167 18.666 57.5 21.999c-50 20.667 -75 61 -75 121c0 20 4 38.333 12 55s18.333 30.667 31 42s27.167 20.166 43.5 26.499s33.166 9.5 50.499 9.5zM181 520.009
c0 -19.333 6.83301 -35.667 20.5 -49s29.167 -20 46.5 -20s32.833 6.66699 46.5 20s20.5 29.666 20.5 48.999c0 10 -2 19.167 -6 27.5s-9.16699 15.5 -15.5 21.5s-13.5 10.833 -21.5 14.5s-16 5.5 -24 5.5c-17.333 0 -32.833 -6.66699 -46.5 -20
s-20.5 -29.666 -20.5 -48.999z" />
    <glyph glyph-name="nine" unicode="9" horiz-adv-x="532" 
d="M448 202c0 -50 -3.00293 -97.4971 -9.00293 -142.497s-17 -84.5 -33 -118.5s-38.5 -61 -67.5 -81s-66.5 -30 -112.5 -30l1 73c30.667 0.666992 55 10.167 73 28.5s31.5 40.166 40.5 65.499s15 51.666 18 78.999s4.83301 50.333 5.5 69l-1 24
c-14.667 -28.667 -35.167 -51.167 -61.5 -67.5s-54.166 -24.5 -83.499 -24.5c-31.333 0 -59.166 5.66699 -83.499 17s-44.833 27.166 -61.5 47.499s-29.334 44.666 -38.001 72.999s-13 59.166 -13 92.499c0 32.667 5 62.834 15 90.501s24 51.334 42 71.001s39.5 35 64.5 46
s52.5 16.5 82.5 16.5c44.667 0 81.334 -9.5 110.001 -28.5s51.334 -44 68.001 -75s28.167 -66.167 34.5 -105.5s9.5 -79.333 9.5 -120zM220.997 448.003c-13.333 -0.666992 -26.5029 -4.83301 -39.5029 -12.5s-24.5 -17.667 -34.5 -30s-18.167 -26.833 -24.5 -43.5
s-9.5 -34.334 -9.5 -53.001c0 -20 2.33301 -38.667 7 -56s11.5 -32.666 20.5 -45.999s20.333 -23.833 34 -31.5s29.834 -11.5 48.501 -11.5c38.667 0 69.334 13.167 92.001 39.5s34 59.5 34 99.5c0 20 -2.66699 38.833 -8 56.5s-13.166 33 -23.499 46s-23 23.333 -38 31
s-32.167 11.5 -51.5 11.5h-7z" />
    <glyph glyph-name="colon" unicode=":" horiz-adv-x="301" 
d="M78 53c0 14.667 4.66699 27.167 14 37.5s20.666 15.5 33.999 15.5s24.666 -5.16699 33.999 -15.5s14 -22.833 14 -37.5s-4.66699 -27.167 -14 -37.5s-20.666 -15.5 -33.999 -15.5s-24.666 5.16699 -33.999 15.5s-14 22.833 -14 37.5zM78 463
c0 14.667 4.66699 27.167 14 37.5s20.666 15.5 33.999 15.5s24.666 -5.16699 33.999 -15.5s14 -22.833 14 -37.5s-4.66699 -27.167 -14 -37.5s-20.666 -15.5 -33.999 -15.5s-24.666 5.16699 -33.999 15.5s-14 22.833 -14 37.5z" />
    <glyph glyph-name="semicolon" unicode=";" horiz-adv-x="301" 
d="M172 106l-0.000976562 -98.002c0 -17.333 -1.66699 -34.666 -5 -51.999s-8.66602 -33.166 -15.999 -47.499s-17 -26.5 -29 -36.5s-26.667 -16.333 -44 -19v253h94zM77.999 409.998v106h94v-106h-94z" />
    <glyph glyph-name="less" unicode="&#x3c;" horiz-adv-x="577" 
d="M482 11l-439 207v70l439 207v-80l-351 -162l351 -162v-80z" />
    <glyph glyph-name="equal" unicode="=" horiz-adv-x="577" 
d="M490 317h-455v73h455v-73zM490 115h-455v73h455v-73z" />
    <glyph glyph-name="greater" unicode="&#x3e;" horiz-adv-x="577" 
d="M43 495l439 -207v-70l-439 -207v80l351 162l-351 162v80z" />
    <glyph glyph-name="question" unicode="?" 
d="M247 713c27.333 0 52.3301 -4.33594 74.9971 -13.0029s42.334 -21.167 59.001 -37.5s29.5 -36.666 38.5 -60.999s13.5 -52.166 13.5 -83.499c0 -29.333 -3.66699 -53.5 -11 -72.5s-16.666 -35.667 -27.999 -50s-23.5 -27.666 -36.5 -39.999s-25.167 -26.5 -36.5 -42.5
s-20.666 -35.333 -27.999 -58s-11 -51 -11 -85h-75v46c0 24.667 3.66699 46.167 11 64.5s16.5 35 27.5 50s22.833 29 35.5 42s24.5 26.333 35.5 40s20.167 28.5 27.5 44.5s11 34.333 11 55c0 38 -9 68.833 -27 92.5s-45 35.5 -81 35.5v73zM291.997 107.997v-108h-98v108h98z
" />
    <glyph glyph-name="at" unicode="@" horiz-adv-x="964" 
d="M616 220c15.333 0 28.166 8.33008 38.499 24.9971s18.833 36.334 25.5 59.001s11.334 45.167 14.001 67.5s4 39.5 4 51.5c0 35.333 -6.16699 67.833 -18.5 97.5s-29 55.334 -50 77.001s-45.5 38.5 -73.5 50.5s-57.333 18 -88 18c-38 0 -73 -8.33301 -105 -25
s-59.833 -39 -83.5 -67s-42 -60.5 -55 -97.5s-19.5 -76.167 -19.5 -117.5c0 -42 7 -82 21 -120s33.333 -71.333 58 -100s53.667 -51.5 87 -68.5s69.333 -25.5 108 -25.5c18 0 36 2 54 6l7 -53c-11.333 -2.66699 -22.666 -4.66699 -33.999 -6s-22.666 -2 -33.999 -2
c-45.333 0 -87.833 9.66699 -127.5 29s-74.167 45.833 -103.5 79.5s-52.5 72.834 -69.5 117.501s-25.5 92 -25.5 142s8.66699 97 26 141s40.666 82.333 69.999 115s63.833 58.334 103.5 77.001s82.167 28 127.5 28c39.333 0 76.333 -7.16699 111 -21.5
s64.834 -34.5 90.501 -60.5s46 -57.5 61 -94.5s22.5 -77.833 22.5 -122.5c0 -23.333 -2.66699 -50.333 -8 -81s-14 -59.667 -26 -87s-27.5 -50.333 -46.5 -69s-41.833 -28 -68.5 -28c-15.333 0 -30.333 5 -45 15s-24.334 23.667 -29.001 41h-2
c-12.667 -25.333 -28.834 -47 -48.501 -65s-43.5 -27 -71.5 -27c-23.333 0 -43.166 5.66699 -59.499 17s-29.833 25.833 -40.5 43.5s-18.5 37.667 -23.5 60s-7.5 44.5 -7.5 66.5c0 28 3.83301 57.333 11.5 88s19 58.667 34 84s33.833 46.166 56.5 62.499
s48.667 24.5 78 24.5c18.667 0 35.667 -5.5 51 -16.5s27.666 -25.167 36.999 -42.5l58 13c-4 -41.333 -8.5 -82 -13.5 -122s-7.5 -80.333 -7.5 -121c0 -13.333 1.5 -26 4.5 -38s11.167 -18 24.5 -18zM427 188.997c20 0 37.1699 6.99902 51.5029 20.999s26 31.167 35 51.5
s15.667 41.833 20 64.5s6.5 43 6.5 61c0 12.667 -1.5 25.5 -4.5 38.5s-7.5 24.833 -13.5 35.5s-13.833 19.5 -23.5 26.5s-21.167 10.5 -34.5 10.5c-20 0 -37.333 -6.5 -52 -19.5s-26.834 -29.167 -36.501 -48.5s-16.834 -40.166 -21.501 -62.499s-7 -42.5 -7 -60.5
c0 -14 1.33301 -28 4 -42s7.16699 -26.667 13.5 -38s14.666 -20.5 24.999 -27.5s22.833 -10.5 37.5 -10.5z" />
    <glyph glyph-name="A" unicode="A" horiz-adv-x="623" 
d="M322 714l244 -714h-68l-52 149h-321l-23 -77h-72l220 642h72zM143 201h288l-144 426h-2z" />
    <glyph glyph-name="B" unicode="B" horiz-adv-x="667" 
d="M428 379c20 -2.66699 38.668 -9.00098 56.001 -19.001s32.333 -22.833 45 -38.5s22.667 -33.5 30 -53.5s11 -41 11 -63c0 -31.333 -5.16699 -59.5 -15.5 -84.5s-24.333 -46.5 -42 -64.5s-38.5 -31.833 -62.5 -41.5s-49.333 -14.5 -76 -14.5h-150v62h136
c16.667 0 33.167 2.16699 49.5 6.5s31 12 44 23s23.5 26 31.5 45s12 42.833 12 71.5c0 22.667 -4.5 41.834 -13.5 57.501s-20.833 28.334 -35.5 38.001s-31 16.5 -49 20.5s-36 6 -54 6v78c34 11.333 58.333 27.333 73 48s22 43 22 67c0 16 -2.33301 31.5 -7 46.5
s-13.334 28.167 -26.001 39.5s-30 20.5 -52 27.5s-50 10.5 -84 10.5h-138v-647h-69v710l188 1c49.333 0.666992 90.5 -2.83301 123.5 -10.5s59.5 -19.334 79.5 -35.001s34 -35 42 -58s11.667 -49.5 11 -79.5c0 -11.333 -1.16699 -23 -3.5 -35s-6.5 -24.5 -12.5 -37.5
s-14.167 -26 -24.5 -39s-23.5 -25.5 -39.5 -37.5z" />
    <glyph glyph-name="C" unicode="C" horiz-adv-x="475" 
d="M390 3c-26 -7.33301 -54.667 -10.9951 -86 -10.9951c-48 0 -90.667 9.5 -128 28.5s-68.833 45 -94.5 78s-45.167 71.667 -58.5 116s-20 91.5 -20 141.5c0 50.667 6.66699 98.167 20 142.5s32.833 83 58.5 116s57.167 59.167 94.5 78.5s80 29 128 29
c31.333 0 60 -3.66699 86 -11l-25 -64c-9.33301 2.66699 -19 4.66699 -29 6s-21 2 -33 2c-36 0 -67.833 -8.33301 -95.5 -25s-50.834 -38.834 -69.501 -66.501s-32.667 -59.334 -42 -95.001s-14 -72.5 -14 -110.5c0 -38.667 4.66699 -75.834 14 -111.501
s23.333 -67.334 42 -95.001s41.834 -49.834 69.501 -66.501s59.5 -25 95.5 -25c12.667 0 24 0.666992 34 2s19.667 3.33301 29 6z" />
    <glyph glyph-name="D" unicode="D" horiz-adv-x="685" 
d="M220 1l-0.000976562 63.998h83c36.667 0 67.334 5.33301 92.001 16s45 24.667 61 42s28 36.833 36 58.5s13.667 43.334 17 65.001s5.16602 42.667 5.49902 63s0.833008 37.5 1.5 51.5c1.33301 42.667 -2.66699 81.667 -12 117s-23.666 65.833 -42.999 91.5
s-44 45.5 -74 59.5s-65 21 -105 21l-147 1v-651h-73v215v499h202c50 0 95.5 -7.16699 136.5 -21.5s76 -35.666 105 -63.999s51.5 -63.833 67.5 -106.5s24 -92 24 -148c0 -50 -3.66699 -97.5 -11 -142.5s-21.166 -84.5 -41.499 -118.5s-48.333 -61.167 -84 -81.5
s-81.834 -30.5 -138.501 -30.5h-102z" />
    <glyph glyph-name="E" unicode="E" horiz-adv-x="446" 
d="M47 714h273v-61h-205v-251h205v-67h-205v-272h205v-63h-273v714z" />
    <glyph glyph-name="F" unicode="F" horiz-adv-x="481" 
d="M124 715h268v-66h-198v-260h191v-64h-191v-325h-70v715z" />
    <glyph glyph-name="G" unicode="G" horiz-adv-x="734" 
d="M640 369l4 1c2.66699 -56.667 -3.33301 -108 -18 -154s-35.834 -85.167 -63.501 -117.5s-60.667 -57.333 -99 -75s-79.833 -26.5 -124.5 -26.5c-55.333 0 -102.5 9.5 -141.5 28.5s-70.833 44.5 -95.5 76.5s-42.667 69 -54 111s-17 86 -17 132c0 50 6.5 97.5 19.5 142.5
s32.333 84.333 58 118s57.5 60.5 95.5 80.5s82.333 30 133 30c7.33301 0 14.833 -0.166992 22.5 -0.5s15.167 -0.833008 22.5 -1.5v-61c-7.33301 1.33301 -14.833 2 -22.5 2h-22.5c-38.667 0 -72.667 -9.16699 -102 -27.5s-54 -42 -74 -71s-35.167 -61.667 -45.5 -98
s-15.5 -72.5 -15.5 -108.5c0 -42 5 -80.5 15 -115.5s25 -65.333 45 -91s44.833 -45.667 74.5 -60s63.834 -21.5 102.501 -21.5c36 0 67.5 5.5 94.5 16.5s50.167 26.833 69.5 47.5s34.833 45 46.5 73s20.167 59 25.5 93h-128v77h195z" />
    <glyph glyph-name="H" unicode="H" horiz-adv-x="701" 
d="M159 72h-68v642h68v-321h360v321h63v-714h-63v327h-360v-255z" />
    <glyph glyph-name="I" unicode="I" horiz-adv-x="361" 
d="M197 66v-66h-67v684h67v-618v0z" />
    <glyph glyph-name="J" unicode="J" horiz-adv-x="383" 
d="M234 178c0 -65.333 -15.833 -115.001 -47.5 -149.001s-75.834 -51 -132.501 -51l2 66c18.667 0 34.834 4 48.501 12s25 18.833 34 32.5s15.5 29.334 19.5 47.001s6 36.5 6 56.5v522h70v-536z" />
    <glyph glyph-name="K" unicode="K" horiz-adv-x="651" 
d="M86 714h70v-329l298 330h82l-215 -243l282 -472h-83l-247 421l-117 -125v-224h-70v642z" />
    <glyph glyph-name="L" unicode="L" horiz-adv-x="441" 
d="M324 66v-66h-238v714h67v-648h171z" />
    <glyph glyph-name="M" unicode="M" horiz-adv-x="892" 
d="M60 716h92l249 -626l253 626h90v-716h-63v612h-2l-243 -612h-68l-242 611h-2v-539h-64v644z" />
    <glyph glyph-name="N" unicode="N" horiz-adv-x="726" 
d="M77 717h64l376 -598h2v598h74v-717h-66l-376 598v-526h-74v645z" />
    <glyph glyph-name="O" unicode="O" horiz-adv-x="703" 
d="M38 357c0 50.667 6.66699 98.167 20 142.5s32.833 83 58.5 116s57.167 59.167 94.5 78.5s80 29 128 29c47.333 0 89.5 -9.66699 126.5 -29s68.333 -45.5 94 -78.5s45.334 -71.667 59.001 -116s20.5 -91.833 20.5 -142.5c0 -50 -6.83301 -97.167 -20.5 -141.5
s-33.334 -83 -59.001 -116s-57 -59 -94 -78s-79.167 -28.5 -126.5 -28.5c-48 0 -90.667 9.5 -128 28.5s-68.833 45 -94.5 78s-45.167 71.667 -58.5 116s-20 91.5 -20 141.5zM109 359c0 -39.333 4.83301 -77.5 14.5 -114.5s24 -69.667 43 -98s42.833 -51 71.5 -68
s62 -25.5 100 -25.5c39.333 0 73.5 8.5 102.5 25.5s53 39.667 72 68s33.167 61 42.5 98s14 75.167 14 114.5c0 38.667 -4.66699 76.334 -14 113.001s-23.5 69.334 -42.5 98.001s-43 51.5 -72 68.5s-63.167 25.5 -102.5 25.5c-38 0 -71.333 -8.5 -100 -25.5
s-52.5 -39.833 -71.5 -68.5s-33.333 -61.334 -43 -98.001s-14.5 -74.334 -14.5 -113.001z" />
    <glyph glyph-name="P" unicode="P" horiz-adv-x="540" 
d="M222 380c25.333 0 48.5 1.5 69.5 4.5s39 9.33301 54 19s26.667 23.667 35 42s12.5 42.833 12.5 73.5c0 24.667 -5 45.667 -15 63s-23.5 31.166 -40.5 41.499s-36.667 17.833 -59 22.5s-45.833 7 -70.5 7h-92v-653h-70v714h161c82 0 145.167 -15.833 189.5 -47.5
s66.5 -81.5 66.5 -149.5c0 -63.333 -19.5 -113.166 -58.5 -149.499s-99.833 -53.5 -182.5 -51.5v64z" />
    <glyph glyph-name="Q" unicode="Q" horiz-adv-x="735" 
d="M639 -32l-50 -47.999l-93 106c-23.333 -15.333 -48 -26.333 -74 -33s-52.667 -10 -80 -10c-48.667 0 -92.167 9.83301 -130.5 29.5s-70.666 46.5 -96.999 80.5s-46.333 73.667 -60 119s-20.5 93.666 -20.5 144.999s6.83301 99.666 20.5 144.999s33.667 85 60 119
s58.666 60.833 96.999 80.5s81.833 29.5 130.5 29.5s92 -9.83301 130 -29.5s70 -46.5 96 -80.5s45.667 -73.667 59 -119s20 -93.666 20 -144.999c0 -24.667 -1.66699 -50 -5 -76s-8.83301 -51.5 -16.5 -76.5s-17.667 -49 -30 -72s-27.833 -43.833 -46.5 -62.5zM339 45.001
c43.333 0 80.001 8 110.001 24s54.333 38 73 66s32.167 61 40.5 99s12.166 79 11.499 123c-0.666992 38.667 -5.83398 76.667 -15.501 114s-24.167 70.666 -43.5 99.999s-43.5 52.833 -72.5 70.5s-62.833 26.5 -101.5 26.5s-72.667 -8.83301 -102 -26.5
s-53.833 -41.167 -73.5 -70.5s-34.5 -62.666 -44.5 -99.999s-15 -75.333 -15 -114c0 -39.333 4.83301 -77.833 14.5 -115.5s24.334 -71 44.001 -100s44 -52.333 73 -70s62.833 -26.5 101.5 -26.5z" />
    <glyph glyph-name="R" unicode="R" horiz-adv-x="659" 
d="M287 380c20 0 39.8311 2.00195 59.498 6.00195s37.334 11 53.001 21s28.334 23.5 38.001 40.5s14.5 38.5 14.5 64.5c0 13.333 -1.83301 28.166 -5.5 44.499s-10.5 31.666 -20.5 45.999s-24 26.333 -42 36s-41.667 14.5 -71 14.5h-185v-273h159zM58.998 714.002h242.999
c44.667 0 81.334 -5 110.001 -15s51.167 -23.667 67.5 -41s27.5 -38 33.5 -62s9 -50.333 9 -79c0 -43.333 -9.5 -79.666 -28.5 -108.999s-47.5 -50 -85.5 -62v-2c18 -4 32.833 -11.667 44.5 -23s22 -29.666 31 -54.999s17.333 -59.333 25 -102
s16.834 -97.334 27.501 -164.001h-72c-7.33301 61.333 -14.333 112.166 -21 152.499s-14.334 72.5 -23.001 96.5s-19.167 40.833 -31.5 50.5s-28.5 14.5 -48.5 14.5h-212v-242h-69v642z" />
    <glyph glyph-name="S" unicode="S" horiz-adv-x="631" 
d="M418 614c-30.667 28.667 -68.999 43.001 -114.999 43.001c-20.667 0 -40 -2.33301 -58 -7s-33.833 -12.167 -47.5 -22.5s-24.5 -23.666 -32.5 -39.999s-12 -35.833 -12 -58.5c0 -22 5.83301 -40 17.5 -54s27 -25.833 46 -35.5s40.833 -17.834 65.5 -24.501
s49.667 -13.667 75 -21s50.333 -15.666 75 -24.999s46.5 -21.333 65.5 -36s34.333 -32.834 46 -54.501s17.5 -48.5 17.5 -80.5c0 -34.667 -6.66699 -64.834 -20 -90.501s-31.166 -47 -53.499 -64s-48.166 -29.667 -77.499 -38s-59.666 -12.5 -90.999 -12.5
c-26.667 0 -52.334 3.16699 -77.001 9.5s-47.667 15.833 -69 28.5s-40.166 28.5 -56.499 47.5s-29.5 41.5 -39.5 67.5c9.33301 7.33301 19 14.5 29 21.5s19.667 14.5 29 22.5c6 -22 15 -41.167 27 -57.5s26.333 -30 43 -41s35 -19.167 55 -24.5s40.667 -8 62 -8
c22 0 43.167 2.33301 63.5 7s38.166 12.5 53.499 23.5s27.666 25 36.999 42s14 38.167 14 63.5c0 24 -5.83301 43.833 -17.5 59.5s-27.167 28.834 -46.5 39.501s-41.333 19.667 -66 27s-49.667 14.5 -75 21.5s-50.333 14.833 -75 23.5s-46.667 19.5 -66 32.5
s-34.833 29.5 -46.5 49.5s-17.5 44.667 -17.5 74c0 33.333 6 62.5 18 87.5s28.167 46 48.5 63s44.166 29.667 71.499 38s56.666 12.5 87.999 12.5c25.333 0 49.5 -2.83301 72.5 -8.5s44.167 -14.834 63.5 -27.501z" />
    <glyph glyph-name="T" unicode="T" horiz-adv-x="471" 
d="M176 653h-126v61h318v-61h-128v-653h-64v653z" />
    <glyph glyph-name="U" unicode="U" horiz-adv-x="701" 
d="M583 259c0 -45.333 -5.83203 -84.834 -17.499 -118.501s-28.5 -61.5 -50.5 -83.5s-48.667 -38.333 -80 -49s-66.333 -16 -105 -16c-38 0 -73 5 -105 15s-59.833 25.833 -83.5 47.5s-42 49.334 -55 83.001s-19.5 74.167 -19.5 121.5v378h70v-378
c0 -32 4.83301 -60.667 14.5 -86s23 -46.833 40 -64.5s37.333 -31.167 61 -40.5s49.5 -14 77.5 -14s53.333 5 76 15s41.667 24 57 42s27.166 39.5 35.499 64.5s12.5 52.833 12.5 83.5v455h72v-455z" />
    <glyph glyph-name="V" unicode="V" horiz-adv-x="633" 
d="M319 0h-84l-182 637h66l156 -542h2l186 619h71z" />
    <glyph glyph-name="W" unicode="W" horiz-adv-x="913" 
d="M643 0l-64.999 0.000976562l-153 623h-2l-157 -623h-73c-28.667 110 -55.167 216.5 -79.5 319.5s-48.166 207.167 -71.499 312.5h64l119 -525h2c19.333 76.667 36.166 143.167 50.499 199.5s26.5 104.833 36.5 145.5s18.167 74.667 24.5 102s11.833 50.666 16.5 69.999
s8.66699 35.833 12 49.5s6.66602 27.167 9.99902 40.5h87l145 -582h2l140 582h63z" />
    <glyph glyph-name="X" unicode="X" horiz-adv-x="685" 
d="M248 364l-173 273h75l134 -209l179 288h82l-222 -351l231 -365h-79l-191 300l-188 -300h-79z" />
    <glyph glyph-name="Y" unicode="Y" horiz-adv-x="616" 
d="M177 0h-72l149 297l-185 340h75l146 -280l184 357h72z" />
    <glyph glyph-name="Z" unicode="Z" horiz-adv-x="601" 
d="M20 80l411 572h-281v62h345v-80l-403 -573h393v-61h-465v80z" />
    <glyph glyph-name="bracketleft" unicode="[" horiz-adv-x="301" 
d="M172 -190l-28 -0.000976562c-26 0 -47 7.66699 -63 23s-24 38 -24 68v724c0 30 8 52.667 24 68s37 23 63 23h28v-68c-30 -5.33301 -45 -24.333 -45 -57v-655c0 -17.333 3.5 -30.666 10.5 -39.999s18.5 -15.333 34.5 -18v-68z" />
    <glyph glyph-name="backslash" unicode="\" horiz-adv-x="301" 
d="M-15 737h59l221 -756h-60z" />
    <glyph glyph-name="bracketright" unicode="]" horiz-adv-x="301" 
d="M77 717l28 0.000976562c26 0 47.167 -7.66699 63.5 -23s24.5 -38 24.5 -68v-724c0 -30 -8.16699 -52.667 -24.5 -68s-37.5 -23 -63.5 -23h-28v68c16 2.66699 27.5 8.66699 34.5 18s10.5 22.666 10.5 39.999v655c0 32.667 -15 51.667 -45 57v68z" />
    <glyph glyph-name="asciicircum" unicode="^" horiz-adv-x="473" 
d="M179 687h63l193 -423h-85l-139 308l-138 -308h-86z" />
    <glyph glyph-name="underscore" unicode="_" 
d="M0 -125v50h500v-50h-500z" />
    <glyph glyph-name="grave" unicode="`" horiz-adv-x="351" 
d="M13 734h97l80 -141h-60z" />
    <glyph glyph-name="a" unicode="a" horiz-adv-x="520" 
d="M335 274c-10 -9.33301 -22.666 -17.166 -37.999 -23.499s-32 -12 -50 -17s-36.167 -10.167 -54.5 -15.5s-34.833 -11.333 -49.5 -18s-26.834 -14.667 -36.501 -24s-14.5 -21 -14.5 -35c-0.666992 -29.333 8 -51 26 -65s40.667 -21 68 -21c17.333 0 34.833 2.66699 52.5 8
s33.667 13.333 48 24s26 23.667 35 39s13.5 32.666 13.5 51.999v96zM366.001 64c-12.667 -16.667 -26.502 -30 -41.502 -40s-30.833 -17.667 -47.5 -23s-34.334 -8.83301 -53.001 -10.5s-37.667 -2.5 -57 -2.5c-45.333 0 -82 12 -110 36s-42 59.667 -42 107
c0 35.333 7.83301 63.333 23.5 84s35.334 37 59.001 49s49.334 21 77.001 27s53.5 11.833 77.5 17.5s43.833 12.834 59.5 21.501s23.834 21.667 24.501 39c0.666992 34 -8.83301 58 -28.5 72s-45.5 21 -77.5 21l5 67c24 0 46.167 -2.33301 66.5 -7s38 -12.334 53 -23.001
s26.833 -25 35.5 -43s13 -40.333 13 -67v-324z" />
    <glyph glyph-name="b" unicode="b" horiz-adv-x="585" 
d="M428 263c0 25.333 -3.00195 50.0029 -9.00195 74.0029s-15.167 45.167 -27.5 63.5s-28 33.166 -47 44.499s-41.167 17 -66.5 17c-26 0 -48.333 -5.66699 -67 -17s-34 -26.5 -46 -45.5s-20.833 -40.667 -26.5 -65s-8.5 -49.5 -8.5 -75.5
c0 -26.667 2.83301 -52.334 8.5 -77.001s14.834 -46.334 27.501 -65.001s28.5 -33.667 47.5 -45s42.167 -17 69.5 -17c26.667 0 49.334 6 68.001 18s33.667 27.667 45 47s19.5 41.5 24.5 66.5s7.5 50.5 7.5 76.5zM61.998 718.003l70.998 0.000976562v-272l8 -1
c7.33301 16 16.5 29.333 27.5 40s23.167 19.167 36.5 25.5s27.166 11 41.499 14s28.5 4.5 42.5 4.5c35.333 0 66.333 -7.33301 93 -22s49 -34.5 67 -59.5s31.5 -53.833 40.5 -86.5s13.5 -67.334 13.5 -104.001s-4.5 -71.334 -13.5 -104.001s-22.333 -61.167 -40 -85.5
s-39.667 -43.666 -66 -57.999s-57.166 -21.5 -92.499 -21.5c-14 0 -29.333 1 -46 3s-33.167 6 -49.5 12s-31.666 14.333 -45.999 25s-26.166 25 -35.499 43h-52v647z" />
    <glyph glyph-name="c" unicode="c" horiz-adv-x="407" 
d="M285 456c-7.33301 2.66699 -14.3291 4.33301 -20.9961 5s-14.334 1 -23.001 1c-28.667 0 -52.667 -5.83301 -72 -17.5s-34.833 -27.167 -46.5 -46.5s-20 -41.666 -25 -66.999s-7.5 -51.666 -7.5 -78.999c0 -24.667 2.66699 -48.834 8 -72.501s13.666 -44.667 24.999 -63
s26 -33.166 44 -44.499s39.667 -17 65 -17c9.33301 0 18.166 0.5 26.499 1.5s17.166 3.5 26.499 7.5l34 -60c-13.333 -5.33301 -27.666 -9.33301 -42.999 -12s-29.666 -4 -42.999 -4c-36 0 -67.667 6.66699 -95 20s-50 31.666 -68 54.999s-31.667 51.166 -41 83.499
s-14 67.5 -14 105.5s4.5 73.833 13.5 107.5s22.667 63 41 88s41.166 44.833 68.499 59.5s59.666 22 96.999 22c14 0 27.833 -0.833008 41.5 -2.5s27.167 -5.16699 40.5 -10.5z" />
    <glyph glyph-name="d" unicode="d" horiz-adv-x="585" 
d="M475 72h-51c-11.333 -18 -24.166 -32.5 -38.499 -43.5s-29.166 -19.5 -44.499 -25.5s-31 -10 -47 -12s-31 -3 -45 -3c-36 0 -67.333 7.33301 -94 22s-49 34.5 -67 59.5s-31.5 53.833 -40.5 86.5s-13.5 67.334 -13.5 104.001s4.5 71.167 13.5 103.5s22.333 60.833 40 85.5
s39.834 44.167 66.501 58.5s57.667 21.5 93 21.5c13.333 0 27.166 -1.66699 41.499 -5s28.166 -8.33301 41.499 -15s25.666 -15.167 36.999 -25.5s21 -22.833 29 -37.5l7 1v68.5c0 23 0.333008 46.167 1 69.5c0 22.667 0.166992 44.667 0.5 66s0.5 43.666 0.5 66.999h70
v-646zM109 254c0 -25.333 2.99902 -50.002 8.99902 -74.002s15.167 -45.333 27.5 -64s28 -33.5 47 -44.5s41.167 -16.5 66.5 -16.5c26 0 48.5 5.66699 67.5 17s34.5 26.5 46.5 45.5s20.833 40.667 26.5 65s8.5 49.5 8.5 75.5c0 26.667 -3 52.334 -9 77.001
s-15.167 46.334 -27.5 65.001s-28.166 33.667 -47.499 45s-42.333 17 -69 17c-28 0 -51.333 -6 -70 -18s-33.667 -27.667 -45 -47s-19.333 -41.5 -24 -66.5s-7 -50.5 -7 -76.5z" />
    <glyph glyph-name="e" unicode="e" horiz-adv-x="541" 
d="M289 -11l-8.99902 -1c-42 0 -78.5 6.66699 -109.5 20s-56.5 32 -76.5 56s-34.833 52.667 -44.5 86s-14.5 70 -14.5 110c0 32.667 4.5 65 13.5 97s22.667 60.667 41 86s41.166 46 68.499 62s59.333 24 96 24c40 0 73.5 -9 100.5 -27s48.667 -41 65 -69s28 -59.333 35 -94
s10.5 -68.667 10.5 -102h-351v-13c0 -56.667 15.667 -98.5 47 -125.5s74 -40.5 128 -40.5v-69zM249.001 462c-22 0 -41.1689 -4.5 -57.502 -13.5s-30.166 -21 -41.499 -36s-20 -32 -26 -51s-9.33301 -38.167 -10 -57.5h274c-3.33301 18.667 -8.16602 37.5 -14.499 56.5
s-14.833 36 -25.5 51s-24.167 27.167 -40.5 36.5s-35.833 14 -58.5 14z" />
    <glyph glyph-name="f" unicode="f" horiz-adv-x="317" 
d="M93 600c0 22.667 3.16406 41.8311 9.49707 57.498s15.333 28.5 27 38.5s25.334 17.5 41.001 22.5s32.834 7.5 51.501 7.5v-69c-25.333 -1.33301 -41.666 -9.16602 -48.999 -23.499s-11 -32.166 -11 -53.499v-14.5c0 -5.66699 0.333008 -10.834 1 -15.501
c0 -2.66699 0.166992 -5.16699 0.5 -7.5s0.5 -5.16602 0.5 -8.49902v-17h90v-69h-90v-448h-71v600z" />
    <glyph glyph-name="g" unicode="g" horiz-adv-x="642" 
d="M258 62c27.333 0 50.167 6.50098 68.5 19.501s33.166 29.667 44.499 50s19.5 42.666 24.5 66.999s7.5 47.833 7.5 70.5c0 21.333 -2.33301 43.333 -7 66s-12.5 43.5 -23.5 62.5s-25.333 34.5 -43 46.5s-39.167 18 -64.5 18c-27.333 0 -50.166 -6 -68.499 -18
s-33 -27.333 -44 -46s-19 -39.667 -24 -63s-7.5 -46.333 -7.5 -69c0 -22 2 -45 6 -69s11.167 -46 21.5 -66s24.333 -36.5 42 -49.5s40.167 -19.5 67.5 -19.5zM473.001 40.001c0 -36 -3.49609 -69.3359 -10.4961 -100.003s-18.833 -57.334 -35.5 -80.001
s-38.5 -40.5 -65.5 -53.5s-60.5 -19.833 -100.5 -20.5v67c33.333 0 59.666 7.66699 78.999 23s33.833 34.833 43.5 58.5s15.667 49.834 18 78.501s3.5 56.334 3.5 83.001c-6 -15.333 -14.5 -29.166 -25.5 -41.499s-23.167 -23 -36.5 -32s-27.833 -16 -43.5 -21
s-30.834 -7.5 -45.501 -7.5c-36 0 -67.167 7.66699 -93.5 23s-48 35.5 -65 60.5s-29.5 53 -37.5 84s-12 62.5 -12 94.5c0 33.333 4 66.333 12 99s20.667 61.834 38 87.501s39.666 46.5 66.999 62.5s60 24 98 24c36.667 0 68.667 -7.16699 96 -21.5
s51.666 -36.5 72.999 -66.5h43v-401z" />
    <glyph glyph-name="h" unicode="h" horiz-adv-x="569" 
d="M80 718l68 0.00195312v-278l8 -1c6.66699 16 15.5 29.667 26.5 41s23.167 20.666 36.5 27.999s27.166 12.666 41.499 15.999s28.5 5 42.5 5c57.333 0 98.333 -16 123 -48s37 -78.333 37 -139v-342h-71v352c0 33.333 -9 60 -27 80s-42.333 30 -73 30
c-34.667 0 -61.667 -6.66699 -81 -20s-33.666 -30.833 -42.999 -52.5s-15 -46.167 -17 -73.5s-3 -55.333 -3 -84v-28h-68v514z" />
    <glyph glyph-name="i" unicode="i" horiz-adv-x="314" 
d="M175 0h-72h72zM175 0v515l-72 -1v-512v-2h72zM103 0z" />
    <glyph glyph-name="j" unicode="j" horiz-adv-x="314" 
d="M175 -72c0 -86 -38.334 -129.333 -115.001 -130v69c10 0.666992 18 3 24 7s10.333 9.5 13 16.5s4.33398 15.167 5.00098 24.5s1 19 1 29v573h72v-589z" />
    <glyph glyph-name="k" unicode="k" horiz-adv-x="518" 
d="M65 719l71 -0.00195312v-436l222 234h95l-183 -186c34 -55.333 67.167 -110.666 99.5 -165.999s65.5 -110.666 99.5 -165.999h-90l-162 277l-81 -80v-122h-71v645z" />
    <glyph glyph-name="l" unicode="l" horiz-adv-x="282" 
d="M162 0h-73v674h73v-674z" />
    <glyph glyph-name="m" unicode="m" horiz-adv-x="843" 
d="M42 439l43.9971 -0.000976562c10.667 18 23.167 32.833 37.5 44.5s29.333 20.834 45 27.501s31.834 11.334 48.501 14.001s33 4 49 4c26.667 0 51.667 -7.33301 75 -22s40.666 -40 51.999 -76c17.333 32 39.333 56.333 66 73s54.667 25 84 25c22 0 42.333 -2.66699 61 -8
s34.834 -13.833 48.501 -25.5s24.334 -26.834 32.001 -45.501s11.5 -41.667 11.5 -69v-381h-70v341c0 36 -6.5 65.167 -19.5 87.5s-37.833 33.5 -74.5 33.5c-38.667 0 -69.667 -12.5 -93 -37.5s-35 -59.167 -35 -102.5v-322h-70v341c0 17.333 -1.5 33.333 -4.5 48
s-8 27.5 -15 38.5s-16.5 19.5 -28.5 25.5s-27.333 9 -46 9c-16 0 -31.833 -3.66699 -47.5 -11s-29.667 -17.333 -42 -30s-22.166 -27.5 -29.499 -44.5s-11 -35.167 -11 -54.5v-322h-68v439z" />
    <glyph glyph-name="n" unicode="n" 
d="M60 433h41.001c8.66699 18 20.167 33.167 34.5 45.5s29.833 22.333 46.5 30s34 13 52 16s35 4.5 51 4.5c57.333 0 98 -16 122 -48s36 -78.333 36 -139v-342h-69v352c0 33.333 -9 60 -27 80s-42.333 30 -73 30c-46.667 0 -82.334 -15.833 -107.001 -47.5
s-37 -72.5 -37 -122.5v-292h-70v433z" />
    <glyph glyph-name="o" unicode="o" horiz-adv-x="568" 
d="M34 258c0 38.667 5 74.5 15 107.5s24.5 61.667 43.5 86s42.667 43.333 71 57s60.5 20.5 96.5 20.5s68.167 -6.83301 96.5 -20.5s52 -32.667 71 -57s33.5 -53 43.5 -86s15 -68.833 15 -107.5s-5 -74.5 -15 -107.5s-24.5 -61.5 -43.5 -85.5s-42.667 -42.833 -71 -56.5
s-60.5 -20.5 -96.5 -20.5s-68.167 6.83301 -96.5 20.5s-52 32.5 -71 56.5s-33.5 52.5 -43.5 85.5s-15 68.833 -15 107.5zM109 258c0 -26 3 -51.167 9 -75.5s15.333 -46 28 -65s28.334 -34.167 47.001 -45.5s41 -17 67 -17s48.333 5.66699 67 17s34.334 26.5 47.001 45.5
s22 40.667 28 65s9 49.5 9 75.5s-3 51.167 -9 75.5s-15.333 46 -28 65s-28.334 34.333 -47.001 46s-41 17.5 -67 17.5s-48.333 -5.83301 -67 -17.5s-34.334 -27 -47.001 -46s-22 -40.667 -28 -65s-9 -49.5 -9 -75.5z" />
    <glyph glyph-name="p" unicode="p" horiz-adv-x="581" 
d="M408 263c0 25.333 -3.00195 50.0029 -9.00195 74.0029s-15.167 45.167 -27.5 63.5s-27.833 33.166 -46.5 44.499s-41 17 -67 17s-48.333 -5.66699 -67 -17s-34 -26.5 -46 -45.5s-20.833 -40.667 -26.5 -65s-8.5 -49.5 -8.5 -75.5c0 -26.667 2.83301 -52.334 8.5 -77.001
s14.834 -46.334 27.501 -65.001s28.5 -33.667 47.5 -45s42.167 -17 69.5 -17c26.667 0 49.334 6 68.001 18s33.667 27.667 45 47s19.5 41.5 24.5 66.5s7.5 50.5 7.5 76.5zM41.998 445.003l80.999 0.000976562c6.66699 16 15.5 29.333 26.5 40s23 19.167 36 25.5
s26.667 11 41 14s28.5 4.5 42.5 4.5c35.333 0 66.333 -7.33301 93 -22s49 -34.5 67 -59.5s31.5 -53.833 40.5 -86.5s13.5 -67.334 13.5 -104.001s-4.5 -71.334 -13.5 -104.001s-22.333 -61.167 -40 -85.5s-39.667 -43.666 -66 -57.999s-57.166 -21.5 -92.499 -21.5
c-28 0 -56 6.5 -84 19.5s-49.667 34.167 -65 63.5l-7 -1v-31.5c0 -12.333 -0.166992 -25 -0.5 -38s-0.5 -25.667 -0.5 -38v-31.5c-0.666992 -22 -1 -44 -1 -66v-67h-71v647z" />
    <glyph glyph-name="q" unicode="q" horiz-adv-x="595" 
d="M475 -202l-70.001 -0.000976562v273l-8 1c-7.33301 -16 -16.5 -29.333 -27.5 -40s-23.167 -19.167 -36.5 -25.5s-27.166 -11 -41.499 -14s-28.5 -4.5 -42.5 -4.5c-36 0 -67.333 7.33301 -94 22s-49 34.5 -67 59.5s-31.5 53.833 -40.5 86.5s-13.5 67.334 -13.5 104.001
s4.5 71.167 13.5 103.5s22.333 60.833 40 85.5s39.834 44.167 66.501 58.5s57.667 21.5 93 21.5c13.333 0 27.166 -1.66699 41.499 -5s28.333 -8.33301 42 -15s26.167 -15.167 37.5 -25.5s21 -22.833 29 -37.5h78v-648zM108.999 253.999
c0 -25.333 2.99902 -50.002 8.99902 -74.002s15.167 -45.333 27.5 -64s28 -33.5 47 -44.5s41.167 -16.5 66.5 -16.5c26 0 48.5 5.66699 67.5 17s34.5 26.5 46.5 45.5s20.833 40.667 26.5 65s8.5 49.5 8.5 75.5c0 26.667 -3 52.334 -9 77.001s-15.167 46.334 -27.5 65.001
s-28.166 33.667 -47.499 45s-42.333 17 -69 17c-28 0 -51.333 -6 -70 -18s-33.667 -27.667 -45 -47s-19.333 -41.5 -24 -66.5s-7 -50.5 -7 -76.5z" />
    <glyph glyph-name="r" unicode="r" horiz-adv-x="370" 
d="M82 485l10.0049 0.00195312c17.333 0 32 0.666992 44 2s22.167 3.16602 30.5 5.49902s15.666 5.16602 21.999 8.49902s12.166 6.66602 17.499 9.99902c2 0 4 1 6 3c7.33301 4 15.166 8.5 23.499 13.5s18.166 8.83301 29.499 11.5v-49
c0 -9.33301 0.166992 -18.5 0.5 -27.5s0.5 -17.167 0.5 -24.5c-7.33301 -1.33301 -14 -2.16602 -20 -2.49902s-11.667 -0.5 -17 -0.5h-6c-12 0 -22.5 -1 -31.5 -3s-16.333 -9.5 -22 -22.5s-9.83398 -33.333 -12.501 -61s-4 -67.167 -4 -118.5v-230h-71v485z" />
    <glyph glyph-name="s" unicode="s" horiz-adv-x="501" 
d="M107 124c9.33301 -26.667 25.998 -44.834 49.998 -54.501s48.667 -14.5 74 -14.5c13.333 0 27 1.16699 41 3.5s26.833 6.66602 38.5 12.999s21.167 14.833 28.5 25.5s11 24.334 11 41.001c0 20 -7.66699 35.5 -23 46.5s-34.666 20.333 -57.999 28
s-48.333 14.834 -75 21.501s-51.667 15.667 -75 27s-42.666 26.5 -57.999 45.5s-23 44.833 -23 77.5c0 24.667 5 46 15 64s23.167 33 39.5 45s35 21 56 27s42.5 9 64.5 9c18.667 0 37.167 -1.5 55.5 -4.5s36.166 -8.5 53.499 -16.5l-12 -66c-28 13.333 -58 20 -90 20
c-12 0 -24 -1 -36 -3s-23 -5.83301 -33 -11.5s-18.167 -13.167 -24.5 -22.5s-9.5 -21 -9.5 -35c0 -20 7.66699 -35.667 23 -47s34.5 -20.833 57.5 -28.5s48 -15 75 -22s52 -16.167 75 -27.5s42 -26.5 57 -45.5s22.5 -44.5 22.5 -76.5
c0 -28.667 -5.66699 -52.834 -17 -72.501s-26.333 -35.667 -45 -48s-40 -21.166 -64 -26.499s-48.667 -8 -74 -8c-36 0 -70.167 6.5 -102.5 19.5s-57.166 36.5 -74.499 70.5z" />
    <glyph glyph-name="t" unicode="t" horiz-adv-x="361" 
d="M171 558h92v-75h-92v-364c0 -12.667 1.33301 -22.5 4 -29.5s6.83398 -12 12.501 -15s12.5 -4.66699 20.5 -5s17 -0.5 27 -0.5h13c0 -7.33301 -0.166992 -13.666 -0.5 -18.999s-0.5 -11 -0.5 -17v-33h-38c-20 0 -36.833 1.5 -50.5 4.5s-24.834 8.5 -33.501 16.5
s-15 19.167 -19 33.5s-6 33.166 -6 56.499v563h71v-116z" />
    <glyph glyph-name="u" unicode="u" horiz-adv-x="550" 
d="M428 518l-0.000976562 -327c0 -67.333 -17.333 -118.333 -52 -153s-83.667 -52 -147 -52c-59.333 0 -104.166 16 -134.499 48s-46.833 84.333 -49.5 157v210h72v-226c0 -16.667 2.66699 -32.334 8 -47.001s12.833 -27.5 22.5 -38.5s21.334 -19.833 35.001 -26.5
s29.167 -10 46.5 -10c16.667 0 33 3.33301 49 10s30.167 15.5 42.5 26.5s22.166 23.833 29.499 38.5s11 30.334 11 47.001v343h67z" />
    <glyph glyph-name="v" unicode="v" horiz-adv-x="501" 
d="M182 0l-149 400h76l123 -330l133 447h82l-167 -517h-98z" />
    <glyph glyph-name="w" unicode="w" horiz-adv-x="733" 
d="M520 0h-75l-100 416l-100 -416h-76l-124 400h71l93 -312l98 429h77l97 -428l114 428h75z" />
    <glyph glyph-name="x" unicode="x" horiz-adv-x="517" 
d="M191 272c-10.667 14 -21.168 28.668 -31.501 44.001s-20.166 30.666 -29.499 45.999l-25 36h85l42 -68c19.333 30 39.333 61.167 60 93.5s40.667 63.5 60 93.5h82l-160 -238l182 -279h-90l-134 222l-133 -222h-85z" />
    <glyph glyph-name="y" unicode="y" horiz-adv-x="501" 
d="M196 -206h-60l64 201c-26 73.333 -51.667 146.833 -77 220.5s-51 147.167 -77 220.5h71l114 -358l142 439h71z" />
    <glyph glyph-name="z" unicode="z" horiz-adv-x="463" 
d="M2 59l287 391h-121v67h226v-52l-295 -398h297v-67h-394v59z" />
    <glyph glyph-name="braceleft" unicode="{" horiz-adv-x="352" 
d="M38 294c16.667 0 29.668 4.66699 39.001 14s16.5 22 21.5 38s8.16699 34.333 9.5 55s2 42.334 2 65.001c0 9.33301 -0.166992 18.833 -0.5 28.5s-0.5 19.167 -0.5 28.5c0 25.333 0.833008 50 2.5 74s5.66699 45.167 12 63.5s15.666 33.166 27.999 44.499
s29.166 17 50.499 17h61v-65h-40c-18 0 -29.5 -10.5 -34.5 -31.5s-7.5 -47.167 -7.5 -78.5c0 -13.333 0.166992 -27 0.5 -41s0.5 -28.333 0.5 -43c0 -22 -0.833008 -43.667 -2.5 -65s-5.33398 -41 -11.001 -59s-13.667 -33.5 -24 -46.5s-24.166 -22.167 -41.499 -27.5v-2
c17.333 -5.33301 31.166 -14.5 41.499 -27.5s18.333 -28.5 24 -46.5s9.33398 -37.667 11.001 -59s2.5 -43 2.5 -65c0 -15.333 -0.166992 -30 -0.5 -44s-0.5 -27.667 -0.5 -41c0 -16 0.5 -30.667 1.5 -44s3 -25 6 -35s7.16699 -17.833 12.5 -23.5s12.666 -8.5 21.999 -8.5h40
v-65h-61c-21.333 0 -38.166 5.66699 -50.499 17s-21.666 26.333 -27.999 45s-10.333 40 -12 64s-2.5 48.667 -2.5 74c0 9.33301 0.166992 18.833 0.5 28.5s0.5 19.167 0.5 28.5c0 22.667 -0.666992 44.5 -2 65.5s-4.5 39.5 -9.5 55.5s-12.167 28.667 -21.5 38
s-22.333 14 -39 14v60z" />
    <glyph glyph-name="bar" unicode="|" horiz-adv-x="285" 
d="M85 737h65v-756h-65v756z" />
    <glyph glyph-name="braceright" unicode="}" horiz-adv-x="352" 
d="M263 234c-19.333 0 -33.834 -6.16406 -43.501 -18.4971s-16.667 -28.5 -21 -48.5s-6.66602 -43 -6.99902 -69s-0.5 -52.333 -0.5 -79s-0.666992 -53 -2 -79s-5 -49 -11 -69s-15.167 -36.167 -27.5 -48.5s-29.833 -18.5 -52.5 -18.5h-60v65h39
c9.33301 0 16.666 3 21.999 9s9.5 14 12.5 24s5 22 6 36s1.5 29 1.5 45c0 12.667 -0.166992 25.5 -0.5 38.5s-0.5 26.167 -0.5 39.5c0 22 0.833008 44 2.5 66s5.16699 42.167 10.5 60.5s13.333 34.166 24 47.499s25 22.666 43 27.999v2
c-18 5.33301 -32.333 14.666 -43 27.999s-18.667 29 -24 47s-8.83301 38 -10.5 60s-2.5 44 -2.5 66c0 13.333 0.166992 26.5 0.5 39.5s0.5 25.833 0.5 38.5c0 16 -0.5 30.833 -1.5 44.5s-3 25.667 -6 36s-7.16699 18.333 -12.5 24s-12.666 8.5 -21.999 8.5h-39v65h60
c30 0 51.333 -10.5 64 -31.5s21 -47.5 25 -79.5s5.33301 -66.333 4 -103s-0.833008 -71 1.5 -103s8.33301 -58.5 18 -79.5s27.167 -31.5 52.5 -31.5v-60z" />
    <glyph glyph-name="asciitilde" unicode="~" horiz-adv-x="577" 
d="M471 270c-13.333 -22 -29.166 -41.8311 -47.499 -59.498s-40.166 -26.5 -65.499 -26.5c-18.667 0 -35.334 3.5 -50.001 10.5s-29.167 14.833 -43.5 23.5s-29.5 16.5 -45.5 23.5s-34.667 10.5 -56 10.5c-10 0 -18.833 -2.16699 -26.5 -6.5s-14.5 -9.83301 -20.5 -16.5
s-11.333 -14.334 -16 -23.001s-9 -17.334 -13 -26.001l-32 56c11.333 25.333 26.333 46 45 62s41 24 67 24c16.667 0 33.834 -3.5 51.501 -10.5s35 -14.833 52 -23.5s33.167 -16.5 48.5 -23.5s28.666 -10.5 39.999 -10.5c9.33301 0 17.833 2.33301 25.5 7
s14.667 10.5 21 17.5s12.166 14.667 17.499 23s10.333 16.5 15 24.5z" />
    <glyph glyph-name="uni00A0" unicode="&#xa0;" horiz-adv-x="250" 
 />
    <glyph glyph-name="exclamdown" unicode="&#xa1;" horiz-adv-x="284" 
d="M74 22c0 50.667 2.83301 102.5 8.5 155.5s10.167 104.833 13.5 155.5h41c3.33301 -50.667 7.83301 -102.5 13.5 -155.5s8.5 -104.833 8.5 -155.5v-220h-85v220zM166 406h-92l-7 111h99v-111z" />
    <glyph glyph-name="cent" unicode="&#xa2;" 
d="M245 454c-24 -3.33301 -43.8311 -11.3291 -59.498 -23.9961s-28.334 -28.334 -38.001 -47.001s-16.334 -39.334 -20.001 -62.001s-5.5 -45.667 -5.5 -69c0 -22 2.16699 -43.833 6.5 -65.5s11.5 -41.334 21.5 -59.001s22.833 -32.334 38.5 -44.001s34.5 -18.5 56.5 -20.5
v391zM245.002 -11.9961c-34 1.33301 -63.668 9.1709 -89.001 23.5039s-46.5 33.5 -63.5 57.5s-29.833 51.667 -38.5 83s-13 64.666 -13 99.999s4.16699 69.166 12.5 101.499s21 61 38 86s38.333 45.5 64 61.5s55.5 25.333 89.5 28v95h35v-95
c18.667 -0.666992 37 -3.33398 55 -8.00098s34.667 -12.334 50 -23.001l-39 -71c-9.33301 9.33301 -19.666 16 -30.999 20s-23 6.33301 -35 7v-391c12 1.33301 23.667 4.33301 35 9s21.666 11.667 30.999 21l40 -67c-31.333 -25.333 -66.666 -38 -105.999 -38v-104h-35v104z
" />
    <glyph glyph-name="sterling" unicode="&#xa3;" horiz-adv-x="467" 
d="M42 372l52.0049 -0.00390625c-13.333 24 -23.666 49 -30.999 75s-11 53 -11 81c0 32 5.66699 60.5 17 85.5s26.333 46.333 45 64s40.334 31 65.001 40s50.667 13.5 78 13.5l5 -75c-17.333 0 -33.666 -3.16699 -48.999 -9.5s-29 -15.166 -41 -26.499s-21.5 -25 -28.5 -41
s-10.5 -34 -10.5 -54c0 -15.333 1.33301 -29.5 4 -42.5s6.33398 -25.5 11.001 -37.5s9.66699 -24 15 -36s11 -24.333 17 -37h143v-45h-123c5.33301 -11.333 9.66602 -23.333 12.999 -36s5 -25.667 5 -39c0 -22 -2.83301 -41.667 -8.5 -59s-13.334 -33.5 -23.001 -48.5
s-20.834 -29 -33.501 -42s-26 -25.833 -40 -38.5l2 -2c15.333 7.33301 30.666 14 45.999 20s31.666 9 48.999 9c14 0 27.667 -1.66699 41 -5s26.666 -7.16602 39.999 -11.499s26.666 -8.16602 39.999 -11.499s26.666 -5 39.999 -5l-13 -75c-16 0 -31.5 2.16699 -46.5 6.5
s-30 9 -45 14s-30 9.66699 -45 14s-30.5 6.5 -46.5 6.5c-17.333 0 -33.333 -3.33301 -48 -10s-28.667 -15 -42 -25l-43 66c27.333 20 50.666 45.333 69.999 76s29 65 29 103c0 16 -2.33301 31.833 -7 47.5s-9.66699 30.834 -15 45.501h-77v45z" />
    <glyph glyph-name="currency" unicode="&#xa4;" 
d="M67 604l50.0029 -56c19.333 17.333 40.666 30.166 63.999 38.499s47.333 12.5 72 12.5c23.333 0 46.166 -4.16699 68.499 -12.5s42.5 -20.833 60.5 -37.5l51 56l45 -51l-50 -55c17.333 -19.333 29.5 -42.166 36.5 -68.499s10.5 -52.833 10.5 -79.5
c0 -27.333 -3.83301 -53.833 -11.5 -79.5s-19.5 -49.167 -35.5 -70.5l50 -56l-42 -47l-51 58c-18 -18.667 -38.5 -32.5 -61.5 -41.5s-46.833 -13.5 -71.5 -13.5c-25.333 0 -49.833 4.33301 -73.5 13s-44.834 22.334 -63.501 41.001l-49 -58l-44 48l50 58
c-15.333 20.667 -27 43.5 -35 68.5s-12 50.833 -12 77.5s3.83301 53.167 11.5 79.5s20.167 49.166 37.5 68.499l-52 58zM253.003 524c-22 0 -42.166 -4.66797 -60.499 -14.001s-34.166 -22 -47.499 -38s-23.833 -34.5 -31.5 -55.5s-11.5 -43.5 -11.5 -67.5
c0 -23.333 3.83301 -45.5 11.5 -66.5s18.167 -39.333 31.5 -55s29.166 -28.167 47.499 -37.5s38.166 -14 59.499 -14s41 4.83301 59 14.5s33.5 22.5 46.5 38.5s23.167 34.5 30.5 55.5s11 43.167 11 66.5c0 22.667 -3.66699 44.334 -11 65.001s-17.5 39 -30.5 55
s-28.5 28.833 -46.5 38.5s-37.333 14.5 -58 14.5z" />
    <glyph glyph-name="yen" unicode="&#xa5;" 
d="M209 174h-127v60h127v42l-16 33h-111v60h83l-165 345h98l157 -353l152 353h93l-160 -345h84v-60h-114l-16 -33v-42h130v-60h-130v-174h-85v174z" />
    <glyph glyph-name="brokenbar" unicode="&#xa6;" horiz-adv-x="251" 
d="M69 161h61v-250h-61v250zM130 411h-61v250h61v-250z" />
    <glyph glyph-name="section" unicode="&#xa7;" 
d="M171 420c-17.333 -6.66699 -32.667 -18.167 -46 -34.5s-20 -35.166 -20 -56.499c0 -22.667 8.66699 -43.834 26 -63.501s37.833 -38 61.5 -55s48 -32.667 73 -47s45.167 -27.5 60.5 -39.5c17.333 8 32.5 20 45.5 36s19.5 35 19.5 57c0 20 -8.83301 39.667 -26.5 59
s-38.5 38 -62.5 56s-48.333 34.5 -73 49.5s-44 27.833 -58 38.5zM341.999 546c-0.666992 30 -8.83496 55.8369 -24.502 77.5039s-37.834 32.5 -66.501 32.5c-24.667 0 -45 -7.16699 -61 -21.5s-24 -35.833 -24 -64.5c0 -22 7.33301 -41 22 -57s33 -31.333 55 -46
s46 -29.334 72 -44.001s50 -31 72 -49s40.333 -38.667 55 -62s22 -51 22 -83c0 -32.667 -8.66699 -62.334 -26 -89.001s-39.666 -46 -66.999 -58c35.333 -29.333 53 -69.333 53 -120c0 -26 -4.66699 -49 -14 -69s-21.833 -36.833 -37.5 -50.5s-33.667 -23.834 -54 -30.501
s-41.166 -10 -62.499 -10c-54 0 -96.833 16.833 -128.5 50.5s-49.167 79.834 -52.5 138.501h76c0.666992 -34 10.334 -61.5 29.001 -82.5s43.334 -31.5 74.001 -31.5c10.667 0 21.5 1.66699 32.5 5s20.833 8.5 29.5 15.5s15.667 15.667 21 26s8 22.5 8 36.5
c0 23.333 -7.83301 43.666 -23.5 60.999s-35 33.666 -58 48.999s-48.167 30.5 -75.5 45.5s-52.5 32.167 -75.5 51.5s-42.333 41.666 -58 66.999s-23.5 55.666 -23.5 90.999c0 15.333 2.5 30.5 7.5 45.5s11.833 28.667 20.5 41s19 23 31 32s24.667 15.5 38 19.5
c-12.667 14.667 -22.834 30.834 -30.501 48.501s-11.5 36.834 -11.5 57.501c0 25.333 4.66699 48 14 68s21.833 37 37.5 51s33.5 24.667 53.5 32s40.667 11 62 11c52.667 0 93 -16.167 121 -48.5s42.667 -77.833 44 -136.5h-76z" />
    <glyph glyph-name="dieresis" unicode="&#xa8;" horiz-adv-x="251" 
d="M144 696h81v-104h-81v104zM-25 696h81v-104h-81v104z" />
    <glyph glyph-name="copyright" unicode="&#xa9;" horiz-adv-x="714" 
d="M364 542c-10.667 2.66699 -22.6689 4 -36.002 4c-23.333 0 -43.333 -5 -60 -15s-30.667 -23.5 -42 -40.5s-19.666 -36.333 -24.999 -58s-8 -44.167 -8 -67.5c0 -24 2.66699 -47.5 8 -70.5s13.5 -43.167 24.5 -60.5s24.667 -31.333 41 -42s35.5 -16 57.5 -16
c12.667 0 24.334 1.33301 35.001 4l43 -45c-25.333 -10.667 -51 -16 -77 -16c-32 0 -60.167 6.33301 -84.5 19s-44.5 29.834 -60.5 51.501s-28 47.167 -36 76.5s-12 60.666 -12 93.999c0 34 4.33301 65.667 13 95s21.167 55 37.5 77s36.833 39.333 61.5 52s53 19 85 19
c12.667 0 25 -0.833008 37 -2.5s23.667 -5.16699 35 -10.5zM332.998 -19c-48 0 -93 9.66797 -135 29.001s-78.667 46 -110 80s-56 74.167 -74 120.5s-27 96.166 -27 149.499s9 103 27 149s42.667 85.833 74 119.5s68 60.167 110 79.5s87 29 135 29
c47.333 0 91.833 -9.66699 133.5 -29s78.167 -46 109.5 -80s56 -74 74 -120s27 -95.333 27 -148c0 -53.333 -9 -103 -27 -149s-42.5 -86 -73.5 -120s-67.333 -60.833 -109 -80.5s-86.5 -29.5 -134.5 -29.5zM55.998 360.001c0 -44 6.99805 -85.1709 20.998 -123.504
s33.333 -71.666 58 -99.999s53.834 -50.833 87.501 -67.5s70.5 -25 110.5 -25s76.667 8.33301 110 25s62.333 39.334 87 68.001s43.834 62.167 57.501 100.5s20.5 79.166 20.5 122.499s-7 84 -21 122s-33.167 71.333 -57.5 100s-53.333 51.167 -87 67.5
s-70.167 24.5 -109.5 24.5s-76 -8.16699 -110 -24.5s-63.333 -38.666 -88 -66.999s-44 -61.666 -58 -99.999s-21 -79.166 -21 -122.499z" />
    <glyph glyph-name="ordfeminine" unicode="&#xaa;" horiz-adv-x="391" 
d="M237 545c-10.667 -7.33301 -24.668 -12 -42.001 -14s-34.166 -4.66699 -50.499 -8s-30.333 -9.16602 -42 -17.499s-17.5 -22.833 -17.5 -43.5c0 -18.667 6.16699 -31.667 18.5 -39s25.833 -11 40.5 -11c10 0 20.5 1.5 31.5 4.5s21 7.83301 30 14.5s16.5 14.667 22.5 24
s9 20.666 9 33.999v56zM239.999 404l-1.00293 12.002c-13.333 -17.333 -29.166 -30.333 -47.499 -39s-38.166 -13 -59.499 -13c-27.333 0 -50.833 7.33301 -70.5 22s-29.5 38.667 -29.5 72c0 25.333 5 44.833 15 58.5s22.667 24 38 31s31.833 11.667 49.5 14
s34.167 5 49.5 8s28 7.33301 38 13s15 15.167 15 28.5c0 11.333 -1.83301 20.666 -5.5 27.999s-8.66699 13 -15 17s-13.666 6.83301 -21.999 8.5s-16.833 2.5 -25.5 2.5l4 49c14 0 27.833 -1.33301 41.5 -4s25.667 -7.33398 36 -14.001s18.833 -16 25.5 -28
s10 -27.333 10 -46v-110v-55.5c0 -18.333 0.333008 -36.5 1 -54.5h-47z" />
    <glyph glyph-name="guillemotleft" unicode="&#xab;" horiz-adv-x="468" 
d="M221 234v88l137 120v-86l-90 -78l90 -78v-86zM45 234v88l137 120v-86l-90 -78l90 -78v-86z" />
    <glyph glyph-name="logicalnot" unicode="&#xac;" horiz-adv-x="591" 
d="M497 109h-61v211h-393v68h454v-279z" />
    <glyph glyph-name="uni00AD" unicode="&#xad;" horiz-adv-x="401" 
d="M45 318h260v-80h-260v80z" />
    <glyph glyph-name="registered" unicode="&#xae;" horiz-adv-x="714" 
d="M333 -19c-48 0 -93 9.66797 -135 29.001s-78.667 46 -110 80s-56 74.167 -74 120.5s-27 96.166 -27 149.499s9 103 27 149s42.667 85.833 74 119.5s68 60.167 110 79.5s87 29 135 29c47.333 0 91.833 -9.66699 133.5 -29s78.167 -46 109.5 -80s56 -74 74 -120
s27 -95.333 27 -148c0 -53.333 -9 -103 -27 -149s-42.5 -86 -73.5 -120s-67.333 -60.833 -109 -80.5s-86.5 -29.5 -134.5 -29.5zM56 360.001c0 -44 6.99805 -85.1709 20.998 -123.504s33.333 -71.666 58 -99.999s53.834 -50.833 87.501 -67.5s70.5 -25 110.5 -25
s76.667 8.33301 110 25s62.333 39.334 87 68.001s43.834 62.167 57.501 100.5s20.5 79.166 20.5 122.499s-7 84 -21 122s-33.167 71.333 -57.5 100s-53.333 51.167 -87 67.5s-70.167 24.5 -109.5 24.5s-76 -8.16699 -110 -24.5s-63.333 -38.666 -88 -66.999
s-44 -61.666 -58 -99.999s-21 -79.166 -21 -122.499zM506.998 151.997l-70.001 -0.00488281c-1.33301 9.33301 -2.66602 23.333 -3.99902 42s-4 37.834 -8 57.501s-10 37.334 -18 53.001s-19 24.834 -33 27.501c0 0.666992 -1.5 1.33398 -4.5 2.00098s-6.33301 2 -10 4
s-6.83398 5 -9.50098 9s-4 10 -4 18c0 12.667 4.33301 20.834 13 24.501s18.167 7.33398 28.5 11.001s19.833 9.5 28.5 17.5s13 23 13 45s-5.5 38.5 -16.5 49.5s-26.167 16.5 -45.5 16.5h-120v-377h-63v437h186c16.667 0 32.334 -2.5 47.001 -7.5s27.5 -12.333 38.5 -22
s19.667 -21.834 26 -36.501s9.5 -32 9.5 -52c0 -23.333 -4.16699 -44.5 -12.5 -63.5s-22.5 -33.5 -42.5 -43.5v-1c13.333 -9.33301 23.5 -21.333 30.5 -36s12.167 -30.667 15.5 -48z" />
    <glyph glyph-name="macron" unicode="&#xaf;" horiz-adv-x="251" 
d="M-53 675h307v-55h-307v55z" />
    <glyph glyph-name="degree" unicode="&#xb0;" horiz-adv-x="411" 
d="M50 565c0 20 3.33301 38.667 10 56s16 32.5 28 45.5s25.833 23.333 41.5 31s32.5 11.5 50.5 11.5s34.833 -3.83301 50.5 -11.5s29.334 -18 41.001 -31s21 -28.167 28 -45.5s10.5 -36 10.5 -56s-3.33301 -38.833 -10 -56.5s-16 -33 -28 -46s-25.833 -23.167 -41.5 -30.5
s-32.5 -11 -50.5 -11s-35 3.66699 -51 11s-29.833 17.5 -41.5 30.5s-20.834 28.333 -27.501 46s-10 36.5 -10 56.5zM95 565c0 -26.667 8.16699 -49 24.5 -67s36.5 -27 60.5 -27s44.167 9 60.5 27s24.5 40.333 24.5 67s-8.16699 49 -24.5 67s-36.5 27 -60.5 27
s-44.167 -9 -60.5 -27s-24.5 -40.333 -24.5 -67z" />
    <glyph glyph-name="plusminus" unicode="&#xb1;" horiz-adv-x="591" 
d="M43 339h196v166h62v-166h196v-68h-196v-167h-62v167h-196v68zM43 68h454v-68h-454v68z" />
    <glyph glyph-name="twosuperior" unicode="&#xb2;" horiz-adv-x="351" 
d="M20 555c0 22.667 3.33496 43.5029 10.002 62.5029s16 35.333 28 49s26.333 24.167 43 31.5s35.334 11 56.001 11c17.333 0 34 -2.66699 50 -8s30.333 -13.333 43 -24s22.667 -23.834 30 -39.501s11 -33.834 11 -54.501c0 -24 -4.83301 -44.667 -14.5 -62
s-22 -32.833 -37 -46.5s-31.5 -25.834 -49.5 -36.501s-35 -21.334 -51 -32.001s-30 -21.5 -42 -32.5s-19.667 -23.833 -23 -38.5h211v-55h-272c1.33301 32.667 7.66602 59.667 18.999 81s25 39.5 41 54.5s33.167 27.833 51.5 38.5s35.166 21.834 50.499 33.501
s28.166 24.834 38.499 39.501s15.5 33.667 15.5 57s-7.5 40.833 -22.5 52.5s-32.167 17.5 -51.5 17.5c-26.667 0 -45.667 -9.83301 -57 -29.5s-17 -42.834 -17 -69.501h-61z" />
    <glyph glyph-name="threesuperior" unicode="&#xb3;" horiz-adv-x="351" 
d="M119 527c10.667 0 21.665 0.5 32.998 1.5s21.666 3.5 30.999 7.5s17 10.333 23 19s9 21 9 37c0 21.333 -7.16699 37 -21.5 47s-30.166 15 -47.499 15c-24 0 -42 -8 -54 -24s-18 -36.667 -18 -62h-61c2 44 14.667 78.5 38 103.5s55 37.5 95 37.5
c16.667 0 32.834 -2.16699 48.501 -6.5s29.5 -11.333 41.5 -21s21.667 -21.834 29 -36.501s11 -32.334 11 -53.001c0 -20 -6.16699 -37.333 -18.5 -52s-26.5 -25.667 -42.5 -33v-2c24 -5.33301 43 -16.666 57 -33.999s21 -40 21 -68c0 -22.667 -4.16699 -42.167 -12.5 -58.5
s-19.333 -29.833 -33 -40.5s-29.167 -18.5 -46.5 -23.5s-35 -7.5 -53 -7.5c-20 0 -38.667 3 -56 9s-32.5 14.833 -45.5 26.5s-23.333 26.334 -31 44.001s-11.5 38.167 -11.5 61.5h61c0.666992 -29.333 8.33398 -51 23.001 -65s34.667 -21 60 -21c9.33301 0 19 1.33301 29 4
s19 7 27 13s14.667 13.5 20 22.5s8 19.833 8 32.5c0 18.667 -3.5 33.167 -10.5 43.5s-16 18 -27 23s-23.167 8 -36.5 9s-26.333 1.5 -39 1.5v50z" />
    <glyph glyph-name="acute" unicode="&#xb4;" horiz-adv-x="251" 
d="M122 731h98l-117 -143h-58z" />
    <glyph glyph-name="mu" unicode="&#xb5;" 
d="M443 0h-72.001v82h-2c-16 -32.667 -37 -56.5 -63 -71.5s-55.333 -22.5 -88 -22.5c-15.333 0 -30.666 2.5 -45.999 7.5s-27.333 15.167 -36 30.5h-2v-224h-76v715h76v-350c0 -32 8.5 -57.333 25.5 -76s40.167 -28 69.5 -28c44.667 0 78.667 15 102 45s35 69 35 117v292h77
v-517z" />
    <glyph glyph-name="paragraph" unicode="&#xb6;" horiz-adv-x="591" 
d="M463 -155h-60.999v814h-110v-814h-61v477c-24.667 0 -48.334 4.16699 -71.001 12.5s-42.667 20.5 -60 36.5s-31.166 35.5 -41.499 58.5s-15.5 49.167 -15.5 78.5c0 34.667 5.16699 65 15.5 91s24.666 47.5 42.999 64.5s40 29.667 65 38s52.167 12.5 81.5 12.5h215v-869z
" />
    <glyph glyph-name="periodcentered" unicode="&#xb7;" horiz-adv-x="301" 
d="M67 311c0 17.333 5.83203 32.333 17.499 45s25.167 19 40.5 19c16 0 29.667 -6.33301 41 -19s17 -27.667 17 -45c0 -16.667 -5.66699 -31.5 -17 -44.5s-24.666 -19.5 -39.999 -19.5c-16 0 -29.833 6.33301 -41.5 19s-17.5 27.667 -17.5 45z" />
    <glyph glyph-name="cedilla" unicode="&#xb8;" horiz-adv-x="251" 
d="M21 -147c18.667 -8.66699 37.002 -13 55.002 -13c4 0 9.16699 0.333008 15.5 1s12.5 2.16699 18.5 4.5s11 5.5 15 9.5s6 9.33301 6 16c0 12 -4.83301 20.167 -14.5 24.5s-18.834 6.5 -27.501 6.5c-12 0 -24.333 -2.66699 -37 -8l-15 28l55 78h38l-38 -53l2 -2
c4 3.33301 8.5 5.33301 13.5 6s10.167 1 15.5 1c20 0 37.667 -6.33301 53 -19s23 -30.667 23 -54c0 -16.667 -3.5 -30.667 -10.5 -42s-15.833 -20.5 -26.5 -27.5s-22.667 -12 -36 -15s-26.333 -4.5 -39 -4.5c-14.667 0 -28.834 1.83301 -42.501 5.5
s-27.167 8.16699 -40.5 13.5z" />
    <glyph glyph-name="onesuperior" unicode="&#xb9;" horiz-adv-x="351" 
d="M224 280h-60.998v308h-104v50c12 0 24.333 0.833008 37 2.5s24.667 5.16699 36 10.5s21.166 12.5 29.499 21.5s14.166 21.167 17.499 36.5h45v-429z" />
    <glyph glyph-name="ordmasculine" unicode="&#xba;" horiz-adv-x="397" 
d="M173 709c46 0 82.502 -15.001 109.502 -45.001s40.5 -70.333 40.5 -121c0 -51.333 -13.333 -91.333 -40 -120s-63 -43 -109 -43c-44.667 0 -81.167 14.5 -109.5 43.5s-42.5 68.833 -42.5 119.5c0 24.667 3.66699 47.334 11 68.001s17.666 38.167 30.999 52.5
s29.166 25.5 47.499 33.5s38.833 12 61.5 12zM173.002 658.999c-15.333 0 -28.668 -3.16699 -40.001 -9.5s-20.666 -14.666 -27.999 -24.999s-12.666 -22.5 -15.999 -36.5s-5 -29 -5 -45c0 -32 7.16699 -58.833 21.5 -80.5s37.166 -32.5 68.499 -32.5
c30.667 0 53 10.667 67 32s21 48 21 80c0 33.333 -6.83301 61.166 -20.5 83.499s-36.5 33.5 -68.5 33.5z" />
    <glyph glyph-name="guillemotright" unicode="&#xbb;" horiz-adv-x="468" 
d="M195 322v-88l-137 -120v86l90 78l-90 78v86zM372 322v-88l-137 -120v86l90 78l-90 78v86z" />
    <glyph glyph-name="onequarter" unicode="&#xbc;" horiz-adv-x="802" 
d="M651 151h54v-55h-54v-96h-56v96h-179v58l189 275h46v-278zM460 151h135v193h-2zM526 725h67l-400 -753h-58zM197 280l-61.998 0.000976562v308h-103v50c12 0 24.333 0.833008 37 2.5s24.667 5 36 10s21.166 12.167 29.499 21.5s14.166 21.666 17.499 36.999h45v-429z" />
    <glyph glyph-name="onehalf" unicode="&#xbd;" horiz-adv-x="802" 
d="M513 725h58l-392 -753h-58zM197 280l-75.998 0.000976562v308h-89v50c12 0 24.333 0.833008 37 2.5s24.667 5 36 10s21.166 12.167 29.499 21.5s14.166 21.666 17.499 36.999h45v-429zM452.002 275.001c0 22.667 3.33496 43.5029 10.002 62.5029s16 35.333 28 49
s26.333 24.167 43 31.5s35.334 11 56.001 11c17.333 0 34 -2.66699 50 -8s30.333 -13.333 43 -24s22.667 -23.834 30 -39.501s11 -33.834 11 -54.501c0 -24 -4.83301 -44.667 -14.5 -62s-22 -32.833 -37 -46.5s-31.5 -25.834 -49.5 -36.501s-35 -21.334 -51 -32.001
s-30 -21.667 -42 -33s-19.667 -24 -23 -38h211v-55h-272c1.33301 32.667 7.66602 59.667 18.999 81s25 39.5 41 54.5s33.167 27.833 51.5 38.5s35.166 21.834 50.499 33.501s28.166 24.834 38.499 39.501s15.5 33.667 15.5 57s-7.5 40.833 -22.5 52.5
s-32.167 17.5 -51.5 17.5c-26.667 0 -45.667 -9.83301 -57 -29.5s-17 -42.834 -17 -69.501h-61z" />
    <glyph glyph-name="threequarters" unicode="&#xbe;" horiz-adv-x="802" 
d="M666 151h54v-55h-54v-96h-56v96h-179v58l189 275h46v-278zM476 147h135v193h-2zM585 725h58l-392 -753h-58zM159 527c10.667 0 21.667 0.5 33 1.5s21.833 3.5 31.5 7.5s17.5 10.333 23.5 19s9 21 9 37c0 21.333 -7.33301 37 -22 47s-30.667 15 -48 15
c-23.333 0 -41.166 -8 -53.499 -24s-18.5 -36.667 -18.5 -62h-61c2.66699 44 15.5 78.5 38.5 103.5s54.5 37.5 94.5 37.5c16.667 0 32.834 -2.16699 48.501 -6.5s29.667 -11.333 42 -21s22.166 -21.834 29.499 -36.501s11 -32.334 11 -53.001
c0 -20 -6.33301 -37.333 -19 -52s-26.667 -25.667 -42 -33v-2c23.333 -5.33301 42.166 -16.666 56.499 -33.999s21.5 -40 21.5 -68c0 -22.667 -4.16699 -42.167 -12.5 -58.5s-19.5 -29.833 -33.5 -40.5s-29.667 -18.5 -47 -23.5s-35 -7.5 -53 -7.5
c-19.333 0 -37.833 3 -55.5 9s-33 14.833 -46 26.5s-23.333 26.334 -31 44.001s-11.5 38.167 -11.5 61.5h61c0.666992 -29.333 8.33398 -51 23.001 -65s34.667 -21 60 -21c10 0 20 1.33301 30 4s19 7 27 13s14.667 13.5 20 22.5s8 19.833 8 32.5
c0 18.667 -3.5 33.167 -10.5 43.5s-16 18 -27 23s-23.333 8 -37 9s-26.834 1.5 -39.501 1.5v50z" />
    <glyph glyph-name="questiondown" unicode="&#xbf;" 
d="M453 30c0 -34 -4.67188 -65.666 -14.0049 -94.999s-22.666 -54.666 -39.999 -75.999s-38.5 -38.166 -63.5 -50.499s-53.167 -18.5 -84.5 -18.5c-28 0 -53.5 4.5 -76.5 13.5s-43 22 -60 39s-30.167 37.833 -39.5 62.5s-14 53 -14 85c0 28.667 3.83301 52.834 11.5 72.501
s17.334 37.334 29.001 53.001s24.167 30.167 37.5 43.5s25.833 28.166 37.5 44.499s21.334 35.166 29.001 56.499s11.5 47.666 11.5 78.999h76v-39c0 -25.333 -3.66699 -47.333 -11 -66s-16.666 -35.834 -27.999 -51.501s-23.5 -30.167 -36.5 -43.5
s-25.167 -27.333 -36.5 -42s-20.666 -30.334 -27.999 -47.001s-11 -35.667 -11 -57c0 -38 9.33301 -68.833 28 -92.5s45.667 -35.5 81 -35.5c22 0 40.833 4.5 56.5 13.5s28.667 21 39 36s17.833 32.5 22.5 52.5s7 41 7 63h77zM302.995 406.001h-100v111h100v-111z" />
    <glyph glyph-name="Agrave" unicode="&#xc0;" horiz-adv-x="634" 
d="M137 918h98l77 -143h-57zM326 714l244 -714h-72l-52 149h-321l-23 -77h-75l220 642h79zM143 206h288l-144 416h-2z" />
    <glyph glyph-name="Aacute" unicode="&#xc1;" horiz-adv-x="634" 
d="M331 918h98l-118 -143h-57zM326 714l244 -714h-72l-52 149h-321l-23 -77h-75l220 642h79zM143 206h288l-144 416h-2z" />
    <glyph glyph-name="Acircumflex" unicode="&#xc2;" horiz-adv-x="634" 
d="M249 918h84l94 -143h-76l-62 96l-63 -96h-69zM326 714l244 -714h-72l-52 149h-321l-23 -77h-75l220 642h79zM143 206h288l-144 416h-2z" />
    <glyph glyph-name="Atilde" unicode="&#xc3;" horiz-adv-x="634" 
d="M448 898c-4 -33.333 -13.499 -60.1631 -28.499 -80.4961s-38.5 -30.5 -70.5 -30.5c-10 0 -20 2 -30 6s-20 8.5 -30 13.5s-20 9.5 -30 13.5s-20 6 -30 6c-10.667 0 -20.5 -3.83301 -29.5 -11.5s-13.5 -17.834 -13.5 -30.501h-47c3.33301 13.333 7.5 26.666 12.5 39.999
s11.167 25.166 18.5 35.499s16.166 18.666 26.499 24.999s22.833 9.5 37.5 9.5c12.667 0 24.334 -2.16699 35.001 -6.5s21 -9 31 -14s19.833 -9.5 29.5 -13.5s19.834 -6 30.501 -6c11.333 0 20.166 4.66699 26.499 14s11.166 19.333 14.499 30h47zM326.001 714.003l244 -714
h-72l-52 149h-321l-23 -77h-75l220 642h79zM143.001 206.003h288l-144 416h-2z" />
    <glyph glyph-name="Adieresis" unicode="&#xc4;" horiz-adv-x="634" 
d="M166 839c0 12 3.83301 22.501 11.5 31.501s17.167 13.5 28.5 13.5s21 -4.33301 29 -13s12 -19.334 12 -32.001s-4 -23.167 -12 -31.5s-17.667 -12.5 -29 -12.5s-20.833 4.33301 -28.5 13s-11.5 19 -11.5 31zM335 839.001c0 12 3.66895 22.501 11.002 31.501
s16.666 13.5 27.999 13.5s21 -4.33301 29 -13s12 -19.334 12 -32.001s-4 -23.167 -12 -31.5s-17.667 -12.5 -29 -12.5c-10.667 0 -19.834 4.33301 -27.501 13s-11.5 19 -11.5 31zM326.002 714.002l244 -714h-72l-52 149h-321l-23 -77h-75l220 642h79zM143.002 206.002h288
l-144 416h-2z" />
    <glyph glyph-name="Aring" unicode="&#xc5;" horiz-adv-x="634" 
d="M230 839c0 -19.333 5.83301 -35.5 17.5 -48.5s26.5 -19.5 44.5 -19.5c17.333 0 31.833 6.5 43.5 19.5s17.5 29.167 17.5 48.5s-5.83301 35.5 -17.5 48.5s-26.167 19.5 -43.5 19.5c-18 0 -32.833 -6.5 -44.5 -19.5s-17.5 -29.167 -17.5 -48.5zM190 839
c0 15.333 2.66699 29.833 8 43.5s12.666 25.667 21.999 36s20.166 18.5 32.499 24.5s25.5 9 39.5 9c13.333 0 26.166 -3 38.499 -9s23.166 -14.167 32.499 -24.5s16.666 -22.333 21.999 -36s8 -28.167 8 -43.5s-2.66699 -29.833 -8 -43.5s-12.666 -25.667 -21.999 -36
s-20.166 -18.5 -32.499 -24.5s-25.166 -9 -38.499 -9c-14 0 -27.167 3 -39.5 9s-23.166 14.167 -32.499 24.5s-16.666 22.333 -21.999 36s-8 28.167 -8 43.5zM292 715c14.667 0 28 -4.83301 40 -14.5s20.667 -22.167 26 -37.5l232 -663h-94l-38 119h-337l-39 -119h-88
l233 663c5.33301 15.333 13.5 27.833 24.5 37.5s24.5 14.5 40.5 14.5zM143 180h294l-145 448h-2z" />
    <glyph glyph-name="AE" unicode="&#xc6;" horiz-adv-x="845" 
d="M454 713h284v-61h-205v-251h205v-67h-205v-272h205v-63h-283l1 149h-321l-50 -77h-74zM172 205h288l1 416h-2z" />
    <glyph glyph-name="Ccedilla" unicode="&#xc7;" horiz-adv-x="701" 
d="M489 3c-26 -7.33301 -54.667 -10.9951 -86 -10.9951c-48 0 -90.667 9.5 -128 28.5s-68.833 45 -94.5 78s-45.167 71.667 -58.5 116s-20 91.5 -20 141.5c0 50.667 6.66699 98.167 20 142.5s32.833 83 58.5 116s57.167 59.167 94.5 78.5s80 29 128 29
c31.333 0 60 -3.66699 86 -11l-25 -64c-9.33301 2.66699 -19 4.66699 -29 6s-21 2 -33 2c-36 0 -67.833 -8.33301 -95.5 -25s-50.834 -38.834 -69.501 -66.501s-32.667 -59.334 -42 -95.001s-14 -72.5 -14 -110.5c0 -38.667 4.66699 -75.834 14 -111.501
s23.333 -67.334 42 -95.001s41.834 -49.834 69.501 -66.501s59.5 -25 95.5 -25c12.667 0 24 0.666992 34 2s19.667 3.33301 29 6zM379 0.00488281v-31.001c20 0 37.667 -6.33301 53 -19s23 -30.667 23 -54c0 -16.667 -3.5 -30.667 -10.5 -42s-15.833 -20.5 -26.5 -27.5
s-22.667 -12 -36 -15s-26.333 -4.5 -39 -4.5l-11 50c4 0 9.16699 0.333008 15.5 1s12.5 2.16699 18.5 4.5s11 5.5 15 9.5s6 9.33301 6 16c0 12.667 -4 20.834 -12 24.501s-16.667 5.5 -26 5.5c-15.333 0 -29 -2.33301 -41 -7l28 90z" />
    <glyph glyph-name="Egrave" unicode="&#xc8;" horiz-adv-x="484" 
d="M69 918h98l77 -143h-57zM69 714h273v-61h-205v-251h205v-67h-205v-272h205v-63h-273v714z" />
    <glyph glyph-name="Eacute" unicode="&#xc9;" horiz-adv-x="486" 
d="M247 918h98l-118 -143h-58zM69 714h273v-61h-205v-251h205v-67h-205v-272h205v-63h-273v714z" />
    <glyph glyph-name="Ecircumflex" unicode="&#xca;" horiz-adv-x="489" 
d="M173 918h83l94 -143h-76l-62 96l-63 -96h-69zM69 714h273v-61h-205v-251h205v-67h-205v-272h205v-63h-273v714z" />
    <glyph glyph-name="Edieresis" unicode="&#xcb;" horiz-adv-x="495" 
d="M89 830c0 12.667 4 23.334 12 32.001s17.667 13 29 13s20.833 -4.33301 28.5 -13s11.5 -19.334 11.5 -32.001s-3.83301 -23.334 -11.5 -32.001s-17.167 -13 -28.5 -13s-21 4.33301 -29 13s-12 19.334 -12 32.001zM259 827c0 12.667 4.16699 23.5 12.5 32.5
s18.166 13.5 29.499 13.5s21 -4.5 29 -13.5s12 -19.833 12 -32.5s-4 -23.5 -12 -32.5s-17.667 -13.5 -29 -13.5s-21.166 4.5 -29.499 13.5s-12.5 19.833 -12.5 32.5zM69 714h273v-61h-205v-251h205v-67h-205v-272h205v-63h-273v714z" />
    <glyph glyph-name="Igrave" unicode="&#xcc;" horiz-adv-x="284" 
d="M179 66v-66h-67v684h67v-618v0zM-4 908h78l98 -143h-58z" />
    <glyph glyph-name="Iacute" unicode="&#xcd;" horiz-adv-x="284" 
d="M118 66v-66h-67v684h67v-618v0zM139 908h99l-118 -143h-58z" />
    <glyph glyph-name="Icircumflex" unicode="&#xce;" horiz-adv-x="284" 
d="M179 66v-66h-67v684h67v-618v0zM105 908h83l94 -143h-76l-62 96l-63 -96h-69z" />
    <glyph glyph-name="Idieresis" unicode="&#xcf;" horiz-adv-x="345" 
d="M179 66v-66h-67v684h67v-618v0zM35 859c0 12 3.66699 22.167 11 30.5s16.666 12.5 27.999 12.5c10.667 0 19.667 -4.16699 27 -12.5s11 -18.5 11 -30.5s-3.66699 -22.167 -11 -30.5s-16.333 -12.5 -27 -12.5c-11.333 0 -20.666 4.16699 -27.999 12.5s-11 18.5 -11 30.5z
M183 859c0 12 3.66699 22.167 11 30.5s16.333 12.5 27 12.5c11.333 0 20.666 -4.16699 27.999 -12.5s11 -18.5 11 -30.5s-3.66699 -22.167 -11 -30.5s-16.666 -12.5 -27.999 -12.5c-10.667 0 -19.667 4.16699 -27 12.5s-11 18.5 -11 30.5z" />
    <glyph glyph-name="Ntilde" unicode="&#xd1;" horiz-adv-x="701" 
d="M481 888c-4 -33.333 -13.501 -60.1641 -28.501 -80.4971s-38.5 -30.5 -70.5 -30.5c-9.33301 0 -19 2 -29 6s-20 8.5 -30 13.5s-20 9.5 -30 13.5s-20 6 -30 6c-9.33301 0 -18.833 -3.5 -28.5 -10.5s-14.5 -16.167 -14.5 -27.5v-4h-47
c3.33301 13.333 7.33301 26.666 12 39.999s10.667 25.166 18 35.499s16.166 18.666 26.499 24.999s22.833 9.5 37.5 9.5c12.667 0 24.334 -2.16699 35.001 -6.5s21 -9 31 -14s19.833 -9.5 29.5 -13.5s19.834 -6 30.501 -6c11.333 0 20.333 4.66699 27 14
s11.667 19.333 15 30h46zM76.999 717.002h64l376 -598h2v598h74v-717h-66l-376 598v-526h-74v645z" />
    <glyph glyph-name="Ograve" unicode="&#xd2;" horiz-adv-x="735" 
d="M221 908h98l78 -143h-58zM38 357c0 50.667 6.66699 98.167 20 142.5s32.833 83 58.5 116s57.167 59.167 94.5 78.5s80 29 128 29c47.333 0 89.5 -9.66699 126.5 -29s68.333 -45.5 94 -78.5s45.334 -71.667 59.001 -116s20.5 -91.833 20.5 -142.5
c0 -50 -6.83301 -97.167 -20.5 -141.5s-33.334 -83 -59.001 -116s-57 -59 -94 -78s-79.167 -28.5 -126.5 -28.5c-48 0 -90.667 9.5 -128 28.5s-68.833 45 -94.5 78s-45.167 71.667 -58.5 116s-20 91.5 -20 141.5zM109 359c0 -39.333 4.83301 -77.5 14.5 -114.5
s24 -69.667 43 -98s42.833 -51 71.5 -68s62 -25.5 100 -25.5c39.333 0 73.5 8.5 102.5 25.5s53 39.667 72 68s33.167 61 42.5 98s14 75.167 14 114.5c0 38.667 -4.66699 76.334 -14 113.001s-23.5 69.334 -42.5 98.001s-43 51.5 -72 68.5s-63.167 25.5 -102.5 25.5
c-38 0 -71.333 -8.5 -100 -25.5s-52.5 -39.833 -71.5 -68.5s-33.333 -61.334 -43 -98.001s-14.5 -74.334 -14.5 -113.001z" />
    <glyph glyph-name="Oacute" unicode="&#xd3;" horiz-adv-x="735" 
d="M364 908h99l-118 -143h-58zM38 357c0 50.667 6.66699 98.167 20 142.5s32.833 83 58.5 116s57.167 59.167 94.5 78.5s80 29 128 29c47.333 0 89.5 -9.66699 126.5 -29s68.333 -45.5 94 -78.5s45.334 -71.667 59.001 -116s20.5 -91.833 20.5 -142.5
c0 -50 -6.83301 -97.167 -20.5 -141.5s-33.334 -83 -59.001 -116s-57 -59 -94 -78s-79.167 -28.5 -126.5 -28.5c-48 0 -90.667 9.5 -128 28.5s-68.833 45 -94.5 78s-45.167 71.667 -58.5 116s-20 91.5 -20 141.5zM109 359c0 -39.333 4.83301 -77.5 14.5 -114.5
s24 -69.667 43 -98s42.833 -51 71.5 -68s62 -25.5 100 -25.5c39.333 0 73.5 8.5 102.5 25.5s53 39.667 72 68s33.167 61 42.5 98s14 75.167 14 114.5c0 38.667 -4.66699 76.334 -14 113.001s-23.5 69.334 -42.5 98.001s-43 51.5 -72 68.5s-63.167 25.5 -102.5 25.5
c-38 0 -71.333 -8.5 -100 -25.5s-52.5 -39.833 -71.5 -68.5s-33.333 -61.334 -43 -98.001s-14.5 -74.334 -14.5 -113.001z" />
    <glyph glyph-name="Ocircumflex" unicode="&#xd4;" horiz-adv-x="735" 
d="M300 908h83l94 -143h-76l-62 96l-63 -96h-69zM38 357c0 50.667 6.66699 98.167 20 142.5s32.833 83 58.5 116s57.167 59.167 94.5 78.5s80 29 128 29c47.333 0 89.5 -9.66699 126.5 -29s68.333 -45.5 94 -78.5s45.334 -71.667 59.001 -116s20.5 -91.833 20.5 -142.5
c0 -50 -6.83301 -97.167 -20.5 -141.5s-33.334 -83 -59.001 -116s-57 -59 -94 -78s-79.167 -28.5 -126.5 -28.5c-48 0 -90.667 9.5 -128 28.5s-68.833 45 -94.5 78s-45.167 71.667 -58.5 116s-20 91.5 -20 141.5zM109 359c0 -39.333 4.83301 -77.5 14.5 -114.5
s24 -69.667 43 -98s42.833 -51 71.5 -68s62 -25.5 100 -25.5c39.333 0 73.5 8.5 102.5 25.5s53 39.667 72 68s33.167 61 42.5 98s14 75.167 14 114.5c0 38.667 -4.66699 76.334 -14 113.001s-23.5 69.334 -42.5 98.001s-43 51.5 -72 68.5s-63.167 25.5 -102.5 25.5
c-38 0 -71.333 -8.5 -100 -25.5s-52.5 -39.833 -71.5 -68.5s-33.333 -61.334 -43 -98.001s-14.5 -74.334 -14.5 -113.001z" />
    <glyph glyph-name="Otilde" unicode="&#xd5;" horiz-adv-x="735" 
d="M499 888c-4.66699 -33.333 -14.334 -60.1641 -29.001 -80.4971s-38 -30.5 -70 -30.5c-10 0 -20 2 -30 6s-20 8.5 -30 13.5s-20 9.5 -30 13.5s-20 6 -30 6c-9.33301 0 -18.833 -3.5 -28.5 -10.5s-14.5 -16.167 -14.5 -27.5v-4h-47
c3.33301 13.333 7.33301 26.666 12 39.999s10.667 25.166 18 35.499s16.166 18.666 26.499 24.999s22.833 9.5 37.5 9.5c12.667 0 24.334 -2.16699 35.001 -6.5s21 -9 31 -14s19.833 -9.5 29.5 -13.5s19.834 -6 30.501 -6c11.333 0 20.333 4.66699 27 14
s11.667 19.333 15 30h47zM38 357.002c0 50.667 6.66699 98.167 20 142.5s32.833 83 58.5 116s57.167 59.167 94.5 78.5s80 29 128 29c47.333 0 89.5 -9.66699 126.5 -29s68.333 -45.5 94 -78.5s45.334 -71.667 59.001 -116s20.5 -91.833 20.5 -142.5
c0 -50 -6.83301 -97.167 -20.5 -141.5s-33.334 -83 -59.001 -116s-57 -59 -94 -78s-79.167 -28.5 -126.5 -28.5c-48 0 -90.667 9.5 -128 28.5s-68.833 45 -94.5 78s-45.167 71.667 -58.5 116s-20 91.5 -20 141.5zM109 359.002c0 -39.333 4.83301 -77.5 14.5 -114.5
s24 -69.667 43 -98s42.833 -51 71.5 -68s62 -25.5 100 -25.5c39.333 0 73.5 8.5 102.5 25.5s53 39.667 72 68s33.167 61 42.5 98s14 75.167 14 114.5c0 38.667 -4.66699 76.334 -14 113.001s-23.5 69.334 -42.5 98.001s-43 51.5 -72 68.5s-63.167 25.5 -102.5 25.5
c-38 0 -71.333 -8.5 -100 -25.5s-52.5 -39.833 -71.5 -68.5s-33.333 -61.334 -43 -98.001s-14.5 -74.334 -14.5 -113.001z" />
    <glyph glyph-name="Odieresis" unicode="&#xd6;" horiz-adv-x="735" 
d="M386 873h81v-104h-81v104zM217 873h81v-104h-81v104zM38 357c0 50.667 6.66699 98.167 20 142.5s32.833 83 58.5 116s57.167 59.167 94.5 78.5s80 29 128 29c47.333 0 89.5 -9.66699 126.5 -29s68.333 -45.5 94 -78.5s45.334 -71.667 59.001 -116
s20.5 -91.833 20.5 -142.5c0 -50 -6.83301 -97.167 -20.5 -141.5s-33.334 -83 -59.001 -116s-57 -59 -94 -78s-79.167 -28.5 -126.5 -28.5c-48 0 -90.667 9.5 -128 28.5s-68.833 45 -94.5 78s-45.167 71.667 -58.5 116s-20 91.5 -20 141.5zM109 359
c0 -39.333 4.83301 -77.5 14.5 -114.5s24 -69.667 43 -98s42.833 -51 71.5 -68s62 -25.5 100 -25.5c39.333 0 73.5 8.5 102.5 25.5s53 39.667 72 68s33.167 61 42.5 98s14 75.167 14 114.5c0 38.667 -4.66699 76.334 -14 113.001s-23.5 69.334 -42.5 98.001
s-43 51.5 -72 68.5s-63.167 25.5 -102.5 25.5c-38 0 -71.333 -8.5 -100 -25.5s-52.5 -39.833 -71.5 -68.5s-33.333 -61.334 -43 -98.001s-14.5 -74.334 -14.5 -113.001z" />
    <glyph glyph-name="multiply" unicode="&#xd7;" horiz-adv-x="591" 
d="M64 72l164 182l-163 180l43 48l163 -180l162 180l43 -48l-162 -180l163 -182l-43 -48l-163 182l-164 -182z" />
    <glyph glyph-name="Oslash" unicode="&#xd8;" horiz-adv-x="735" 
d="M497 577c-19.333 25.333 -42.6689 43.998 -70.002 55.998s-55.666 18 -84.999 18c-37.333 0 -70 -8.16699 -98 -24.5s-51.167 -38.166 -69.5 -65.499s-32 -58.666 -41 -93.999s-13.5 -72 -13.5 -110c0 -32.667 3.33301 -65 10 -97s18.334 -62 35.001 -90z
M188.997 133.998c20 -25.333 43 -43.498 69 -54.498s54 -16.5 84 -16.5c37.333 0 70 8.16699 98 24.5s51.167 38.166 69.5 65.499s32 58.666 41 93.999s13.5 72 13.5 110c0 32 -3.33301 63.833 -10 95.5s-17.667 61.167 -33 88.5zM650.997 700l-74.001 -90
c25.333 -36 43.833 -75.833 55.5 -119.5s17.5 -88.167 17.5 -133.5c0 -51.333 -6.83301 -99.666 -20.5 -144.999s-33.667 -85 -60 -119s-58.666 -60.833 -96.999 -80.5s-81.833 -29.5 -130.5 -29.5c-38 0 -74.833 6.83301 -110.5 20.5s-67.5 35.5 -95.5 65.5l-73 -89l-30 30
l76 92c-26 36 -45 76 -57 120s-18 89 -18 135c0 51.333 6.83301 99.666 20.5 144.999s33.667 85 60 119s58.666 60.833 96.999 80.5s81.833 29.5 130.5 29.5c39.333 0 76.833 -6.83301 112.5 -20.5s67.834 -36.167 96.501 -67.5l71 87z" />
    <glyph glyph-name="Ugrave" unicode="&#xd9;" horiz-adv-x="701" 
d="M204 908h98l78 -143h-58zM583 259c0 -45.333 -5.83203 -84.834 -17.499 -118.501s-28.5 -61.5 -50.5 -83.5s-48.667 -38.333 -80 -49s-66.333 -16 -105 -16c-38 0 -73 5 -105 15s-59.833 25.833 -83.5 47.5s-42 49.334 -55 83.001s-19.5 74.167 -19.5 121.5v455h70v-455
c0 -32 4.83301 -60.667 14.5 -86s23 -46.833 40 -64.5s37.333 -31.167 61 -40.5s49.5 -14 77.5 -14s53.333 5 76 15s41.667 24 57 42s27.166 39.5 35.499 64.5s12.5 52.833 12.5 83.5v455h72v-455z" />
    <glyph glyph-name="Uacute" unicode="&#xda;" horiz-adv-x="701" 
d="M347 908h98l-117 -143h-58zM583 259c0 -45.333 -5.83203 -84.834 -17.499 -118.501s-28.5 -61.5 -50.5 -83.5s-48.667 -38.333 -80 -49s-66.333 -16 -105 -16c-38 0 -73 5 -105 15s-59.833 25.833 -83.5 47.5s-42 49.334 -55 83.001s-19.5 74.167 -19.5 121.5v455h70
v-455c0 -32 4.83301 -60.667 14.5 -86s23 -46.833 40 -64.5s37.333 -31.167 61 -40.5s49.5 -14 77.5 -14s53.333 5 76 15s41.667 24 57 42s27.166 39.5 35.499 64.5s12.5 52.833 12.5 83.5v455h72v-455z" />
    <glyph glyph-name="Ucircumflex" unicode="&#xdb;" horiz-adv-x="701" 
d="M283 908h83l94 -143h-76l-62 96l-63 -96h-69zM583 259c0 -45.333 -5.83203 -84.834 -17.499 -118.501s-28.5 -61.5 -50.5 -83.5s-48.667 -38.333 -80 -49s-66.333 -16 -105 -16c-38 0 -73 5 -105 15s-59.833 25.833 -83.5 47.5s-42 49.334 -55 83.001
s-19.5 74.167 -19.5 121.5v455h70v-455c0 -32 4.83301 -60.667 14.5 -86s23 -46.833 40 -64.5s37.333 -31.167 61 -40.5s49.5 -14 77.5 -14s53.333 5 76 15s41.667 24 57 42s27.166 39.5 35.499 64.5s12.5 52.833 12.5 83.5v455h72v-455z" />
    <glyph glyph-name="Udieresis" unicode="&#xdc;" horiz-adv-x="701" 
d="M192 830c0 12.667 3.83301 23.334 11.5 32.001s17.167 13 28.5 13s21 -4.33301 29 -13s12 -19.334 12 -32.001s-4 -23.334 -12 -32.001s-17.667 -13 -29 -13s-20.833 4.33301 -28.5 13s-11.5 19.334 -11.5 32.001zM362 827c0 12.667 4 23.5 12 32.5s17.667 13.5 29 13.5
s21.166 -4.5 29.499 -13.5s12.5 -19.833 12.5 -32.5s-4.16699 -23.5 -12.5 -32.5s-18.166 -13.5 -29.499 -13.5s-21 4.5 -29 13.5s-12 19.833 -12 32.5zM583 259c0 -45.333 -5.83203 -84.834 -17.499 -118.501s-28.5 -61.5 -50.5 -83.5s-48.667 -38.333 -80 -49
s-66.333 -16 -105 -16c-38 0 -73 5 -105 15s-59.833 25.833 -83.5 47.5s-42 49.334 -55 83.001s-19.5 74.167 -19.5 121.5v455h70v-455c0 -32 4.83301 -60.667 14.5 -86s23 -46.833 40 -64.5s37.333 -31.167 61 -40.5s49.5 -14 77.5 -14s53.333 5 76 15s41.667 24 57 42
s27.166 39.5 35.499 64.5s12.5 52.833 12.5 83.5v455h72v-455z" />
    <glyph glyph-name="Yacute" unicode="&#xdd;" horiz-adv-x="634" 
d="M314 908h98l-118 -143h-57zM177 0h-72l149 297l-185 340h75l146 -280l184 357h72z" />
    <glyph glyph-name="germandbls" unicode="&#xdf;" 
d="M58 531c0 30 4.33105 57.1631 12.998 81.4961s20.667 45.333 36 63s34 31.334 56 41.001s46.333 14.5 73 14.5c22.667 0 45.167 -3.83301 67.5 -11.5s42.333 -18.834 60 -33.501s31.834 -33 42.501 -55s16 -47 16 -75c0 -38 -7.16699 -70.333 -21.5 -97
s-38.5 -46 -72.5 -58v-2c20.667 -2.66699 38.667 -9.5 54 -20.5s28.166 -24.667 38.499 -41s18 -34.666 23 -54.999s7.5 -41.166 7.5 -62.499c0 -34 -5.16699 -65.167 -15.5 -93.5s-24.666 -52.833 -42.999 -73.5s-40.166 -36.667 -65.499 -48s-53.333 -17 -84 -17
c-14.667 0 -27.667 1.33301 -39 4v74c5.33301 -1.33301 10.5 -2.16602 15.5 -2.49902s10.167 -0.5 15.5 -0.5c40 0 72.5 13 97.5 39s37.5 61.667 37.5 107c0 32 -3.83301 57.833 -11.5 77.5s-18.667 34.834 -33 45.501s-31.833 17.834 -52.5 21.501s-43.667 5.5 -69 5.5v68
l16 -1c34 0 62.667 9.16699 86 27.5s35 48.166 35 89.499c0 15.333 -2.5 29.833 -7.5 43.5s-12 25.667 -21 36s-19.667 18.5 -32 24.5s-25.5 9 -39.5 9c-41.333 0 -69.5 -12.667 -84.5 -38s-22.5 -59.333 -22.5 -102v-516h-76v531z" />
    <glyph glyph-name="agrave" unicode="&#xe0;" horiz-adv-x="534" 
d="M121 731h99l77 -143h-58zM335 178c0 -19.333 -4.50098 -36.666 -13.501 -51.999s-20.667 -28.333 -35 -39s-30.333 -18.667 -48 -24s-35.167 -8 -52.5 -8c-27.333 0 -50.166 7 -68.499 21s-27.5 35.667 -27.5 65c0 16.667 4.66699 30.167 14 40.5
s21.5 18.666 36.5 24.999s31.667 11.5 50 15.5s36.5 7.83301 54.5 11.5s35 7.66699 51 12s29 10.5 39 18.5v-86zM402.999 65l0.00195312 324.002c0 26.667 -4.33301 49 -13 67s-20.5 32.5 -35.5 43.5s-32.667 18.667 -53 23s-42.5 6.5 -66.5 6.5l-5 -67
c32 0 57.667 -6.83301 77 -20.5s29 -37.834 29 -72.501c0 -18.667 -8 -32.5 -24 -41.5s-35.833 -16.333 -59.5 -22s-49.334 -11.334 -77.001 -17.001s-53.334 -14.167 -77.001 -25.5s-43.5 -27.333 -59.5 -48s-24 -48.667 -24 -84c0 -47.333 13.833 -83 41.5 -107
s64.5 -36 110.5 -36c20 0 39.167 0.833008 57.5 2.5s35.833 5.16699 52.5 10.5s32.5 13 47.5 23s28.833 23.333 41.5 40z" />
    <glyph glyph-name="aacute" unicode="&#xe1;" horiz-adv-x="534" 
d="M329 731h98l-117 -143h-58zM335 178c0 -19.333 -4.50098 -36.666 -13.501 -51.999s-20.667 -28.333 -35 -39s-30.333 -18.667 -48 -24s-35.167 -8 -52.5 -8c-27.333 0 -50.166 7 -68.499 21s-27.5 35.667 -27.5 65c0 16.667 4.66699 30.167 14 40.5
s21.5 18.666 36.5 24.999s31.667 11.5 50 15.5s36.5 7.83301 54.5 11.5s35 7.66699 51 12s29 10.5 39 18.5v-86zM402.999 65l0.00195312 324.002c0 26.667 -4.33301 49 -13 67s-20.5 32.5 -35.5 43.5s-32.667 18.667 -53 23s-42.5 6.5 -66.5 6.5l-5 -67
c32 0 57.667 -6.83301 77 -20.5s29 -37.834 29 -72.501c0 -18.667 -8 -32.5 -24 -41.5s-35.833 -16.333 -59.5 -22s-49.334 -11.334 -77.001 -17.001s-53.334 -14.167 -77.001 -25.5s-43.5 -27.333 -59.5 -48s-24 -48.667 -24 -84c0 -47.333 13.833 -83 41.5 -107
s64.5 -36 110.5 -36c20 0 39.167 0.833008 57.5 2.5s35.833 5.16699 52.5 10.5s32.5 13 47.5 23s28.833 23.333 41.5 40z" />
    <glyph glyph-name="acircumflex" unicode="&#xe2;" horiz-adv-x="534" 
d="M200 731h83l94 -143h-76l-62 96l-63 -96h-69zM335 178c0 -19.333 -4.50098 -36.666 -13.501 -51.999s-20.667 -28.333 -35 -39s-30.333 -18.667 -48 -24s-35.167 -8 -52.5 -8c-27.333 0 -50.166 7 -68.499 21s-27.5 35.667 -27.5 65c0 16.667 4.66699 30.167 14 40.5
s21.5 18.666 36.5 24.999s31.667 11.5 50 15.5s36.5 7.83301 54.5 11.5s35 7.66699 51 12s29 10.5 39 18.5v-86zM402.999 65l0.00195312 324.002c0 26.667 -4.33301 49 -13 67s-20.5 32.5 -35.5 43.5s-32.667 18.667 -53 23s-42.5 6.5 -66.5 6.5l-5 -67
c32 0 57.667 -6.83301 77 -20.5s29 -37.834 29 -72.501c0 -18.667 -8 -32.5 -24 -41.5s-35.833 -16.333 -59.5 -22s-49.334 -11.334 -77.001 -17.001s-53.334 -14.167 -77.001 -25.5s-43.5 -27.333 -59.5 -48s-24 -48.667 -24 -84c0 -47.333 13.833 -83 41.5 -107
s64.5 -36 110.5 -36c20 0 39.167 0.833008 57.5 2.5s35.833 5.16699 52.5 10.5s32.5 13 47.5 23s28.833 23.333 41.5 40z" />
    <glyph glyph-name="atilde" unicode="&#xe3;" horiz-adv-x="534" 
d="M399 711c-4 -33.333 -13.501 -60.1641 -28.501 -80.4971s-38.5 -30.5 -70.5 -30.5c-10 0 -20 2 -30 6s-20 8.5 -30 13.5s-20 9.5 -30 13.5s-20 6 -30 6c-9.33301 0 -18.833 -3.5 -28.5 -10.5s-14.5 -16.167 -14.5 -27.5v-4h-47c3.33301 13.333 7.33301 26.666 12 39.999
s10.667 25.166 18 35.499s16.166 18.666 26.499 24.999s22.833 9.5 37.5 9.5c12.667 0 24.334 -2.16699 35.001 -6.5s21 -9 31 -14s19.833 -9.5 29.5 -13.5s19.834 -6 30.501 -6c11.333 0 20.333 4.66699 27 14s11.667 19.333 15 30h47zM334.999 178.002
c0 -19.333 -4.50098 -36.666 -13.501 -51.999s-20.667 -28.333 -35 -39s-30.333 -18.667 -48 -24s-35.167 -8 -52.5 -8c-27.333 0 -50.166 7 -68.499 21s-27.5 35.667 -27.5 65c0 16.667 4.66699 30.167 14 40.5s21.5 18.666 36.5 24.999s31.667 11.5 50 15.5
s36.5 7.83301 54.5 11.5s35 7.66699 51 12s29 10.5 39 18.5v-86zM402.998 65.002l0.00195312 324.002c0 26.667 -4.33301 49 -13 67s-20.5 32.5 -35.5 43.5s-32.667 18.667 -53 23s-42.5 6.5 -66.5 6.5l-5 -67c32 0 57.667 -6.83301 77 -20.5s29 -37.834 29 -72.501
c0 -18.667 -8 -32.5 -24 -41.5s-35.833 -16.333 -59.5 -22s-49.334 -11.334 -77.001 -17.001s-53.334 -14.167 -77.001 -25.5s-43.5 -27.333 -59.5 -48s-24 -48.667 -24 -84c0 -47.333 13.833 -83 41.5 -107s64.5 -36 110.5 -36c20 0 39.167 0.833008 57.5 2.5
s35.833 5.16699 52.5 10.5s32.5 13 47.5 23s28.833 23.333 41.5 40z" />
    <glyph glyph-name="adieresis" unicode="&#xe4;" horiz-adv-x="534" 
d="M286 696h81v-104h-81v104zM117 696h81v-104h-81v104zM335 178c0 -19.333 -4.50098 -36.666 -13.501 -51.999s-20.667 -28.333 -35 -39s-30.333 -18.667 -48 -24s-35.167 -8 -52.5 -8c-27.333 0 -50.166 7 -68.499 21s-27.5 35.667 -27.5 65
c0 16.667 4.66699 30.167 14 40.5s21.5 18.666 36.5 24.999s31.667 11.5 50 15.5s36.5 7.83301 54.5 11.5s35 7.66699 51 12s29 10.5 39 18.5v-86zM402.999 65l0.00195312 324.002c0 26.667 -4.33301 49 -13 67s-20.5 32.5 -35.5 43.5s-32.667 18.667 -53 23
s-42.5 6.5 -66.5 6.5l-5 -67c32 0 57.667 -6.83301 77 -20.5s29 -37.834 29 -72.501c0 -18.667 -8 -32.5 -24 -41.5s-35.833 -16.333 -59.5 -22s-49.334 -11.334 -77.001 -17.001s-53.334 -14.167 -77.001 -25.5s-43.5 -27.333 -59.5 -48s-24 -48.667 -24 -84
c0 -47.333 13.833 -83 41.5 -107s64.5 -36 110.5 -36c20 0 39.167 0.833008 57.5 2.5s35.833 5.16699 52.5 10.5s32.5 13 47.5 23s28.833 23.333 41.5 40z" />
    <glyph glyph-name="aring" unicode="&#xe5;" horiz-adv-x="534" 
d="M187 662c0 -19.333 6.5 -35.5 19.5 -48.5s29.5 -19.5 49.5 -19.5s36.5 6.5 49.5 19.5s19.5 29.167 19.5 48.5s-6.5 35.5 -19.5 48.5s-29.5 19.5 -49.5 19.5s-36.5 -6.5 -49.5 -19.5s-19.5 -29.167 -19.5 -48.5zM140 662c0 15.333 3.16699 29.833 9.5 43.5
s14.666 25.667 24.999 36s22.5 18.5 36.5 24.5s29 9 45 9s31 -3 45 -9s26.167 -14.167 36.5 -24.5s18.666 -22.333 24.999 -36s9.5 -28.167 9.5 -43.5s-3.16699 -29.833 -9.5 -43.5s-14.666 -25.667 -24.999 -36s-22.5 -18.5 -36.5 -24.5s-29 -9 -45 -9s-31 3 -45 9
s-26.167 14.167 -36.5 24.5s-18.666 22.333 -24.999 36s-9.5 28.167 -9.5 43.5zM327 180c0 -12 -2.66504 -24.832 -7.99805 -38.499s-13.833 -26.334 -25.5 -38.001s-26.5 -21.334 -44.5 -29.001s-39.667 -11.5 -65 -11.5c-11.333 0 -22.5 1.33301 -33.5 4s-20.667 7 -29 13
s-15 13.833 -20 23.5s-7.5 21.5 -7.5 35.5c0 20.667 4.33301 37.167 13 49.5s20 21.833 34 28.5s29.667 11.5 47 14.5s34.666 5.83301 51.999 8.5s33.666 5.83398 48.999 9.50098s28 9.5 38 17.5v-87zM400.002 0.000976562l-0.00195312 387.002c0 30 -5 54.333 -15 73
s-23.167 33.167 -39.5 43.5s-34.666 17.166 -54.999 20.499s-40.833 5 -61.5 5l-5 -75c12 0 24.167 -1 36.5 -3s23.5 -6 33.5 -12s18.167 -14.667 24.5 -26s9.5 -26.333 9.5 -45c0 -15.333 -4.5 -27.166 -13.5 -35.499s-20.833 -14.833 -35.5 -19.5s-31.5 -8.5 -50.5 -11.5
s-38.333 -6.33301 -58 -10s-39 -8.66699 -58 -15s-35.833 -15.333 -50.5 -27s-26.5 -26.834 -35.5 -45.501s-13.5 -42.334 -13.5 -71.001c0 -26 4 -48.167 12 -66.5s19 -33.333 33 -45s30.333 -20.167 49 -25.5s38.667 -8 60 -8c32.667 0 62.834 6.33301 90.501 19
s52.167 33 73.5 61c0 -28.667 4 -47.167 12 -55.5s17.333 -12.5 28 -12.5h29z" />
    <glyph glyph-name="ae" unicode="&#xe6;" horiz-adv-x="834" 
d="M450 229l-0.000976562 -9c0 -55.333 15.833 -95.5 47.5 -120.5s73.5 -37.5 125.5 -37.5v-76c-3.33301 -1.33301 -6.66602 -2 -9.99902 -2h-10c-36.667 0 -69.167 5.66699 -97.5 17s-52.5 27.666 -72.5 48.999c-7.33301 7.33301 -14.833 17 -22.5 29
s-13.834 23 -18.501 33c-10 -21.333 -22.5 -39.833 -37.5 -55.5s-31.333 -28.5 -49 -38.5s-35.667 -17.5 -54 -22.5s-35.5 -7.5 -51.5 -7.5c-21.333 0 -41.333 2.66699 -60 8s-35 13.833 -49 25.5s-25 26.667 -33 45s-12 40.5 -12 66.5c0 28.667 4.5 52.334 13.5 71.001
s20.833 33.834 35.5 45.501s31.5 20.667 50.5 27s38.333 11.333 58 15s39 7 58 10s35.833 6.83301 50.5 11.5s26.5 11.167 35.5 19.5s13.5 20.166 13.5 35.499c0 18.667 -3.16699 33.667 -9.5 45s-14.5 20 -24.5 26s-21.167 10 -33.5 12s-24.5 3 -36.5 3l5 75
c16.667 0 33.334 -1.16699 50.001 -3.5s32.167 -6.5 46.5 -12.5s27.333 -14.333 39 -25s20.5 -24.667 26.5 -42c18.667 24 41.5 43.167 68.5 57.5s57.5 21.5 91.5 21.5c36 0 67.167 -7.83301 93.5 -23.5s48.333 -36.5 66 -62.5s30.667 -56 39 -90s12.5 -69 12.5 -105v-15
h-345zM578.999 450c-19.333 0 -36.665 -3.66699 -51.998 -11s-28.5 -17.5 -39.5 -30.5s-19.833 -28.5 -26.5 -46.5s-10.334 -37.333 -11.001 -58h261c-1.33301 20 -5.5 39 -12.5 57s-16.167 33.5 -27.5 46.5s-24.833 23.333 -40.5 31s-32.834 11.5 -51.501 11.5zM360 267
c-10 -8 -22.6689 -13.834 -38.002 -17.501s-31.666 -6.83398 -48.999 -9.50098s-34.666 -5.5 -51.999 -8.5s-33 -7.83301 -47 -14.5s-25.333 -16.167 -34 -28.5s-13 -28.833 -13 -49.5c0 -14 2.5 -25.833 7.5 -35.5s11.667 -17.5 20 -23.5s18 -10.333 29 -13
s22.167 -4 33.5 -4c25.333 0 47 3.83301 65 11.5s32.833 17.334 44.5 29.001s20.167 24.334 25.5 38.001s8 26.5 8 38.5v87z" />
    <glyph glyph-name="ccedilla" unicode="&#xe7;" horiz-adv-x="582" 
d="M371 447c-13.333 4.66699 -27.999 7.00391 -43.999 7.00391c-27.333 0 -50.166 -5.5 -68.499 -16.5s-33.166 -25.833 -44.499 -44.5s-19.5 -40.167 -24.5 -64.5s-7.5 -49.833 -7.5 -76.5c0 -24 2.5 -47.333 7.5 -70s13 -42.834 24 -60.501s25.167 -31.834 42.5 -42.501
s38 -16 62 -16c9.33301 0 18.333 0.666992 27 2s17.334 4 26.001 8l38 -67c-14.667 -6.66699 -29.5 -11.334 -44.5 -14.001s-30.167 -4 -45.5 -4c-36 0 -67.667 6.66699 -95 20s-50 31.666 -68 54.999s-31.667 51.166 -41 83.499s-14 67.5 -14 105.5s4.5 73.833 13.5 107.5
s22.667 63 41 88s41.166 44.833 68.499 59.5s59.666 22 96.999 22c15.333 0 30.166 -1.16699 44.499 -3.5s28.166 -6.16602 41.499 -11.499zM322.001 -5.99609l5 -32.001c20 0 37.667 -6.33301 53 -19s23 -30.667 23 -54c0 -16.667 -3.5 -30.667 -10.5 -42
s-15.833 -20.5 -26.5 -27.5s-22.667 -12 -36 -15s-26.333 -4.5 -39 -4.5l-11 50c4 0 9.16699 0.333008 15.5 1s12.5 2.16699 18.5 4.5s11 5.5 15 9.5s6 9.33301 6 16c0 12.667 -4 20.834 -12 24.501s-16.667 5.5 -26 5.5c-15.333 0 -29 -2.33301 -41 -7l28 90h38z" />
    <glyph glyph-name="egrave" unicode="&#xe8;" horiz-adv-x="534" 
d="M121 731h99l77 -143h-58zM289 -11c-3.33301 -1.33301 -6.16699 -1.83398 -8.5 -1.50098s-4.83301 0.5 -7.5 0.5c-77.333 0 -136.333 24.167 -177 72.5s-61 114.833 -61 199.5c0 36 5 70.167 15 102.5s24.333 60.833 43 85.5s41.667 44.334 69 59.001s58 22 92 22
c36 0 67.167 -7.83301 93.5 -23.5s48.333 -36.5 66 -62.5s30.667 -56 39 -90s12.5 -69 12.5 -105v-11h-351v-13c0 -57.333 15.833 -99.333 47.5 -126s74.167 -40 127.5 -40v-69zM386.999 309.999c-2 20 -6.66797 39.166 -14.001 57.499s-17 34.5 -29 48.5
s-26 25.167 -42 33.5s-33.667 12.5 -53 12.5c-20 0 -38.167 -4 -54.5 -12s-30.166 -19.167 -41.499 -33.5s-20.5 -31.166 -27.5 -50.499s-10.833 -40 -11.5 -62h274z" />
    <glyph glyph-name="eacute" unicode="&#xe9;" horiz-adv-x="534" 
d="M278 731h98l-118 -143h-57zM289 -11c-3.33301 -1.33301 -6.16699 -1.83398 -8.5 -1.50098s-4.83301 0.5 -7.5 0.5c-77.333 0 -136.333 24.167 -177 72.5s-61 114.833 -61 199.5c0 36 5 70.167 15 102.5s24.333 60.833 43 85.5s41.667 44.334 69 59.001s58 22 92 22
c36 0 67.167 -7.83301 93.5 -23.5s48.333 -36.5 66 -62.5s30.667 -56 39 -90s12.5 -69 12.5 -105v-11h-351v-13c0 -57.333 15.833 -99.333 47.5 -126s74.167 -40 127.5 -40v-69zM386.999 309.999c-2 20 -6.66797 39.166 -14.001 57.499s-17 34.5 -29 48.5
s-26 25.167 -42 33.5s-33.667 12.5 -53 12.5c-20 0 -38.167 -4 -54.5 -12s-30.166 -19.167 -41.499 -33.5s-20.5 -31.166 -27.5 -50.499s-10.833 -40 -11.5 -62h274z" />
    <glyph glyph-name="ecircumflex" unicode="&#xea;" horiz-adv-x="534" 
d="M200 731h83l94 -143h-76l-62 96l-63 -96h-69zM289 -11c-3.33301 -1.33301 -6.16699 -1.83398 -8.5 -1.50098s-4.83301 0.5 -7.5 0.5c-77.333 0 -136.333 24.167 -177 72.5s-61 114.833 -61 199.5c0 36 5 70.167 15 102.5s24.333 60.833 43 85.5s41.667 44.334 69 59.001
s58 22 92 22c36 0 67.167 -7.83301 93.5 -23.5s48.333 -36.5 66 -62.5s30.667 -56 39 -90s12.5 -69 12.5 -105v-11h-351v-13c0 -57.333 15.833 -99.333 47.5 -126s74.167 -40 127.5 -40v-69zM386.999 309.999c-2 20 -6.66797 39.166 -14.001 57.499s-17 34.5 -29 48.5
s-26 25.167 -42 33.5s-33.667 12.5 -53 12.5c-20 0 -38.167 -4 -54.5 -12s-30.166 -19.167 -41.499 -33.5s-20.5 -31.166 -27.5 -50.499s-10.833 -40 -11.5 -62h274z" />
    <glyph glyph-name="edieresis" unicode="&#xeb;" horiz-adv-x="534" 
d="M129 653c0 12 3.66699 22.167 11 30.5s16.333 12.5 27 12.5c11.333 0 20.666 -4.16699 27.999 -12.5s11 -18.5 11 -30.5s-3.66699 -22.167 -11 -30.5s-16.666 -12.5 -27.999 -12.5c-10.667 0 -19.667 4.16699 -27 12.5s-11 18.5 -11 30.5zM276 653
c0 12 3.66699 22.167 11 30.5s16.666 12.5 27.999 12.5s20.666 -4.16699 27.999 -12.5s11 -18.5 11 -30.5s-3.66699 -22.167 -11 -30.5s-16.666 -12.5 -27.999 -12.5s-20.666 4.16699 -27.999 12.5s-11 18.5 -11 30.5zM289 -11
c-3.33301 -1.33301 -6.16699 -1.83398 -8.5 -1.50098s-4.83301 0.5 -7.5 0.5c-77.333 0 -136.333 24.167 -177 72.5s-61 114.833 -61 199.5c0 36 5 70.167 15 102.5s24.333 60.833 43 85.5s41.667 44.334 69 59.001s58 22 92 22c36 0 67.167 -7.83301 93.5 -23.5
s48.333 -36.5 66 -62.5s30.667 -56 39 -90s12.5 -69 12.5 -105v-11h-351v-13c0 -57.333 15.833 -99.333 47.5 -126s74.167 -40 127.5 -40v-69zM386.999 309.999c-2 20 -6.66797 39.166 -14.001 57.499s-17 34.5 -29 48.5s-26 25.167 -42 33.5s-33.667 12.5 -53 12.5
c-20 0 -38.167 -4 -54.5 -12s-30.166 -19.167 -41.499 -33.5s-20.5 -31.166 -27.5 -50.499s-10.833 -40 -11.5 -62h274z" />
    <glyph glyph-name="igrave" unicode="&#xec;" horiz-adv-x="456" 
d="M250 0h-72h72zM250 0v515l-72 -1v-512v-2h72zM66 731h98l77 -143h-57z" />
    <glyph glyph-name="iacute" unicode="&#xed;" horiz-adv-x="458" 
d="M248 0h-72h72zM248 0v515l-72 -1v-512v-2h72zM266 731h98l-118 -143h-58z" />
    <glyph glyph-name="icircumflex" unicode="&#xee;" horiz-adv-x="456" 
d="M241 0h-72h72zM241 0v515l-72 -1v-512v-2h72zM162 731h84l93 -143h-75l-62 96l-63 -96h-70z" />
    <glyph glyph-name="idieresis" unicode="&#xef;" horiz-adv-x="456" 
d="M244 0h-72h72zM244 0v515l-72 -1v-512v-2h72zM92 665c0 12 3.66699 22.167 11 30.5s16.333 12.5 27 12.5c11.333 0 20.666 -4.16699 27.999 -12.5s11 -18.5 11 -30.5s-3.66699 -22.167 -11 -30.5s-16.666 -12.5 -27.999 -12.5c-10.667 0 -19.667 4.16699 -27 12.5
s-11 18.5 -11 30.5zM239 665c0 12 3.66699 22.167 11 30.5s16.666 12.5 27.999 12.5s20.666 -4.16699 27.999 -12.5s11 -18.5 11 -30.5s-3.66699 -22.167 -11 -30.5s-16.666 -12.5 -27.999 -12.5s-20.666 4.16699 -27.999 12.5s-11 18.5 -11 30.5z" />
    <glyph glyph-name="eth" unicode="&#xf0;" horiz-adv-x="568" 
d="M245 506c23.333 0 46.001 -4.33301 68.001 -13s41 -23 57 -43h2c-5.33301 12.667 -12.166 26.167 -20.499 40.5s-17.333 28.333 -27 42s-19.834 26.5 -30.501 38.5s-21.334 22 -32.001 30l-104 -54l-34 40l98 51c-9.33301 9.33301 -19.333 17.833 -30 25.5
s-21.667 15.167 -33 22.5l63 45c12 -9.33301 23.833 -18.666 35.5 -27.999s23.167 -18.666 34.5 -27.999l108 56l31 -37l-103 -53c54 -49.333 93.5 -106.333 118.5 -171s37.5 -135.334 37.5 -212.001c0 -38.667 -5 -74.5 -15 -107.5s-24.5 -61.5 -43.5 -85.5
s-42.667 -42.833 -71 -56.5s-60.5 -20.5 -96.5 -20.5s-68.167 6.83301 -96.5 20.5s-52 32.5 -71 56.5s-33.5 52.5 -43.5 85.5s-15 68.833 -15 107.5c0 34.667 5 67.167 15 97.5s24.333 56.666 43 78.999s41.167 39.833 67.5 52.5s55.5 19 87.5 19zM254.001 431
c-24 0 -44.8311 -4.33203 -62.498 -12.999s-32.334 -20.834 -44.001 -36.501s-20.334 -34 -26.001 -55s-8.5 -43.833 -8.5 -68.5s2.83301 -48.667 8.5 -72s14.5 -44.166 26.5 -62.499s27.167 -33 45.5 -44s39.833 -16.5 64.5 -16.5s46.167 5.5 64.5 16.5
s33.5 25.667 45.5 44s20.833 39.166 26.5 62.499s8.5 47.333 8.5 72c0 52 -12.833 93.833 -38.5 125.5s-62.5 47.5 -110.5 47.5z" />
    <glyph glyph-name="ntilde" unicode="&#xf1;" 
d="M58 435l73 0.000976562c16.667 32.667 37.834 56.5 63.501 71.5s55.167 22.5 88.5 22.5c57.333 0 98.333 -16.333 123 -49s37 -79.334 37 -140.001v-340h-77v350c0 32 -8.5 57.333 -25.5 76s-39.833 28 -68.5 28c-44.667 0 -78.834 -15 -102.501 -45
s-35.5 -69 -35.5 -117v-292h-76v435zM407 711.001c-4 -33.333 -13.499 -60.1641 -28.499 -80.4971s-38.5 -30.5 -70.5 -30.5c-10 0 -20 2 -30 6s-20 8.5 -30 13.5s-20 9.5 -30 13.5s-20 6 -30 6c-9.33301 0 -18.833 -3.5 -28.5 -10.5s-14.5 -16.167 -14.5 -27.5v-4h-47
c3.33301 13.333 7.5 26.666 12.5 39.999s11.167 25.166 18.5 35.499s16.166 18.666 26.499 24.999s22.833 9.5 37.5 9.5c12.667 0 24.334 -2.16699 35.001 -6.5s21 -9 31 -14s19.833 -9.5 29.5 -13.5s19.834 -6 30.501 -6c11.333 0 20.166 4.66699 26.499 14
s11.166 19.333 14.499 30h47z" />
    <glyph glyph-name="ograve" unicode="&#xf2;" horiz-adv-x="568" 
d="M138 731h98l77 -143h-57zM32 258c0 38.667 5 74.5 15 107.5s24.5 61.667 43.5 86s42.667 43.333 71 57s60.5 20.5 96.5 20.5s68.167 -6.83301 96.5 -20.5s52 -32.667 71 -57s33.5 -53 43.5 -86s15 -68.833 15 -107.5s-5 -74.5 -15 -107.5s-24.5 -61.5 -43.5 -85.5
s-42.667 -42.833 -71 -56.5s-60.5 -20.5 -96.5 -20.5s-68.167 6.83301 -96.5 20.5s-52 32.5 -71 56.5s-33.5 52.5 -43.5 85.5s-15 68.833 -15 107.5zM113 258c0 -24.667 2.83301 -48.667 8.5 -72s14.5 -44.166 26.5 -62.499s27.167 -33 45.5 -44s39.833 -16.5 64.5 -16.5
s46.167 5.5 64.5 16.5s33.5 25.667 45.5 44s20.833 39.166 26.5 62.499s8.5 47.333 8.5 72s-2.83301 48.834 -8.5 72.501s-14.5 44.667 -26.5 63s-27.167 33 -45.5 44s-39.833 16.5 -64.5 16.5s-46.167 -5.5 -64.5 -16.5s-33.5 -25.667 -45.5 -44s-20.833 -39.333 -26.5 -63
s-8.5 -47.834 -8.5 -72.501z" />
    <glyph glyph-name="oacute" unicode="&#xf3;" horiz-adv-x="568" 
d="M281 731h98l-118 -143h-58zM32 258c0 38.667 5 74.5 15 107.5s24.5 61.667 43.5 86s42.667 43.333 71 57s60.5 20.5 96.5 20.5s68.167 -6.83301 96.5 -20.5s52 -32.667 71 -57s33.5 -53 43.5 -86s15 -68.833 15 -107.5s-5 -74.5 -15 -107.5s-24.5 -61.5 -43.5 -85.5
s-42.667 -42.833 -71 -56.5s-60.5 -20.5 -96.5 -20.5s-68.167 6.83301 -96.5 20.5s-52 32.5 -71 56.5s-33.5 52.5 -43.5 85.5s-15 68.833 -15 107.5zM113 258c0 -24.667 2.83301 -48.667 8.5 -72s14.5 -44.166 26.5 -62.499s27.167 -33 45.5 -44s39.833 -16.5 64.5 -16.5
s46.167 5.5 64.5 16.5s33.5 25.667 45.5 44s20.833 39.166 26.5 62.499s8.5 47.333 8.5 72s-2.83301 48.834 -8.5 72.501s-14.5 44.667 -26.5 63s-27.167 33 -45.5 44s-39.833 16.5 -64.5 16.5s-46.167 -5.5 -64.5 -16.5s-33.5 -25.667 -45.5 -44s-20.833 -39.333 -26.5 -63
s-8.5 -47.834 -8.5 -72.501z" />
    <glyph glyph-name="ocircumflex" unicode="&#xf4;" horiz-adv-x="568" 
d="M216 731h84l93 -143h-75l-62 96l-63 -96h-70zM32 258c0 38.667 5 74.5 15 107.5s24.5 61.667 43.5 86s42.667 43.333 71 57s60.5 20.5 96.5 20.5s68.167 -6.83301 96.5 -20.5s52 -32.667 71 -57s33.5 -53 43.5 -86s15 -68.833 15 -107.5s-5 -74.5 -15 -107.5
s-24.5 -61.5 -43.5 -85.5s-42.667 -42.833 -71 -56.5s-60.5 -20.5 -96.5 -20.5s-68.167 6.83301 -96.5 20.5s-52 32.5 -71 56.5s-33.5 52.5 -43.5 85.5s-15 68.833 -15 107.5zM113 258c0 -24.667 2.83301 -48.667 8.5 -72s14.5 -44.166 26.5 -62.499s27.167 -33 45.5 -44
s39.833 -16.5 64.5 -16.5s46.167 5.5 64.5 16.5s33.5 25.667 45.5 44s20.833 39.166 26.5 62.499s8.5 47.333 8.5 72s-2.83301 48.834 -8.5 72.501s-14.5 44.667 -26.5 63s-27.167 33 -45.5 44s-39.833 16.5 -64.5 16.5s-46.167 -5.5 -64.5 -16.5s-33.5 -25.667 -45.5 -44
s-20.833 -39.333 -26.5 -63s-8.5 -47.834 -8.5 -72.501z" />
    <glyph glyph-name="otilde" unicode="&#xf5;" horiz-adv-x="568" 
d="M415 711c-4 -33.333 -13.499 -60.1641 -28.499 -80.4971s-38.5 -30.5 -70.5 -30.5c-10 0 -20 2 -30 6s-20 8.5 -30 13.5s-20 9.5 -30 13.5s-20 6 -30 6c-9.33301 0 -18.833 -3.5 -28.5 -10.5s-14.5 -16.167 -14.5 -27.5v-4h-47c3.33301 13.333 7.5 26.666 12.5 39.999
s11.167 25.166 18.5 35.499s16.166 18.666 26.499 24.999s22.833 9.5 37.5 9.5c12.667 0 24.334 -2.16699 35.001 -6.5s21 -9 31 -14s19.833 -9.5 29.5 -13.5s19.834 -6 30.501 -6c11.333 0 20.166 4.66699 26.499 14s11.166 19.333 14.499 30h47zM32.001 258.002
c0 38.667 5 74.5 15 107.5s24.5 61.667 43.5 86s42.667 43.333 71 57s60.5 20.5 96.5 20.5s68.167 -6.83301 96.5 -20.5s52 -32.667 71 -57s33.5 -53 43.5 -86s15 -68.833 15 -107.5s-5 -74.5 -15 -107.5s-24.5 -61.5 -43.5 -85.5s-42.667 -42.833 -71 -56.5
s-60.5 -20.5 -96.5 -20.5s-68.167 6.83301 -96.5 20.5s-52 32.5 -71 56.5s-33.5 52.5 -43.5 85.5s-15 68.833 -15 107.5zM113.001 258.002c0 -24.667 2.83301 -48.667 8.5 -72s14.5 -44.166 26.5 -62.499s27.167 -33 45.5 -44s39.833 -16.5 64.5 -16.5s46.167 5.5 64.5 16.5
s33.5 25.667 45.5 44s20.833 39.166 26.5 62.499s8.5 47.333 8.5 72s-2.83301 48.834 -8.5 72.501s-14.5 44.667 -26.5 63s-27.167 33 -45.5 44s-39.833 16.5 -64.5 16.5s-46.167 -5.5 -64.5 -16.5s-33.5 -25.667 -45.5 -44s-20.833 -39.333 -26.5 -63
s-8.5 -47.834 -8.5 -72.501z" />
    <glyph glyph-name="odieresis" unicode="&#xf6;" horiz-adv-x="568" 
d="M302 696h81v-104h-81v104zM133 696h81v-104h-81v104zM32 258c0 38.667 5 74.5 15 107.5s24.5 61.667 43.5 86s42.667 43.333 71 57s60.5 20.5 96.5 20.5s68.167 -6.83301 96.5 -20.5s52 -32.667 71 -57s33.5 -53 43.5 -86s15 -68.833 15 -107.5s-5 -74.5 -15 -107.5
s-24.5 -61.5 -43.5 -85.5s-42.667 -42.833 -71 -56.5s-60.5 -20.5 -96.5 -20.5s-68.167 6.83301 -96.5 20.5s-52 32.5 -71 56.5s-33.5 52.5 -43.5 85.5s-15 68.833 -15 107.5zM113 258c0 -24.667 2.83301 -48.667 8.5 -72s14.5 -44.166 26.5 -62.499s27.167 -33 45.5 -44
s39.833 -16.5 64.5 -16.5s46.167 5.5 64.5 16.5s33.5 25.667 45.5 44s20.833 39.166 26.5 62.499s8.5 47.333 8.5 72s-2.83301 48.834 -8.5 72.501s-14.5 44.667 -26.5 63s-27.167 33 -45.5 44s-39.833 16.5 -64.5 16.5s-46.167 -5.5 -64.5 -16.5s-33.5 -25.667 -45.5 -44
s-20.833 -39.333 -26.5 -63s-8.5 -47.834 -8.5 -72.501z" />
    <glyph glyph-name="divide" unicode="&#xf7;" horiz-adv-x="591" 
d="M43 287h454v-68h-454v68zM212 459c0 17.333 5.66602 32.333 16.999 45s25 19 41 19c15.333 0 28.833 -6.33301 40.5 -19s17.5 -27.667 17.5 -45c0 -16.667 -5.66699 -31.5 -17 -44.5s-24.666 -19.5 -39.999 -19.5c-16 0 -29.833 6.33301 -41.5 19s-17.5 27.667 -17.5 45z
M211.999 47c0 17.333 5.66602 32.333 16.999 45s25 19 41 19c15.333 0 28.833 -6.33301 40.5 -19s17.5 -27.667 17.5 -45c0 -16.667 -5.66699 -31.5 -17 -44.5s-24.666 -19.5 -39.999 -19.5c-16 0 -29.833 6.33301 -41.5 19s-17.5 27.667 -17.5 45z" />
    <glyph glyph-name="oslash" unicode="&#xf8;" horiz-adv-x="568" 
d="M358 407c-13.333 15.333 -28.499 27 -45.499 35s-35.167 12 -54.5 12c-24.667 0 -46.167 -5.5 -64.5 -16.5s-33.5 -25.667 -45.5 -44s-20.833 -39.333 -26.5 -63s-8.5 -47.834 -8.5 -72.501c0 -21.333 2.16699 -42.166 6.5 -62.499s11.166 -39.833 20.499 -58.5z
M160.001 108c26.667 -30 59.333 -44.999 98 -44.999c24.667 0 46.167 5.5 64.5 16.5s33.5 25.667 45.5 44s20.833 39.166 26.5 62.499s8.5 47.333 8.5 72c0 20.667 -1.83301 41.167 -5.5 61.5s-10.167 39.5 -19.5 57.5zM432 443.001
c19.333 -25.333 32.832 -54.332 40.499 -86.999s11.5 -65.334 11.5 -98.001c0 -38.667 -5 -74.5 -15 -107.5s-24.5 -61.5 -43.5 -85.5s-42.667 -42.833 -71 -56.5s-60.5 -20.5 -96.5 -20.5c-27.333 0 -53.833 4.5 -79.5 13.5s-48.5 23.5 -68.5 43.5l-54 -67l-25 24l55 69
c-19.333 26 -33.166 55.167 -41.499 87.5s-12.5 65.5 -12.5 99.5c0 38.667 5 74.5 15 107.5s24.5 61.667 43.5 86s42.667 43.333 71 57s60.5 20.5 96.5 20.5c28 0 55 -4.5 81 -13.5s49.333 -24.167 70 -45.5l53 65l24 -26z" />
    <glyph glyph-name="ugrave" unicode="&#xf9;" 
d="M130 731h98l77 -143h-58zM353 518l0.00195312 -340.998c0 -16 -3.5 -31 -10.5 -45s-16.333 -26.333 -28 -37s-25.167 -19 -40.5 -25s-31 -9 -47 -9c-32 0 -57.667 11.333 -77 34s-29 50 -29 82v341h-78v-325c2.66699 -72.667 19.167 -125.334 49.5 -158.001
s75.166 -49 134.499 -49c63.333 0 112.666 17.667 147.999 53s53 86.666 53 153.999v325h-75z" />
    <glyph glyph-name="uacute" unicode="&#xfa;" 
d="M273 731h98l-118 -143h-58zM353 518l0.00195312 -340.998c0 -16 -3.5 -31 -10.5 -45s-16.333 -26.333 -28 -37s-25.167 -19 -40.5 -25s-31 -9 -47 -9c-32 0 -57.667 11.333 -77 34s-29 50 -29 82v341h-78v-325c2.66699 -72.667 19.167 -125.334 49.5 -158.001
s75.166 -49 134.499 -49c63.333 0 112.666 17.667 147.999 53s53 86.666 53 153.999v325h-75z" />
    <glyph glyph-name="ucircumflex" unicode="&#xfb;" 
d="M208 731h84l93 -143h-75l-63 96l-63 -96h-69zM353 518l0.00195312 -340.998c0 -16 -3.5 -31 -10.5 -45s-16.333 -26.333 -28 -37s-25.167 -19 -40.5 -25s-31 -9 -47 -9c-32 0 -57.667 11.333 -77 34s-29 50 -29 82v341h-78v-325
c2.66699 -72.667 19.167 -125.334 49.5 -158.001s75.166 -49 134.499 -49c63.333 0 112.666 17.667 147.999 53s53 86.666 53 153.999v325h-75z" />
    <glyph glyph-name="udieresis" unicode="&#xfc;" 
d="M294 696h81v-104h-81v104zM125 696h81v-104h-81v104zM353 518l0.00195312 -340.998c0 -16 -3.5 -31 -10.5 -45s-16.333 -26.333 -28 -37s-25.167 -19 -40.5 -25s-31 -9 -47 -9c-32 0 -57.667 11.333 -77 34s-29 50 -29 82v341h-78v-325
c2.66699 -72.667 19.167 -125.334 49.5 -158.001s75.166 -49 134.499 -49c63.333 0 112.666 17.667 147.999 53s53 86.666 53 153.999v325h-75z" />
    <glyph glyph-name="yacute" unicode="&#xfd;" horiz-adv-x="501" 
d="M247 731h99l-118 -143h-58zM194 -204l-54 29l54 174l-152 439h79l108 -344h2l134 423h79z" />
    <glyph glyph-name="thorn" unicode="&#xfe;" horiz-adv-x="585" 
d="M420 263c0 24.667 -2.83594 48.498 -8.50293 71.498s-14.5 43.333 -26.5 61s-27 31.834 -45 42.501s-39.333 16 -64 16c-25.333 0 -47 -5.5 -65 -16.5s-32.667 -25.667 -44 -44s-19.666 -39.166 -24.999 -62.499s-8 -47.333 -8 -72c0 -26 2.83301 -50.833 8.5 -74.5
s14.334 -44.5 26.001 -62.5s26.834 -32.333 45.501 -43s41 -16 67 -16s47.833 5.66699 65.5 17s32 26.5 43 45.5s18.833 40.333 23.5 64s7 48.167 7 73.5zM136.997 446.998l1.99805 0.000976562c6.66699 15.333 15.5 28.166 26.5 38.499s23 18.833 36 25.5
s26.833 11.334 41.5 14.001s29.334 4 44.001 4c35.333 0 66.333 -7.33301 93 -22s49 -34.5 67 -59.5s31.5 -53.833 40.5 -86.5s13.5 -67.334 13.5 -104.001s-4.5 -71.334 -13.5 -104.001s-22.333 -61.167 -40 -85.5s-39.667 -43.666 -66 -57.999
s-57.166 -21.5 -92.499 -21.5c-28.667 0 -57 6.5 -85 19.5s-49.667 33.5 -65 61.5h-2v-267h-77v912h77v-267z" />
    <glyph glyph-name="ydieresis" unicode="&#xff;" horiz-adv-x="501" 
d="M269 696h81v-104h-81v104zM100 696h81v-104h-81v104zM194 -204l-54 29l54 174l-152 439h79l108 -344h2l134 423h79z" />
    <glyph glyph-name="dotlessi" unicode="&#x131;" horiz-adv-x="251" 
d="M62 0v517h77v-517h-77z" />
    <glyph glyph-name="Lslash" unicode="&#x141;" 
d="M70 240l-71 -56v76l71 56v398h86v-330l205 160v-76l-205 -160v-228h340v-80h-426v240z" />
    <glyph glyph-name="lslash" unicode="&#x142;" horiz-adv-x="251" 
d="M62 321l-63 -55v71l63 56v321h77v-254l63 56v-71l-63 -56v-389h-77v321z" />
    <glyph glyph-name="OE" unicode="&#x152;" horiz-adv-x="945" 
d="M576 715h273v-61h-205v-251h205v-67h-205v-272h205v-63h-273v122c-25.333 -40 -58 -71.667 -98 -95s-86.333 -35 -139 -35c-48 0 -90.667 9.5 -128 28.5s-68.833 45 -94.5 78s-45.167 71.667 -58.5 116s-20 91.5 -20 141.5c0 50.667 6.66699 98.167 20 142.5
s32.833 83 58.5 116s57.167 59.167 94.5 78.5s80 29 128 29c52.667 0 99 -11.667 139 -35s72.667 -55 98 -95v122zM109 359c0 -39.333 4.83301 -77.5 14.5 -114.5s24 -69.667 43 -98s42.833 -51 71.5 -68s62 -25.5 100 -25.5c39.333 0 73.5 8.5 102.5 25.5s53 39.667 72 68
s33.167 61 42.5 98s14 75.167 14 114.5c0 38.667 -4.66699 76.334 -14 113.001s-23.5 69.334 -42.5 98.001s-43 51.5 -72 68.5s-63.167 25.5 -102.5 25.5c-38 0 -71.333 -8.5 -100 -25.5s-52.5 -39.833 -71.5 -68.5s-33.333 -61.334 -43 -98.001
s-14.5 -74.334 -14.5 -113.001z" />
    <glyph glyph-name="oe" unicode="&#x153;" horiz-adv-x="949" 
d="M666 -13l-9.00195 -1.00195c-52 0 -95 9.83301 -129 29.5s-60.667 46.5 -80 80.5c-19.333 -33.333 -44.5 -59.666 -75.5 -78.999s-68.5 -29 -112.5 -29c-36 0 -68.167 6.83301 -96.5 20.5s-52 32.5 -71 56.5s-33.5 52.5 -43.5 85.5s-15 68.833 -15 107.5s5 74.5 15 107.5
s24.5 61.667 43.5 86s42.667 43.333 71 57s60.5 20.5 96.5 20.5c44.667 0 82.834 -10.167 114.501 -30.5s56.834 -47.833 75.501 -82.5c18 32.667 42 59.334 72 80.001s66.333 31 109 31c40 0 73.5 -9 100.5 -27s48.667 -41 65 -69s28 -59.333 35 -94
s10.5 -68.667 10.5 -102h-351v-13c0 -56.667 15.667 -98.5 47 -125.5s74 -40.5 128 -40.5v-69zM108.998 257.998c0 -26 3 -51.167 9 -75.5s15.333 -46 28 -65s28.334 -34.167 47.001 -45.5s41 -17 67 -17s48.333 5.66699 67 17s34.334 26.5 47.001 45.5s22 40.667 28 65
s9 49.5 9 75.5s-3 51.167 -9 75.5s-15.333 46 -28 65s-28.334 34.333 -47.001 46s-41 17.5 -67 17.5s-48.333 -5.83301 -67 -17.5s-34.334 -27 -47.001 -46s-22 -40.667 -28 -65s-9 -49.5 -9 -75.5zM625.998 459.998c-22 0 -41.1689 -4.5 -57.502 -13.5
s-30.166 -21 -41.499 -36s-20 -32 -26 -51s-9.33301 -38.167 -10 -57.5h274c-3.33301 18.667 -8.16602 37.5 -14.499 56.5s-14.833 36 -25.5 51s-24.167 27.167 -40.5 36.5s-35.833 14 -58.5 14z" />
    <glyph glyph-name="Scaron" unicode="&#x160;" horiz-adv-x="634" 
d="M442 505c-5.33301 51.333 -22.1719 88.4951 -50.5049 111.495s-64.5 34.5 -108.5 34.5c-18 0 -35.667 -2 -53 -6s-32.666 -10.667 -45.999 -20s-24.166 -21.833 -32.499 -37.5s-12.5 -35.167 -12.5 -58.5c0 -22 5.83301 -39.667 17.5 -53s27.167 -24.333 46.5 -33
s41.333 -16 66 -22s49.834 -12.333 75.501 -19s50.834 -14.5 75.501 -23.5s46.667 -21.167 66 -36.5s34.833 -34.666 46.5 -57.999s17.5 -52.666 17.5 -87.999c0 -38 -7.5 -70.333 -22.5 -97s-34.5 -48.667 -58.5 -66s-51 -30 -81 -38s-59.667 -12 -89 -12
c-35.333 0 -69.166 5 -101.499 15s-60.666 25.333 -84.999 46s-43.666 46.834 -57.999 78.501s-21.5 69.167 -21.5 112.5h81c0 -30 5.16699 -55.833 15.5 -77.5s24.333 -39.5 42 -53.5s37.667 -24.333 60 -31s45.5 -10 69.5 -10c19.333 0 38.666 2 57.999 6
s36.833 10.833 52.5 20.5s28.334 22.834 38.001 39.501s14.5 38 14.5 64c0 24.667 -5.83301 44.667 -17.5 60s-27.167 28 -46.5 38s-41.333 18 -66 24s-49.834 12 -75.501 18s-50.834 13.167 -75.501 21.5s-46.667 19.333 -66 33s-34.833 31.334 -46.5 53.001
s-17.5 48.834 -17.5 81.501c0 36 6.66699 67.167 20 93.5s31 48 53 65s46.833 29.667 74.5 38s56.167 12.5 85.5 12.5c32.667 0 63.334 -4.5 92.001 -13.5s53.5 -22.667 74.5 -41s37.667 -41.833 50 -70.5s19.166 -62.334 20.499 -101.001h-81zM333.994 764.995h-84l-93 143
h75l62 -96l63 96h70z" />
    <glyph glyph-name="scaron" unicode="&#x161;" horiz-adv-x="501" 
d="M104 163c0.666992 -19.333 4.83203 -35.332 12.499 -47.999s17.334 -22.834 29.001 -30.501s24.834 -13.167 39.501 -16.5s29.334 -5 44.001 -5c11.333 0 23.666 0.833008 36.999 2.5s25.666 5.33398 36.999 11.001s20.666 13.5 27.999 23.5s11 23.333 11 40
c0 22 -7.5 38.667 -22.5 50s-33.833 20.5 -56.5 27.5s-47 13.167 -73 18.5s-50.333 13.333 -73 24s-41.5 25.334 -56.5 44.001s-22.5 44.667 -22.5 78c0 26 5.16699 48.333 15.5 67s23.833 33.834 40.5 45.501s35.334 20.334 56.001 26.001s41 8.5 61 8.5
c25.333 0 49.333 -2.5 72 -7.5s42.5 -13.667 59.5 -26s30.667 -28.833 41 -49.5s16.5 -47 18.5 -79h-76c-1.33301 16 -5.33301 29.5 -12 40.5s-15 20 -25 27s-21.167 12 -33.5 15s-24.833 4.5 -37.5 4.5c-10 0 -20.667 -0.833008 -32 -2.5s-22 -4.83398 -32 -9.50098
s-18.333 -11.334 -25 -20.001s-10 -20 -10 -34c0 -20 7.5 -35.167 22.5 -45.5s33.833 -18.833 56.5 -25.5s47 -12.834 73 -18.501s50.333 -14 73 -25s41.5 -26 56.5 -45s22.5 -44.833 22.5 -77.5c0 -31.333 -5.83301 -57.333 -17.5 -78s-27 -37.334 -46 -50.001
s-40.333 -21.667 -64 -27s-47.167 -8 -70.5 -8c-26 0 -50.667 3.16699 -74 9.5s-44 16.333 -62 30s-32.5 31.667 -43.5 54s-16.833 49.5 -17.5 81.5h76zM266.998 588.001h-83l-94 143h76l62 -96l63 96h69z" />
    <glyph glyph-name="Ydieresis" unicode="&#x178;" horiz-adv-x="634" 
d="M336 292v-292h-86v292l-248 422h101l193 -340l188 340h97zM336 873h81v-104h-81v104zM166 873h81v-104h-81v104z" />
    <glyph glyph-name="Zcaron" unicode="&#x17d;" horiz-adv-x="601" 
d="M318 765h-84l-94 143h76l62 -96l63 96h69zM20 80l411 572h-349v62h413v-80l-403 -573h393v-61h-465v80z" />
    <glyph glyph-name="zcaron" unicode="&#x17e;" horiz-adv-x="483" 
d="M258 588h-83l-94 143h76l62 -96l63 96h69zM0 65l281 377h-117v75h216v-58l-285 -384h297v-75h-392v65z" />
    <glyph glyph-name="florin" unicode="&#x192;" 
d="M430 639c-34 0 -58.8311 -2.83594 -74.498 -8.50293s-26.834 -15.667 -33.501 -30s-11.334 -33.666 -14.001 -57.999s-7.66699 -55.5 -15 -93.5h92l-12 -68h-90l-50 -311c-5.33301 -30 -11 -59.167 -17 -87.5s-15 -53.5 -27 -75.5s-28 -39.5 -48 -52.5
s-46.333 -19.5 -79 -19.5h-59l12 75c22 0 40.167 0.666992 54.5 2s26 5.33301 35 12s16.167 16.834 21.5 30.501s10 32.834 14 57.501l63 369h-82l11 68h82c4.66699 28.667 9.33398 58.667 14.001 90s12.167 60 22.5 86s25.166 47.333 44.499 64s46.333 25 81 25h67z" />
    <glyph glyph-name="circumflex" unicode="&#x2c6;" horiz-adv-x="251" 
d="M58 731h83l94 -143h-76l-62 96l-63 -96h-69z" />
    <glyph glyph-name="caron" unicode="&#x2c7;" horiz-adv-x="251" 
d="M142 588h-84l-93 143h75l63 -96l63 96h69z" />
    <glyph glyph-name="ring" unicode="&#x2da;" horiz-adv-x="251" 
d="M39 662c0 -19.333 5.83301 -35.5 17.5 -48.5s26.167 -19.5 43.5 -19.5s31.833 6.5 43.5 19.5s17.5 29.167 17.5 48.5s-5.83301 35.5 -17.5 48.5s-26.167 19.5 -43.5 19.5s-31.833 -6.5 -43.5 -19.5s-17.5 -29.167 -17.5 -48.5zM-2 662c0 15.333 2.66699 29.833 8 43.5
s12.666 25.667 21.999 36s20.166 18.5 32.499 24.5s25.5 9 39.5 9s27.167 -3 39.5 -9s23.166 -14.167 32.499 -24.5s16.666 -22.333 21.999 -36s8 -28.167 8 -43.5s-2.66699 -29.833 -8 -43.5s-12.666 -25.667 -21.999 -36s-20.166 -18.5 -32.499 -24.5s-25.5 -9 -39.5 -9
s-27.167 3 -39.5 9s-23.166 14.167 -32.499 24.5s-16.666 22.333 -21.999 36s-8 28.167 -8 43.5z" />
    <glyph glyph-name="ogonek" unicode="&#x2db;" horiz-adv-x="251" 
d="M207 3c-7.33301 -7.33301 -15.5 -15.333 -24.5 -24s-17.333 -18.334 -25 -29.001s-14.167 -21.667 -19.5 -33s-8 -23 -8 -35c0 -11.333 2.83301 -21.166 8.5 -29.499s14.167 -12.5 25.5 -12.5c23.333 0 42 10 56 30l28 -18c-10 -20.667 -23.333 -36.167 -40 -46.5
s-35.667 -15.5 -57 -15.5c-24 0 -43.833 6.16699 -59.5 18.5s-23.5 33.5 -23.5 63.5c0 13.333 3.66699 26.5 11 39.5s16.333 25.333 27 37s22 22.167 34 31.5s22.333 17 31 23h36z" />
    <glyph glyph-name="tilde" unicode="&#x2dc;" horiz-adv-x="251" 
d="M256 711c-4 -33.333 -13.501 -60.1641 -28.501 -80.4971s-38.5 -30.5 -70.5 -30.5c-9.33301 0 -19 2 -29 6s-20 8.5 -30 13.5s-20 9.5 -30 13.5s-20 6 -30 6c-9.33301 0 -18.833 -3.5 -28.5 -10.5s-14.5 -16.167 -14.5 -27.5v-4h-47
c3.33301 13.333 7.33301 26.666 12 39.999s10.667 25.166 18 35.499s16.166 18.666 26.499 24.999s22.833 9.5 37.5 9.5c12.667 0 24.334 -2.16699 35.001 -6.5s21 -9 31 -14s19.833 -9.5 29.5 -13.5s19.834 -6 30.501 -6c11.333 0 20.333 4.66699 27 14
s11.667 19.333 15 30h46z" />
    <glyph glyph-name="hungarumlaut" unicode="&#x2dd;" horiz-adv-x="251" 
d="M30 731h94l-108 -143h-59zM170 731h95l-108 -143h-60z" />
    <glyph glyph-name="endash" unicode="&#x2013;" horiz-adv-x="501" 
d="M0 318h450v-80h-450v80z" />
    <glyph glyph-name="emdash" unicode="&#x2014;" horiz-adv-x="951" 
d="M117 318h666v-80h-666v80z" />
    <glyph glyph-name="quoteleft" unicode="&#x2018;" horiz-adv-x="251" 
d="M58 470v98c0 18.667 1.5 36.5 4.5 53.5s8.16699 32.333 15.5 46s17 25.5 29 35.5s27 17.333 45 22v-255h-94z" />
    <glyph glyph-name="quoteright" unicode="&#x2019;" horiz-adv-x="251" 
d="M141 718v-98c0 -18.667 -1.5 -36.5 -4.5 -53.5s-8 -32.333 -15 -46s-16.5 -25.5 -28.5 -35.5s-27 -17.333 -45 -22v255h93z" />
    <glyph glyph-name="quotesinglbase" unicode="&#x201a;" horiz-adv-x="251" 
d="M48 106h93v-98c0 -18.667 -1.5 -36.5 -4.5 -53.5s-8 -32.333 -15 -46s-16.5 -25.5 -28.5 -35.5s-27 -17.333 -45 -22v255z" />
    <glyph glyph-name="quotedblleft" unicode="&#x201c;" horiz-adv-x="351" 
d="M183 470v98c0 18.667 1.5 36.5 4.5 53.5s8 32.333 15 46s16.5 25.5 28.5 35.5s27 17.333 45 22v-255h-93zM34 470v98c0 18.667 1.5 36.5 4.5 53.5s8.16699 32.333 15.5 46s17 25.5 29 35.5s27 17.333 45 22v-255h-94z" />
    <glyph glyph-name="quotedblright" unicode="&#x201d;" horiz-adv-x="351" 
d="M117 718v-98c0 -18.667 -1.5 -36.5 -4.5 -53.5s-8.16699 -32.333 -15.5 -46s-17 -25.5 -29 -35.5s-27 -17.333 -45 -22v255h94zM265 718v-98c0 -18.667 -1.5 -36.5 -4.5 -53.5s-8 -32.333 -15 -46s-16.5 -25.5 -28.5 -35.5s-27 -17.333 -45 -22v255h93z" />
    <glyph glyph-name="quotedblbase" unicode="&#x201e;" horiz-adv-x="351" 
d="M23 106h94v-98c0 -18.667 -1.5 -36.5 -4.5 -53.5s-8.16699 -32.333 -15.5 -46s-17 -25.5 -29 -35.5s-27 -17.333 -45 -22v255zM172 106h93v-98c0 -18.667 -1.5 -36.5 -4.5 -53.5s-8 -32.333 -15 -46s-16.5 -25.5 -28.5 -35.5s-27 -17.333 -45 -22v255z" />
    <glyph glyph-name="dagger" unicode="&#x2020;" 
d="M212 442h-174v75h174v197h72v-197h179v-75h-179v-597h-72v597z" />
    <glyph glyph-name="daggerdbl" unicode="&#x2021;" 
d="M212 42h-174v75h174v325h-174v75h174v197h72v-197h179v-75h-179v-325h179v-75h-179v-197h-72v197z" />
    <glyph glyph-name="bullet" unicode="&#x2022;" horiz-adv-x="501" 
d="M65 357c0 24.667 4.16699 47.834 12.5 69.501s19.833 40.5 34.5 56.5s31.667 28.667 51 38s40 14 62 14s42.833 -4.66699 62.5 -14s36.667 -22 51 -38s25.833 -34.833 34.5 -56.5s13 -44.834 13 -69.501s-4.16699 -47.834 -12.5 -69.501s-19.833 -40.667 -34.5 -57
s-31.834 -29.166 -51.501 -38.499s-40.5 -14 -62.5 -14s-42.833 4.66699 -62.5 14s-36.667 22.166 -51 38.499s-25.666 35.333 -33.999 57s-12.5 44.834 -12.5 69.501z" />
    <glyph glyph-name="ellipsis" unicode="&#x2026;" horiz-adv-x="951" 
d="M229 0h-94v106h94v-106zM427 0h-93v106h93v-106zM620 0h-94v106h94v-106z" />
    <glyph glyph-name="perthousand" unicode="&#x2030;" horiz-adv-x="1084" 
d="M65 535c0 24 2.5 46.667 7.5 68s12.667 39.833 23 55.5s24 28 41 37s37.5 13.5 61.5 13.5c23.333 0 43.333 -4.33301 60 -13s30.167 -20.5 40.5 -35.5s18 -32.833 23 -53.5s7.5 -43 7.5 -67c0 -23.333 -2.5 -45.5 -7.5 -66.5s-13 -39.333 -24 -55s-24.833 -28 -41.5 -37
s-36.667 -13.5 -60 -13.5s-43.333 4.16699 -60 12.5s-30.167 20 -40.5 35s-18 32.667 -23 53s-7.5 42.5 -7.5 66.5zM132 538c0 -12 0.664062 -24.832 1.99707 -38.499s4.33301 -26.167 9 -37.5s11.334 -20.666 20.001 -27.999s20 -11 34 -11c13.333 0 24.333 3.66699 33 11
s15.334 16.666 20.001 27.999s7.83398 23.666 9.50098 36.999s2.5 26 2.5 38c0 10.667 -0.833008 22.834 -2.5 36.501s-4.66699 26.5 -9 38.5s-10.5 22 -18.5 30s-18.333 12 -31 12c-14 0 -25.333 -3.66699 -34 -11s-15.667 -16.833 -21 -28.5s-9 -24.334 -11 -38.001
s-3 -26.5 -3 -38.5zM392.997 155.001c0 24 2.50098 46.667 7.50098 68s12.667 39.833 23 55.5s24 28 41 37s37.5 13.5 61.5 13.5s44.333 -4.33301 61 -13s30.167 -20.5 40.5 -35.5s18 -32.833 23 -53.5s7.5 -43 7.5 -67c0 -23.333 -2.66699 -45.5 -8 -66.5
s-13.333 -39.333 -24 -55s-24.5 -28 -41.5 -37s-36.833 -13.5 -59.5 -13.5c-23.333 0 -43.333 4.16699 -60 12.5s-30.334 20 -41.001 35s-18.5 32.667 -23.5 53s-7.5 42.5 -7.5 66.5zM460.998 158.001c0 -12 0.666016 -24.832 1.99902 -38.499s4.33301 -26.167 9 -37.5
s11.334 -20.666 20.001 -27.999s20 -11 34 -11c13.333 0 24.166 3.66699 32.499 11s14.833 16.666 19.5 27.999s7.83398 23.666 9.50098 36.999s2.5 26 2.5 38c0 10.667 -0.833008 22.834 -2.5 36.501s-4.66699 26.5 -9 38.5s-10.5 22 -18.5 30s-18.333 12 -31 12
c-14 0 -25.333 -3.66699 -34 -11s-15.5 -16.833 -20.5 -28.5s-8.5 -24.334 -10.5 -38.001s-3 -26.5 -3 -38.5zM703.997 155.002c0 24 2.5 46.667 7.5 68s12.667 39.833 23 55.5s24 28 41 37s37.5 13.5 61.5 13.5c23.333 0 43.333 -4.33301 60 -13s30.167 -20.5 40.5 -35.5
s18 -32.833 23 -53.5s7.5 -43 7.5 -67c0 -23.333 -2.5 -45.5 -7.5 -66.5s-13 -39.333 -24 -55s-24.833 -28 -41.5 -37s-36.667 -13.5 -60 -13.5s-43.333 4.16699 -60 12.5s-30.167 20 -40.5 35s-18 32.667 -23 53s-7.5 42.5 -7.5 66.5zM770.997 158.002
c0 -12 0.664062 -24.832 1.99707 -38.499s4.33301 -26.167 9 -37.5s11.334 -20.666 20.001 -27.999s20 -11 34 -11c13.333 0 24.333 3.66699 33 11s15.334 16.666 20.001 27.999s7.83398 23.666 9.50098 36.999s2.5 26 2.5 38c0 10.667 -0.833008 22.834 -2.5 36.501
s-4.66699 26.5 -9 38.5s-10.5 22 -18.5 30s-18.333 12 -31 12c-14 0 -25.333 -3.66699 -34 -11s-15.667 -16.833 -21 -28.5s-9 -24.334 -11 -38.001s-3 -26.5 -3 -38.5zM564.994 722.003h77l-484 -744h-77z" />
    <glyph glyph-name="guilsinglleft" unicode="&#x2039;" horiz-adv-x="284" 
d="M45 234v88l137 120v-86l-90 -78l90 -78v-86z" />
    <glyph glyph-name="guilsinglright" unicode="&#x203a;" horiz-adv-x="284" 
d="M188 322v-88l-137 -120v86l90 78l-90 78v86z" />
    <glyph glyph-name="fraction" unicode="&#x2044;" horiz-adv-x="201" 
d="M289 734c8 0 14.9951 -3.16699 20.9951 -9.5s9 -14.166 9 -23.499c0 -2.66699 -3.16699 -13.667 -9.5 -33s-14.833 -44 -25.5 -74s-23 -63.833 -37 -101.5s-28.333 -76.5 -43 -116.5s-29.167 -79.5 -43.5 -118.5s-27.5 -74.833 -39.5 -107.5s-22.333 -60.5 -31 -83.5
s-14.334 -38.167 -17.001 -45.5v-2c0 -2.66699 -1.33301 -5.16699 -4 -7.5s-5.66699 -4.33301 -9 -6s-6.66602 -3 -9.99902 -4s-5.66602 -1.5 -6.99902 -1.5c-9.33301 0 -16.666 3 -21.999 9s-8 14 -8 24c0 2 3.16699 12.5 9.5 31.5s15 43.667 26 74s23.333 64.5 37 102.5
s27.834 77.167 42.501 117.5s29.334 80.166 44.001 119.499s28 75.333 40 108s22.333 60.5 31 83.5s14.334 38.167 17.001 45.5c6 5.33301 10 9.83301 12 13.5s7.66699 5.5 17 5.5z" />
    <glyph glyph-name="Euro" unicode="&#x20ac;" horiz-adv-x="478" 
d="M176 234c13.333 -55.333 37.002 -98.834 71.002 -130.501s77 -47.5 129 -47.5l-7 -77c-74.667 0 -135.834 22.5 -183.501 67.5s-79.167 107.5 -94.5 187.5h-57v71h49c-0.666992 5.33301 -1 11 -1 17v17v15.5c0 5 0.333008 10.167 1 15.5h-49v71h58
c7.33301 39.333 19.5 75 36.5 107s37.667 59.5 62 82.5s52.166 40.667 83.499 53s65.333 18.5 102 18.5l-1 -78c-54 0 -97.833 -16.333 -131.5 -49s-56.5 -77.334 -68.5 -134.001h144v-71h-153c-0.666992 -3.33301 -1 -6.83301 -1 -10.5v-10.5
c0 -7.33301 -0.166992 -14.666 -0.5 -21.999s0.166992 -14.666 1.5 -21.999h153v-71h-143z" />
    <glyph glyph-name="trademark" unicode="&#x2122;" horiz-adv-x="942" 
d="M314 659h-62v-357h-61v357h-64v55h187v-55zM796 368h-62v278l-123 -344h-39l-121 344h-2v-344h-61v412h94l111 -313l109 313h94v-346z" />
    <glyph glyph-name="fi" unicode="&#xfb01;" horiz-adv-x="586" 
d="M380 275c-2 0 -5.99707 0.499023 -11.9971 1.49902s-12 2.5 -18 4.5s-11.5 4.33301 -16.5 7s-7.5 5.33398 -7.5 8.00098c0 14.667 2.5 29.167 7.5 43.5s7.5 28.5 7.5 42.5v1c-2.66699 0 -5.83398 -5.16699 -9.50098 -15.5s-7 -22 -10 -35s-5.66699 -25.5 -8 -37.5
s-3.5 -20 -3.5 -24c0 -9.33301 2 -17.833 6 -25.5s6.66699 -15.5 8 -23.5l-8 4c-3.33301 -2 -5 -5.33301 -5 -10c0 -1.33301 0.166992 -2.33301 0.5 -3s0.5 -1.33398 0.5 -2.00098h-3c-4 4 -7 10 -9 18s-3.5 16.833 -4.5 26.5s-1.5 19 -1.5 28v22.5c0 6 1.5 16.333 4.5 31
s6.83301 29.667 11.5 45s10 29.333 16 42s12.333 20 19 22c4 1.33301 10 2.83301 18 4.5s12 5.5 12 11.5c0 8.66699 -2.66699 14.667 -8 18l-1 14c-0.666992 9.33301 1.66602 17 6.99902 23s11.666 9 18.999 9c8.66699 0 14.667 -4.5 18 -13.5s5 -17.167 5 -24.5
c0 -6 -1 -12 -3 -18s-4 -11.667 -6 -17c12.667 -7.33301 22.834 -14.833 30.501 -22.5s13.5 -15.667 17.5 -24s6.5 -17.5 7.5 -27.5s1.5 -21 1.5 -33c0 -10 0.166992 -21 0.5 -33s0 -24.167 -1 -36.5s-3.33301 -24.166 -7 -35.499s-9.5 -21.333 -17.5 -30l1 24
c-1.33301 -4 -3 -7 -5 -9v6c0 10 2 17.5 6 22.5s6 12.167 6 21.5c0 4 -0.166992 11.833 -0.5 23.5s-1 23.667 -2 36s-2.5 23.5 -4.5 33.5s-4.33301 15.333 -7 16l-5 -8c-2.66699 -10 -4.33398 -21 -5.00098 -33s-2 -23 -4 -33s-5.66699 -18.5 -11 -25.5
s-14.333 -10.5 -27 -10.5zM419.003 281.999c5.33301 -15.333 7.66699 -30.666 7 -45.999s-1 -31.333 -1 -48c0 -23.333 -0.5 -46.833 -1.5 -70.5s-3.5 -45.5 -7.5 -65.5c-1.33301 -7.33301 -2.83301 -14.666 -4.5 -21.999s-2.5 -14.666 -2.5 -21.999
c0 -6 3.16699 -13.333 9.5 -22s9.5 -16.667 9.5 -24c0 -2.66699 -1.33301 -4 -4 -4l-11 6l-10 13c-4 0.666992 -6.83301 11.167 -8.5 31.5s-3.16699 43.666 -4.5 69.999s-2.66602 52.166 -3.99902 77.499s-3.33301 43.666 -6 54.999
c-2.66699 0 -4.33398 -3.16699 -5.00098 -9.5s-1 -13.166 -1 -20.499c0 -6.66699 0.166992 -12.834 0.5 -18.501s0.5 -9.16699 0.5 -10.5c0 -16.667 -1.16699 -33.334 -3.5 -50.001s-3.5 -33.334 -3.5 -50.001c0 -9.33301 1.33301 -18.833 4 -28.5s4 -19.167 4 -28.5
c0 -1.33301 -0.166992 -2.66602 -0.5 -3.99902s-1.16602 -2 -2.49902 -2c-10.667 0 -16.667 4.16699 -18 12.5s-2 16.833 -2 25.5c0 13.333 -2 26.833 -6 40.5s-6 26.834 -6 39.501c0 6.66699 0.666992 12.667 2 18s2 11.333 2 18c0 20.667 -3.33301 40.5 -10 59.5
s-10 38.167 -10 57.5c0 3.33301 0.166992 6.33301 0.5 9s0.833008 5.66699 1.5 9c6 -0.666992 11.5 -3.5 16.5 -8.5s9.5 -10.5 13.5 -16.5s7.66699 -11.667 11 -17s6.66602 -8 9.99902 -8c2 0.666992 4.5 3.33398 7.5 8.00098s6.16699 10 9.5 16s7 11.667 11 17
s8.33301 9.66602 13 12.999zM93.0039 599.999c0 22.667 3.16406 41.8311 9.49707 57.498s15.333 28.5 27 38.5s25.334 17.5 41.001 22.5s32.834 7.5 51.501 7.5v-69c-25.333 -1.33301 -41.666 -9.16602 -48.999 -23.499s-11 -32.166 -11 -53.499v-14.5
c0 -5.66699 0.333008 -10.834 1 -15.501c0 -2.66699 0.166992 -5.16699 0.5 -7.5s0.5 -5.16602 0.5 -8.49902v-17h90v-69h-90v-448h-71v600z" />
    <glyph glyph-name="fl" unicode="&#xfb02;" horiz-adv-x="517" 
d="M328 714h77v-714h-77v714zM93 600c0 22.667 3.16406 41.8311 9.49707 57.498s15.333 28.5 27 38.5s25.334 17.5 41.001 22.5s32.834 7.5 51.501 7.5v-69c-25.333 -1.33301 -41.666 -9.16602 -48.999 -23.499s-11 -32.166 -11 -53.499v-14.5
c0 -5.66699 0.333008 -10.834 1 -15.501c0 -2.66699 0.166992 -5.16699 0.5 -7.5s0.5 -5.16602 0.5 -8.49902v-17h90v-69h-90v-448h-71v600z" />
    <glyph glyph-name=".null" horiz-adv-x="0" 
 />
    <glyph glyph-name="S.001" horiz-adv-x="681" 
d="M454 566c-5.33301 9.33301 -10.832 18.168 -16.499 26.501s-13.167 16.5 -22.5 24.5c-30 26.667 -67.333 40 -112 40c-19.333 0 -38 -2.16699 -56 -6.5s-34 -11.5 -48 -21.5s-25.167 -23.167 -33.5 -39.5s-12.5 -36.5 -12.5 -60.5c0 -21.333 4.83301 -38.833 14.5 -52.5
s22.667 -25 39 -34s35.166 -16.333 56.499 -22s44 -11.167 68 -16.5l14 -4c2.66699 -1.33301 8.33398 -2.66602 17.001 -3.99902c22.667 -6.66699 45.667 -15.334 69 -26.001s44.666 -23.834 63.999 -39.501s35.166 -34.5 47.499 -56.5s18.5 -47.333 18.5 -76
c0 -37.333 -7.33301 -69 -22 -95s-33.667 -47.167 -57 -63.5s-49.333 -28.166 -78 -35.499s-57 -11 -85 -11c-55.333 0 -104.666 12.833 -147.999 38.5s-74.666 63.834 -93.999 114.501l27 20c4.66699 4.66699 11.334 9.66699 20.001 15l11 9c6 -22 15 -41.167 27 -57.5
s26.333 -30 43 -41s35 -19.167 55 -24.5s40.667 -8 62 -8c19.333 0 39 2 59 6s38 11.167 54 21.5s29.167 24.333 39.5 42s15.5 39.834 15.5 66.501c0 24.667 -5.5 44.834 -16.5 60.501s-25.5 28.667 -43.5 39s-38.667 18.5 -62 24.5s-47.333 11.667 -72 17l-15 4
c-22.667 6 -45.834 13.667 -69.501 23s-45.334 21.166 -65.001 35.499s-35.667 31.5 -48 51.5s-18.5 44 -18.5 72c0 35.333 6.5 65.666 19.5 90.999s30 46.166 51 62.499s45 28.333 72 36s54.833 11.5 83.5 11.5c23.333 0 46.333 -2.83301 69 -8.5
s43.667 -13.834 63 -24.501c32 -20.667 56.667 -48.667 74 -84z" />
    <glyph glyph-name="s.001" horiz-adv-x="493" 
d="M132 132c4 -13.333 9.8291 -24.3369 17.4961 -33.0039s16.834 -15.667 27.501 -21s22.5 -9.16602 35.5 -11.499s26.167 -3.5 39.5 -3.5c12 0 24.667 1 38 3s25.5 5.66699 36.5 11s20.167 13.166 27.5 23.499s11 23.5 11 39.5c0 22 -7.5 38.667 -22.5 50
s-33.833 20.333 -56.5 27s-47 12.834 -73 18.501s-50.333 13.834 -73 24.501s-41.5 25.334 -56.5 44.001s-22.5 44.667 -22.5 78c0 26 5.16699 48.333 15.5 67s23.833 33.834 40.5 45.501s35.334 20.334 56.001 26.001s41 8.5 61 8.5c21.333 0 41.333 -1.66699 60 -5
s35.667 -8.66602 51 -15.999l-14 -90c-10.667 13.333 -24 22.666 -40 27.999s-32.667 8 -50 8c-11.333 0 -23 -1 -35 -3s-22.667 -5.5 -32 -10.5s-17 -11.833 -23 -20.5s-9 -19.334 -9 -32.001c0 -20.667 7.5 -36.167 22.5 -46.5s33.833 -18.833 56.5 -25.5
s47 -12.667 73 -18s50.333 -13.5 73 -24.5s41.5 -25.833 56.5 -44.5s22.5 -44.667 22.5 -78c0 -30.667 -5.83301 -56.5 -17.5 -77.5s-27 -37.833 -46 -50.5s-40.333 -21.667 -64 -27s-47.167 -8 -70.5 -8c-39.333 0 -75.166 7.33301 -107.499 22s-56.166 38.667 -71.499 72z
" />
    <glyph glyph-name="ç" horiz-adv-x="534" 
d="M302 447c-7.33301 3.33301 -14.502 5.33105 -21.502 5.99805s-14.5 1 -22.5 1c-27.333 0 -50.166 -5.5 -68.499 -16.5s-33.166 -25.833 -44.499 -44.5s-19.5 -40.167 -24.5 -64.5s-7.5 -49.833 -7.5 -76.5c0 -24 2.5 -47.333 7.5 -70s13 -42.834 24 -60.501
s25.167 -31.834 42.5 -42.501s38 -16 62 -16c9.33301 0 18.333 0.666992 27 2s17 4 25 8l39 -67c-12 -5.33301 -24.5 -9.33301 -37.5 -12s-26.167 -4.66699 -39.5 -6l2 -36c20 0 37.667 -6.33301 53 -19s23 -30.667 23 -54c0 -16.667 -3.5 -30.667 -10.5 -42
s-15.833 -20.5 -26.5 -27.5s-22.667 -12 -36 -15s-26.333 -4.5 -39 -4.5l-11 50c4 0 9.16699 0.333008 15.5 1s12.5 2.16699 18.5 4.5s11.167 5.5 15.5 9.5s6.5 9.33301 6.5 16c0 12 -5 20.167 -15 24.5s-19.333 6.5 -28 6.5l-5 88
c-32.667 2.66699 -61.167 11.334 -85.5 26.001s-44.5 33.834 -60.5 57.501s-28 50.834 -36 81.501s-12 63 -12 97c0 38 4.5 73.833 13.5 107.5s22.5 63 40.5 88s40.833 44.833 68.5 59.5s60.167 22 97.5 22c15.333 0 30 -1.16699 44 -3.5s28 -6.16602 42 -11.499z" />
    <glyph glyph-name="at.001" horiz-adv-x="964" 
d="M569 224c0 -7.33301 1.66895 -14.1689 5.00195 -20.502s8.66602 -9.5 15.999 -9.5c18 0 34.5 8.66699 49.5 26s27.833 38 38.5 62s18.834 48.667 24.501 74s8.5 46 8.5 62c0 36.667 -6.33301 70.5 -19 101.5s-29.834 57.667 -51.501 80s-46.834 39.666 -75.501 51.999
s-59.334 18.5 -92.001 18.5c-38.667 0 -74.334 -8.5 -107.001 -25.5s-60.834 -39.833 -84.501 -68.5s-42.167 -62 -55.5 -100s-20 -77.667 -20 -119c0 -42 7 -81.667 21 -119s33.333 -70 58 -98s53.5 -50.333 86.5 -67s68.5 -25 106.5 -25
c41.333 0 81.666 10.667 120.999 32s71.666 50 96.999 86h55c-14 -26.667 -31 -50.667 -51 -72s-42 -39.333 -66 -54s-49.333 -26 -76 -34s-54 -12 -82 -12c-46 0 -89.167 9.5 -129.5 28.5s-75.166 45.167 -104.499 78.5s-52.5 72.333 -69.5 117s-25.5 92.667 -25.5 144
c0 50 8.5 96.833 25.5 140.5s40.333 82 70 115s64.167 59 103.5 78s81.333 28.5 126 28.5c38.667 0 76 -7.16699 112 -21.5s67.833 -34.666 95.5 -60.999s49.667 -58 66 -95s24.5 -78.167 24.5 -123.5c0 -29.333 -5 -60.666 -15 -93.999s-24.167 -64 -42.5 -92
s-40 -51.167 -65 -69.5s-52.5 -27.5 -82.5 -27.5c-17.333 0 -30.666 6.16699 -39.999 18.5s-14.666 27.5 -15.999 45.5h-2c-13.333 -18 -29.5 -33.333 -48.5 -46s-39.167 -19 -60.5 -19c-19.333 0 -36.833 4.16699 -52.5 12.5s-29 19.666 -40 33.999
s-19.333 30.833 -25 49.5s-8.5 38 -8.5 58c0 32 4.66699 64.5 14 97.5s23 62.833 41 89.5s39.833 48.334 65.5 65.001s54.5 25 86.5 25c23.333 0 43.333 -7.16699 60 -21.5s29.334 -33.833 38.001 -58.5l20 61h55c-2.66699 -9.33301 -6.5 -22.833 -11.5 -40.5
s-10.5 -37.334 -16.5 -59.001s-12.333 -44.167 -19 -67.5s-12.667 -45.666 -18 -66.999s-9.66602 -40.166 -12.999 -56.499s-5 -28.5 -5 -36.5zM338.002 298.997c0 -12 1.66504 -23.668 4.99805 -35.001s8.33301 -21.333 15 -30s14.5 -15.667 23.5 -21s19.5 -8 31.5 -8
c20 0 38.333 7.33301 55 22s31 32.5 43 53.5s21.5 43.5 28.5 67.5s10.5 45.667 10.5 65c0 10.667 -1.83301 21.334 -5.5 32.001s-8.66699 20.334 -15 29.001s-13.833 15.667 -22.5 21s-18 8 -28 8c-21.333 0 -40.666 -6.83301 -57.999 -20.5s-32.166 -30.667 -44.499 -51
s-21.833 -42.333 -28.5 -66s-10 -45.834 -10 -66.501z" />
    <glyph glyph-name="idieresis.002" horiz-adv-x="345" 
d="M35 806v96h77v-96h-77zM182 806v96h77v-96h-77zM221 338c0 -13.333 -1.82812 -24.1729 -5.49512 -32.5059s-8.16699 -12.5 -13.5 -12.5c-2.66699 4 -3.33398 9 -2.00098 15s2 11.333 2 16l-9 -17c-1.33301 -2 -2 -1.5 -2 1.5s0.5 6.83301 1.5 11.5
s2.16699 9.66699 3.5 15s2.66602 9 3.99902 11l3 10c5.33301 31.333 7.33301 62.333 6 93s-8.33301 57.334 -21 80.001c-2.66699 -7.33301 -4.33398 -15.333 -5.00098 -24s-1.33398 -17.667 -2.00098 -27s-1.5 -19.166 -2.5 -29.499s-2.83301 -21.166 -5.5 -32.499
c-6.66699 -5.33301 -13 -10.666 -19 -15.999s-13 -8 -21 -8c-2 0 -5.5 1.16699 -10.5 3.5s-15.5 9.16602 -31.5 20.499v43c0 10 1 19.5 3 28.5s2.66699 18.167 2 27.5c-5.33301 -21.333 -10 -42.5 -14 -63.5s-6 -43.167 -6 -66.5c0 -8 2.16699 -17.333 6.5 -28
s6.5 -22 6.5 -34c0 -1.33301 -0.666992 -4 -2 -8l-4 14v-28c-5.33301 2.66699 -10.166 9 -14.499 19s-5.83301 21.333 -4.5 34v8c-1.33301 15.333 -2.33301 29 -3 41s-0.833984 23.5 -0.500977 34.5s1 21.667 2 32s2.5 21.833 4.5 34.5
c3.33301 22.667 6.66602 40.834 9.99902 54.501s6.33301 24.334 9 32.001s5.16699 12.834 7.5 15.501s4.16602 4.66699 5.49902 6c9.33301 3.33301 16.833 5.83301 22.5 7.5s10.167 3.83398 13.5 6.50098v6c0 5.33301 -1.16699 10 -3.5 14s-3.5 12.667 -3.5 26
c0 2 0.333008 5.5 1 10.5s2 10 4 15s4.66699 9.33301 8 13s8 5.5 14 5.5c5.33301 0 9.5 -2.33301 12.5 -7s5.16699 -10.334 6.5 -17.001s2 -13.334 2 -20.001v-17c0 -6 -1 -11.333 -3 -16s-4.66699 -9 -8 -13c6 -7.33301 12.667 -12 20 -14s13 -7.66699 17 -17
c2 -6 4.16699 -14 6.5 -24s4.5 -20.667 6.5 -32s3.83301 -22.666 5.5 -33.999s3.16699 -21.333 4.5 -30c2 -16.667 2.83301 -31 2.5 -43s-1 -23 -2 -33s-2.16699 -19.833 -3.5 -29.5s-1.66602 -20.167 -0.999023 -31.5zM178.005 13.9932
c3.33301 -13.333 4.33301 -23.5098 3 -30.5098s-4 -9.5 -8 -7.5c-0.666992 0.666992 -2 2.33398 -4 5.00098c-1.33301 2.66699 -3.16602 6.5 -5.49902 11.5s-5.16602 12.167 -8.49902 21.5c-2.66699 12.667 -3.5 22.667 -2.5 30s1.5 17.333 1.5 30
c0 12 -1.33301 23.833 -4 35.5s-4 23.167 -4 34.5c0 28 0.5 55.5 1.5 82.5s-2.16699 53.833 -9.5 80.5l1 -105c0 -8.66699 -0.5 -18.167 -1.5 -28.5s-2 -20.166 -3 -29.499s-1.83301 -17.833 -2.5 -25.5s-1 -13.167 -1 -16.5c0 -13.333 2.16699 -25.833 6.5 -37.5
s5.5 -23.834 3.5 -36.501c-0.666992 -11.333 -4.66699 -15.666 -12 -12.999s-12 9.66699 -14 21c0 4 -0.333008 10.833 -1 20.5s-0.333984 18.167 0.999023 25.5c1.33301 4.66699 1.5 12.334 0.5 23.001s-2.5 22.5 -4.5 35.5s-3.66699 26.333 -5 40
s-1.33301 25.834 0 36.501c-3.33301 23.333 -7 48.833 -11 76.5s-6 53.5 -6 77.5c0 4.66699 0.333008 9.33398 1 14.001s1 9.33398 1 14.001c10 -4.66699 17.5 -10.834 22.5 -18.501s8.83301 -15 11.5 -22s4.66699 -13.167 6 -18.5s3.66602 -8 6.99902 -8h3
c2.66699 0 5.16699 3.16699 7.5 9.5s4.83301 13.833 7.5 22.5s5.66699 17 9 25s7.66602 13.667 12.999 17c0 -14.667 1 -29 3 -43s3 -28.667 3 -44c0 -17.333 -0.666992 -38.666 -2 -63.999s-0.666016 -50.666 2.00098 -75.999c0 -23.333 -2.33301 -45.666 -7 -66.999
s-7 -43.666 -7 -66.999c0 -5.33301 1 -10.666 3 -15.999s3.66699 -10.333 5 -15z" />
    <glyph glyph-name="_0024" horiz-adv-x="0" 
 />
    </font>
</defs>
</svg>
